<svg width="69" height="69" viewBox="0 0 69 69" fill="none" xmlns="http://www.w3.org/2000/svg">
<g clip-path="url(#clip0_60_26785)">
<path d="M58.4697 58.4684C71.8451 45.0929 71.8451 23.4071 58.4697 10.0316C45.0942 -3.34386 23.4083 -3.34387 10.0329 10.0316C-3.3426 23.407 -3.3426 45.093 10.0329 58.4684C23.4083 71.8439 45.0942 71.8439 58.4697 58.4684Z" fill="#ECECEC"/>
<path d="M57.6073 9.20312L50.4757 10.9465L34.3289 29.4058C34.3289 29.4058 30.2139 40.0819 34.2506 50.8308C39.4202 64.5963 47.2956 65.8323 47.3684 65.8969C59.7741 60.7479 68.5005 48.5196 68.5005 34.251C68.5005 24.3627 64.3085 15.4548 57.6073 9.20312Z" fill="#EDD314"/>
<path d="M21.4447 14.7012L10.7301 17.8222C10.7301 17.8222 5.16455 24.3034 6.25484 40.2082C7.51012 58.5204 16.172 63.3037 16.7013 63.6543C21.3526 66.4385 26.7188 68.1529 32.4603 68.4513C31.8279 67.5411 23.4878 61.5301 20.6871 43.9246C18.2865 28.8282 25.656 17.8813 25.656 17.8813L21.4461 14.7012H21.4447Z" fill="#EDD314"/>
<path d="M58.0616 36.4517C67.3352 29.3641 66.8485 23.8796 66.8691 23.7875C66.8691 23.7848 66.8664 23.7806 66.8664 23.7765C66.8664 23.7765 65.9452 20.4933 63.7289 16.8113C62.2839 14.4094 60.5817 12.1793 58.6253 10.1953L43.0518 19.4305L34.3281 29.404C34.3281 29.404 31.3817 35.1895 32.8377 45.3981C32.8432 45.3981 46.3584 45.3981 58.0643 36.4503L58.0616 36.4517Z" fill="#365FC6"/>
<path d="M34.3289 0C20.6707 0 8.88239 7.99364 3.38281 19.5579C3.44193 19.5373 10.6464 15.8883 21.9343 18.9667C30.6772 21.3507 34.3289 29.4049 34.3289 29.4049C34.3289 29.4049 46.6521 28.9443 53.4029 22.9772C60.8809 16.3654 59.2214 10.7833 59.2255 10.7324C52.9808 4.12331 44.1361 0 34.3289 0Z" fill="#365FC6"/>
<path d="M40.0646 4.01129C34.3477 1.42511 27.4499 0.895778 26.7336 0.847656C21.0209 2.14006 15.8499 4.86097 11.6152 8.61444C13.3174 8.23909 22.6666 6.31149 32.4531 11.1662C41.8258 15.8161 46.9665 26.7452 46.9665 26.7452C49.2818 25.8336 51.5477 24.6127 53.3955 22.9793C55.2448 21.3446 56.5344 19.7745 57.4281 18.3336C57.4281 18.3336 49.1677 8.13047 40.0632 4.01266L40.0646 4.01129Z" fill="#EDD314"/>
<path d="M55.6054 53.1071C48.1508 57.3748 38.0508 58.3785 38.0508 58.3785L39.3349 60.1287C43.4321 65.2296 47.3121 65.851 47.3643 65.895C56.5074 62.1003 65.3246 53.0329 67.4653 42.6387C67.4653 42.6387 64.8186 47.8303 55.6068 53.1044L55.6054 53.1071Z" fill="#365FC6"/>
<g opacity="0.32">
<path d="M52.0046 4.91211C56.9927 10.8613 59.9969 18.5304 59.9969 26.9008C59.9969 45.8166 44.6627 61.1508 25.7469 61.1508C19.2257 61.1508 13.1322 59.3277 7.94336 56.1654C14.2266 63.66 23.6557 68.4267 34.2011 68.4267C53.1169 68.4267 68.4511 53.0925 68.4511 34.1767C68.4511 21.7821 61.8667 10.9245 52.0046 4.91211Z" fill="#274789"/>
</g>
<g opacity="0.55">
<path d="M10.8319 13.0724C7.18431 17.3978 5.0106 23.0899 5.50006 28.7269C5.76267 31.7462 6.85571 34.8163 9.12153 36.8292C11.3874 38.842 14.969 39.5185 17.5249 37.8906C19.0551 36.9158 20.0396 35.2934 20.8535 33.671C22.4704 30.4442 23.6555 26.9409 25.9324 24.1403C29.2885 20.0101 34.663 17.8515 37.8293 13.5728C39.1479 11.791 40.0305 9.37666 39.0819 7.37206C37.1735 3.33949 28.6533 3.18551 24.9466 3.90045C19.6986 4.91237 14.1976 9.07968 10.8305 13.071L10.8319 13.0724Z" fill="white"/>
</g>
<g filter="url(#filter0_ii_60_26785)">
<path d="M55.1788 34.0467C55.1898 38.1579 53.99 42.1801 51.7311 45.6043C49.4722 49.0284 46.2557 51.7006 42.4886 53.2828C38.7216 54.865 34.5733 55.2861 30.5685 54.4928C26.5638 53.6995 22.8826 51.7274 19.9907 48.8261C17.0989 45.9249 15.1263 42.2247 14.3227 38.1939C13.519 34.1631 13.9204 29.9828 15.4759 26.1819C17.0315 22.3809 19.6714 19.1302 23.0615 16.841C26.4517 14.5518 30.4399 13.327 34.5213 13.3216C37.2287 13.316 39.9105 13.8476 42.4139 14.8861C44.9173 15.9246 47.1932 17.4497 49.1115 19.3742C51.0297 21.2988 52.5529 23.5851 53.5939 26.1026C54.6349 28.6201 55.1735 31.3195 55.1788 34.0467Z" fill="#8250CB"/>
</g>
<path d="M54.1788 34.0486L54.1788 34.0494C54.1893 37.9644 53.0467 41.794 50.8964 45.0536C48.7461 48.3131 45.685 50.8557 42.1014 52.3608C38.5178 53.866 34.572 54.2665 30.7628 53.5119C26.9536 52.7573 23.4511 50.8813 20.699 48.1202C17.9468 45.359 16.0686 41.8366 15.3034 37.9984C14.5381 34.1601 14.9203 30.1796 16.4014 26.5606C17.8825 22.9418 20.3954 19.8479 23.6211 17.6698C26.8468 15.4917 30.6407 14.3268 34.5226 14.3216L34.5234 14.3216C37.0984 14.3162 39.6493 14.8218 42.0307 15.8098C44.4122 16.7977 46.5776 18.2487 48.4032 20.0802C50.2288 21.9117 51.6787 24.0879 52.6698 26.4847C53.6609 28.8816 54.1738 31.4518 54.1788 34.0486Z" stroke="white" stroke-width="2"/>
</g>
<defs>
<filter id="filter0_ii_60_26785" x="11.918" y="9.32227" width="45.2617" height="49.5605" filterUnits="userSpaceOnUse" color-interpolation-filters="sRGB">
<feFlood flood-opacity="0" result="BackgroundImageFix"/>
<feBlend mode="normal" in="SourceGraphic" in2="BackgroundImageFix" result="shape"/>
<feColorMatrix in="SourceAlpha" type="matrix" values="0 0 0 0 0 0 0 0 0 0 0 0 0 0 0 0 0 0 127 0" result="hardAlpha"/>
<feOffset dx="2" dy="4"/>
<feGaussianBlur stdDeviation="5"/>
<feComposite in2="hardAlpha" operator="arithmetic" k2="-1" k3="1"/>
<feColorMatrix type="matrix" values="0 0 0 0 0 0 0 0 0 0 0 0 0 0 0 0 0 0 0.15 0"/>
<feBlend mode="normal" in2="shape" result="effect1_innerShadow_60_26785"/>
<feColorMatrix in="SourceAlpha" type="matrix" values="0 0 0 0 0 0 0 0 0 0 0 0 0 0 0 0 0 0 127 0" result="hardAlpha"/>
<feOffset dx="-2" dy="-4"/>
<feGaussianBlur stdDeviation="5"/>
<feComposite in2="hardAlpha" operator="arithmetic" k2="-1" k3="1"/>
<feColorMatrix type="matrix" values="0 0 0 0 0 0 0 0 0 0 0 0 0 0 0 0 0 0 0.15 0"/>
<feBlend mode="normal" in2="effect1_innerShadow_60_26785" result="effect2_innerShadow_60_26785"/>
</filter>
<clipPath id="clip0_60_26785">
<rect width="68.5" height="68.5" fill="white"/>
</clipPath>
</defs>
</svg>
