<svg width="87" height="70" viewBox="0 0 87 70" fill="none" xmlns="http://www.w3.org/2000/svg">
<g clip-path="url(#clip0_60_26501)">
<path d="M58.1857 57.6874L54.7869 54.7827V47.5707L59.0914 46.6484L59.5156 50.6751L58.1857 57.6874Z" fill="#161616"/>
<path d="M69.5128 54.7812C69.5128 54.7812 67.2008 57.724 67.5965 59.6732C67.9969 61.6224 68.9121 62.654 71.1478 62.9345C73.3835 63.215 77.1684 63.0914 78.1265 64.4083C79.0847 65.7204 78.7653 67.1942 78.7653 67.1942C78.7653 67.1942 64.5695 68.5443 59.0637 68.9056C53.558 69.2622 29.5233 69.6235 24.5276 69.4619C19.5272 69.305 6.66132 67.2892 6.66132 67.2892L5.06441 67.6743V66.3432L4.56389 66.5619V65.8868L4.0872 66.0865V65.5873L3.39124 65.7775L3.49611 64.9693L3.25776 65.0216V64.6222L2.53796 64.993L2.64283 64.3988L2.35205 64.4273L2.41879 63.7522L1.72758 64.0327L1.8849 62.8394L0.497726 62.7063C0.497726 62.7063 4.68306 58.6891 5.06441 57.8524L4.88327 55.4468L10.0696 57.0394L8.74921 58.4371C8.74921 58.4371 7.01884 59.5258 7.35728 61.0757C7.69573 62.6255 9.2116 63.2055 12.1242 63.6809C15.0367 64.1563 18.7597 64.5366 20.6712 64.375C22.5875 64.2181 23.3311 62.3355 23.3311 62.3355C23.3311 62.3355 23.784 60.3198 22.8544 58.9173L28.1981 58.9696C28.1981 58.9696 27.3735 61.3562 28.5175 62.9725C29.6616 64.5889 33.5942 64.432 36.1207 64.4035C38.6472 64.375 58.0293 64.0565 58.0293 64.0565C58.0293 64.0565 61.5664 64.1896 62.7104 61.0614C63.8545 57.9332 60.8227 56.3406 60.8227 56.3406L69.5175 54.7908L69.5128 54.7812Z" fill="#5E5E5E"/>
<path d="M72.2252 55.7752L72.9689 42.9439C72.9689 42.9439 76.6918 34.7764 69.9895 20.5664C69.9895 20.5664 67.2247 12.9313 66.586 10.3832C66.586 10.3832 58.3965 1.57858 52.6524 0.413833C52.6524 0.413833 49.9924 -0.0092804 48.4003 0.413833C48.4003 0.413833 45.2112 -0.750918 42.8707 0.836947C42.8707 0.836947 41.9412 20.0577 37.8559 26.4234C37.7272 26.6279 37.5747 26.8133 37.4078 26.9939C35.8062 28.7434 26.7491 38.3942 18.2211 42.4114C18.0686 42.4827 17.9017 42.535 17.7349 42.5636C16.0998 42.8536 6.93788 44.5698 4.90242 47.0799C4.90242 47.0799 0.755226 52.1716 4.90242 56.8353C4.90242 56.8353 9.47386 60.1252 24.1511 60.3343C24.1511 60.3343 35.0006 61.076 41.5932 57.363C48.1858 53.6501 55.2074 48.5585 58.182 48.2399V57.6816C58.182 57.6816 68.4975 57.6816 72.2205 55.7704L72.2252 55.7752Z" fill="white"/>
<path d="M48.6707 5.63771C48.6707 6.35558 49.2523 6.93558 49.9721 6.93558C50.6919 6.93558 51.2734 6.35558 51.2734 5.63771C51.2734 4.91984 50.6919 4.33984 49.9721 4.33984C49.2523 4.33984 48.6707 4.91984 48.6707 5.63771Z" fill="#C9C9C9"/>
<path opacity="0.5" d="M49.9712 6.65949C49.4052 6.65949 48.9463 6.20187 48.9463 5.63736C48.9463 5.07286 49.4052 4.61523 49.9712 4.61523C50.5372 4.61523 50.9961 5.07286 50.9961 5.63736C50.9961 6.20187 50.5372 6.65949 49.9712 6.65949Z" fill="#A6A6A6"/>
<path d="M47.8992 10.9111C47.8992 11.629 48.4808 12.209 49.2006 12.209C49.9204 12.209 50.502 11.629 50.502 10.9111C50.502 10.1933 49.9204 9.61328 49.2006 9.61328C48.4808 9.61328 47.8992 10.1933 47.8992 10.9111Z" fill="#C9C9C9"/>
<path opacity="0.5" d="M49.2017 11.9329C48.6357 11.9329 48.1768 11.4753 48.1768 10.9108C48.1768 10.3463 48.6357 9.88867 49.2017 9.88867C49.7677 9.88867 50.2266 10.3463 50.2266 10.9108C50.2266 11.4753 49.7677 11.9329 49.2017 11.9329Z" fill="#A6A6A6"/>
<path d="M46.8738 16.2686C46.8738 16.9864 47.4554 17.5664 48.1752 17.5664C48.895 17.5664 49.4766 16.9864 49.4766 16.2686C49.4766 15.5507 48.895 14.9707 48.1752 14.9707C47.4554 14.9707 46.8738 15.5507 46.8738 16.2686Z" fill="#C9C9C9"/>
<path opacity="0.5" d="M48.1743 17.2904C47.6083 17.2904 47.1495 16.8327 47.1495 16.2682C47.1495 15.7037 47.6083 15.2461 48.1743 15.2461C48.7404 15.2461 49.1992 15.7037 49.1992 16.2682C49.1992 16.8327 48.7404 17.2904 48.1743 17.2904Z" fill="#A6A6A6"/>
<path d="M45.3152 21.4932C45.3152 22.211 45.8968 22.791 46.6166 22.791C47.3364 22.791 47.918 22.211 47.918 21.4932C47.918 20.7753 47.3364 20.1953 46.6166 20.1953C45.8968 20.1953 45.3152 20.7753 45.3152 21.4932Z" fill="#C9C9C9"/>
<path opacity="0.5" d="M46.6216 22.515C46.0556 22.515 45.5967 22.0573 45.5967 21.4928C45.5967 20.9283 46.0556 20.4707 46.6216 20.4707C47.1876 20.4707 47.6465 20.9283 47.6465 21.4928C47.6465 22.0573 47.1876 22.515 46.6216 22.515Z" fill="#A6A6A6"/>
<path d="M40.1253 22.1968L40.2969 21.9305C40.0395 21.7642 39.8917 21.6738 39.8917 21.6738L39.7248 21.9448C39.7248 21.9448 39.8726 22.0351 40.1253 22.1968Z" fill="#9B9B9B"/>
<path d="M46.4795 27.2421L46.7227 27.0329C46.5177 26.7952 46.2746 26.5432 46.0076 26.2818L45.7836 26.51C46.0458 26.7619 46.2793 27.0091 46.4795 27.2421ZM45.5405 26.277L45.7597 26.0441C45.5262 25.8254 45.264 25.5924 44.9923 25.3595L44.7825 25.6019C45.0542 25.8349 45.3069 26.0583 45.5405 26.277ZM44.5251 25.3832L44.7301 25.1408C44.4679 24.9221 44.201 24.7082 43.9293 24.4942L43.7338 24.7462C44.0008 24.9554 44.2677 25.1693 44.5251 25.3832ZM43.4621 24.537L43.6575 24.2851C43.3811 24.0711 43.1046 23.8667 42.8376 23.6718L42.6517 23.9285C42.9187 24.1234 43.1904 24.3278 43.4669 24.537H43.4621ZM42.3705 23.7288L42.5564 23.4721C42.2656 23.2629 41.9796 23.0633 41.7174 22.8826L41.5363 23.1441C41.7985 23.3247 42.0797 23.5196 42.3705 23.7288ZM41.255 22.9492L41.4362 22.6877C41.112 22.4642 40.8212 22.2741 40.5829 22.1172L40.4065 22.3834C40.6449 22.5403 40.9309 22.7305 41.255 22.9492Z" fill="#9B9B9B"/>
<path d="M47.0524 28.2821C47.1907 27.9968 47.2479 27.8399 47.2526 27.8352L47.2812 27.7591L47.2336 27.6926C47.143 27.5642 47.0477 27.4311 46.9428 27.3027L46.6949 27.5024C46.776 27.607 46.8522 27.7068 46.9237 27.8067C46.8951 27.878 46.8427 27.9921 46.7664 28.1537L47.0524 28.2916V28.2821Z" fill="#9B9B9B"/>
<path d="M13.3066 47.7321C13.6212 47.7321 13.9549 47.7084 14.2886 47.6656L14.2505 47.3518C13.9263 47.3898 13.6069 47.4136 13.3019 47.4136V47.7321H13.3066ZM12.9777 47.7274L12.9872 47.4089C12.6679 47.3993 12.3485 47.3661 12.0482 47.309L11.991 47.6228C12.3103 47.6798 12.6393 47.7131 12.9777 47.7274ZM14.6175 47.6228C14.9178 47.5752 15.2229 47.5182 15.5804 47.4374L15.5089 47.1284C15.1609 47.2092 14.8606 47.2662 14.5698 47.3138L14.6175 47.6275V47.6228ZM11.6668 47.5562L11.7383 47.2472C11.4332 47.1759 11.1282 47.0808 10.8374 46.9667L10.7182 47.2615C11.0233 47.3851 11.3427 47.4849 11.6668 47.5562ZM15.895 47.3613C16.2144 47.2852 16.529 47.2092 16.8389 47.1331L16.7626 46.8241C16.4528 46.9002 16.1381 46.9762 15.8235 47.0523L15.895 47.3613ZM10.4179 47.1331L10.5514 46.8431C10.2892 46.7195 10.027 46.5769 9.77912 46.42L9.72668 46.3867L9.55031 46.653L9.60751 46.691C9.86969 46.8574 10.1414 47.0095 10.4179 47.1379V47.1331ZM17.1535 47.0571C17.4681 46.9762 17.7827 46.8954 18.0926 46.8146L18.0115 46.5056C17.7017 46.5864 17.3918 46.6672 17.0725 46.748L17.1487 47.0571H17.1535ZM18.4072 46.7338C18.7218 46.6482 19.0364 46.5626 19.3415 46.4771L19.2557 46.1728C18.9459 46.2584 18.636 46.3439 18.3214 46.4248L18.4024 46.7338H18.4072ZM9.27859 46.4295L9.50264 46.2013C9.29766 46.0016 9.19756 45.783 9.19756 45.5262C9.19756 45.5025 9.19756 45.4834 9.19756 45.4597L8.87818 45.4407C8.87818 45.4692 8.87818 45.4977 8.87818 45.5262C8.87818 45.8685 9.01165 46.1728 9.27859 46.4295ZM19.6561 46.3915C19.9707 46.3011 20.2806 46.2108 20.5904 46.1205L20.4999 45.8162C20.1948 45.9066 19.8849 45.9969 19.5703 46.0825L19.6561 46.3867V46.3915ZM20.9003 46.0302C21.2149 45.9351 21.52 45.84 21.8298 45.7449L21.7345 45.4407C21.4294 45.5357 21.1196 45.6308 20.8097 45.7259L20.9003 46.0302ZM22.1349 45.6498C22.4447 45.55 22.7546 45.4502 23.0597 45.3503L22.9596 45.0461C22.6545 45.1459 22.3494 45.2457 22.0396 45.3456L22.1349 45.6498ZM23.3648 45.2457C23.6746 45.1412 23.9797 45.0366 24.2848 44.932L24.1799 44.6325C23.8796 44.7371 23.5745 44.8416 23.2647 44.9462L23.3648 45.2457ZM24.5899 44.8226C24.8997 44.7133 25.2 44.6039 25.5003 44.4898L25.3907 44.1903C25.0904 44.2997 24.7901 44.4138 24.485 44.5231L24.5899 44.8226ZM25.8054 44.3757C26.1105 44.2616 26.4156 44.1428 26.7111 44.0239L26.5919 43.7292C26.2964 43.848 25.9961 43.9621 25.691 44.0762L25.8054 44.3757ZM27.0114 43.9051C27.3165 43.7815 27.6168 43.6626 27.9076 43.539L27.7837 43.2443C27.4881 43.3679 27.1926 43.4867 26.8875 43.6103L27.0067 43.9051H27.0114ZM28.2079 43.4107C28.5082 43.2823 28.8085 43.1539 29.0993 43.0256L28.9706 42.7356C28.6798 42.8639 28.3843 42.9923 28.084 43.1207L28.2079 43.4154V43.4107ZM29.3949 42.8925C29.6952 42.7594 29.986 42.6215 30.2768 42.4884L30.1433 42.1984C29.8573 42.3315 29.5617 42.4694 29.2662 42.6025L29.3949 42.8925ZM30.5723 42.3505C30.8678 42.2079 31.1586 42.07 31.4446 41.9274L31.3016 41.6421C31.0156 41.7848 30.7296 41.9226 30.4341 42.0653L30.5723 42.3505ZM31.7354 41.78C32.0262 41.6326 32.317 41.4853 32.5982 41.3379L32.4505 41.0574C32.1692 41.2048 31.8832 41.3521 31.5924 41.4995L31.7354 41.7848V41.78ZM32.8842 41.1858C33.175 41.0336 33.4563 40.8767 33.7375 40.7199L33.5802 40.4441C33.3037 40.5962 33.0225 40.7531 32.7317 40.9053L32.8842 41.1858ZM34.0188 40.563C34.3048 40.4013 34.586 40.2397 34.8577 40.0781L34.6957 39.8023C34.4239 39.964 34.1427 40.1256 33.8615 40.2872L34.0188 40.563ZM35.139 39.9117C35.4202 39.7405 35.6967 39.5741 35.9637 39.403L35.792 39.132C35.5251 39.2984 35.2486 39.4695 34.9721 39.6359L35.139 39.9069V39.9117ZM36.2401 39.2271C36.5166 39.0512 36.7883 38.8705 37.0505 38.6946L36.8741 38.4284C36.6119 38.6043 36.345 38.7802 36.0685 38.9561L36.2401 39.2223V39.2271ZM37.3222 38.514C37.5939 38.3285 37.8609 38.1431 38.1183 37.9577L37.9324 37.701C37.675 37.8864 37.4128 38.0671 37.1411 38.2525L37.3222 38.514ZM38.3805 37.7676C38.6474 37.5726 38.9096 37.3777 39.1622 37.1876L38.9668 36.9356C38.7189 37.1258 38.4615 37.3207 38.1946 37.5108L38.3805 37.7676ZM39.4149 36.9879C39.6771 36.7835 39.9297 36.5838 40.1728 36.3794L39.9726 36.1322C39.7295 36.3318 39.4769 36.5315 39.2194 36.7312L39.4149 36.9831V36.9879ZM40.4255 36.1749C40.6781 35.961 40.926 35.7518 41.1643 35.5427L40.9546 35.3049C40.721 35.5141 40.4779 35.7233 40.2253 35.9325L40.4302 36.1749H40.4255ZM41.4074 35.3287C41.6553 35.1053 41.8937 34.8866 42.1225 34.6679L41.9032 34.4397C41.6744 34.6536 41.4408 34.8723 41.1977 35.0958L41.4122 35.3335L41.4074 35.3287ZM42.3561 34.4445C42.5944 34.2115 42.8232 33.9833 43.0425 33.7551L42.8137 33.5364C42.5992 33.7599 42.3704 33.9881 42.132 34.2163L42.3561 34.4445ZM43.2665 33.5222C43.4953 33.2797 43.7146 33.0372 43.9244 32.8043L43.686 32.5951C43.481 32.8281 43.2665 33.061 43.0377 33.3035L43.2713 33.5222H43.2665ZM44.1389 32.5618C44.3581 32.3051 44.5679 32.0579 44.7633 31.8154L44.5155 31.6158C44.3248 31.8535 44.1198 32.1007 43.9005 32.3527L44.1436 32.5618H44.1389ZM44.9635 31.5587C45.1733 31.2877 45.3687 31.0263 45.5499 30.7791L45.2925 30.5936C45.1161 30.8361 44.9254 31.0928 44.7157 31.3638L44.9683 31.5587H44.9635ZM45.7358 30.5128C45.9265 30.2371 46.1076 29.9614 46.2744 29.6999L46.0027 29.5335C45.8406 29.795 45.6643 30.0612 45.4736 30.3322L45.7358 30.5128ZM46.4413 29.4241C46.6177 29.1294 46.7797 28.8394 46.918 28.5732L46.6367 28.4258C46.4985 28.692 46.3412 28.9725 46.1696 29.2625L46.446 29.4241H46.4413Z" fill="#9B9B9B"/>
<path d="M9.25721 45.1547C9.29535 45.0264 9.35732 44.8885 9.43359 44.7459L9.15234 44.5938C9.06177 44.7554 8.99504 44.9123 8.94737 45.0596L9.25245 45.1547H9.25721Z" fill="#9B9B9B"/>
<path d="M66.6813 11.2407L66.9102 11.022C66.9102 11.022 66.791 10.8984 66.5765 10.6797L66.3477 10.9031C66.5622 11.1171 66.6766 11.2407 66.6813 11.2407Z" fill="#9B9B9B"/>
<path d="M66.1236 10.6791L66.3477 10.4556C66.157 10.2702 65.9282 10.042 65.6565 9.78056L65.4372 10.0088C65.7041 10.2655 65.9377 10.4937 66.1236 10.6791ZM65.2036 9.78531L65.4229 9.55711C65.2084 9.35269 64.97 9.12925 64.7174 8.8963L64.5029 9.12925C64.7555 9.3622 64.9891 9.58088 65.2036 9.78531ZM64.2645 8.91056L64.479 8.67761C64.2502 8.46843 64.0119 8.25449 63.764 8.03105L63.5495 8.26876C63.7974 8.4922 64.0357 8.70613 64.2645 8.91531V8.91056ZM63.3111 8.05482L63.5209 7.81712C63.2873 7.60794 63.0442 7.39876 62.7916 7.18482L62.5818 7.42728C62.8345 7.64122 63.0728 7.8504 63.3064 8.05958L63.3111 8.05482ZM62.3387 7.2181L62.5437 6.97564C62.3006 6.77122 62.0527 6.56679 61.8 6.35761L61.5998 6.60483C61.8525 6.80925 62.1004 7.01843 62.3387 7.2181ZM61.352 6.4004L61.5522 6.15319C61.3043 5.95352 61.0516 5.75384 60.7942 5.55417L60.5988 5.80614C60.8514 6.00581 61.1041 6.20548 61.352 6.40515V6.4004ZM60.3461 5.60647L60.5416 5.3545C60.2889 5.15958 60.0315 4.96466 59.7693 4.7745L59.5787 5.03122C59.8361 5.22139 60.0935 5.4163 60.3461 5.60647ZM59.3213 4.84106L59.5072 4.58434C59.245 4.39417 58.9828 4.20877 58.7159 4.02811L58.5347 4.28958C58.7969 4.47024 59.0591 4.65565 59.3213 4.84581V4.84106ZM58.2725 4.10893L58.4537 3.84745C58.1867 3.6668 57.915 3.4909 57.6433 3.315L57.4717 3.58123C57.7387 3.75237 58.0104 3.92827 58.2725 4.10893ZM57.2 3.41483L57.3668 3.14385C57.0904 2.9727 56.8139 2.80631 56.5326 2.64942L56.3753 2.92516C56.6518 3.08205 56.9235 3.24844 57.2 3.41483ZM56.0988 2.76828L56.2561 2.48779C55.9654 2.32615 55.6794 2.17402 55.3981 2.03615L55.2551 2.32139C55.5316 2.45926 55.8176 2.61139 56.1036 2.76828H56.0988ZM44.1625 2.35467C44.4533 2.25959 44.7584 2.16451 45.0778 2.07893L44.992 1.77467C44.6678 1.865 44.358 1.96008 44.0624 2.05516L44.1625 2.35943V2.35467ZM54.9643 2.18352L55.1026 1.89828C54.7975 1.75566 54.5019 1.62254 54.2112 1.50369L54.092 1.79844C54.3732 1.91254 54.6688 2.0409 54.9643 2.18352ZM45.3829 1.99336C45.6927 1.91254 46.0073 1.83648 46.3124 1.76516L46.2409 1.45615C45.9311 1.52746 45.6164 1.60353 45.2971 1.6891L45.3781 1.99811L45.3829 1.99336ZM46.627 1.69861C46.9512 1.6273 47.2658 1.56549 47.5661 1.5132L47.5089 1.19943C47.2038 1.25648 46.8844 1.31828 46.5603 1.38959L46.627 1.69861ZM53.7964 1.68434L53.9108 1.38484C53.5962 1.26599 53.2816 1.1614 52.9861 1.07582L52.8955 1.38008C53.1863 1.46566 53.4866 1.56549 53.7964 1.68434ZM47.8855 1.45615C48.2192 1.3991 48.5386 1.3468 48.8341 1.30402L48.7864 0.990248C48.4861 1.03303 48.1667 1.08533 47.8283 1.14238L47.8807 1.45615H47.8855ZM52.5904 1.29926L52.6714 0.990248C52.3425 0.904674 52.0184 0.842871 51.7085 0.800084L51.6656 1.11385C51.9612 1.15189 52.271 1.21369 52.5904 1.29451V1.29926ZM49.1487 1.25648C49.511 1.20418 49.8351 1.16615 50.1021 1.13762L50.0687 0.819101C49.797 0.847625 49.4729 0.890412 49.1058 0.937953L49.1487 1.25172V1.25648ZM50.4215 1.10435C50.7504 1.07107 50.9411 1.05681 50.9411 1.05681C51.0698 1.05681 51.208 1.06631 51.3558 1.08058L51.3844 0.762052C51.2318 0.747789 51.0841 0.743035 50.9363 0.738281C50.922 0.738281 50.7313 0.752544 50.3929 0.785822L50.4262 1.10435H50.4215Z" fill="#9B9B9B"/>
<path d="M43.5006 2.94407L43.534 2.56849C43.6484 2.52571 43.7675 2.48292 43.8867 2.44013L43.7818 2.14062C43.6293 2.19292 43.4768 2.24997 43.329 2.30702L43.2337 2.34505L43.186 2.9203L43.5054 2.94882L43.5006 2.94407Z" fill="#9B9B9B"/>
<path d="M15.1556 43.6726C15.3224 43.6726 15.4893 43.6679 15.6609 43.6536L15.6371 43.3351C15.3224 43.3589 15.0126 43.3589 14.7171 43.3351L14.6885 43.6536C14.841 43.6679 14.9983 43.6726 15.1556 43.6726ZM15.9803 43.6251C16.2806 43.5918 16.6 43.5395 16.9289 43.4682L16.8622 43.1592C16.5428 43.2258 16.2329 43.278 15.9421 43.3113L15.9803 43.6251ZM17.2435 43.3969C17.5438 43.3256 17.8537 43.24 18.1683 43.1449L18.0729 42.8407C17.7679 42.9358 17.4628 43.0166 17.1672 43.0879L17.2435 43.3969ZM18.4734 43.0451C18.8595 42.9167 19.1789 42.7979 19.3743 42.7171L19.2551 42.4223C19.0645 42.4984 18.7546 42.6172 18.3733 42.7408L18.4734 43.0451ZM19.6699 42.5935C19.9511 42.4699 20.2419 42.3367 20.5327 42.1846L20.3896 41.8994C20.0989 42.0467 19.8129 42.1799 19.5411 42.2987L19.6699 42.5887V42.5935ZM20.8187 42.042C21.0952 41.8994 21.3716 41.7425 21.6529 41.5808L21.4956 41.3051C21.2191 41.4667 20.9426 41.6141 20.6709 41.7567L20.8187 42.0372V42.042ZM21.9294 41.424C22.1963 41.2671 22.468 41.1007 22.7397 40.9248L22.5681 40.6585C22.3012 40.8297 22.0295 40.9913 21.7673 41.153L21.9294 41.4287V41.424ZM23.0067 40.7536C23.2689 40.5825 23.5358 40.4066 23.798 40.2259L23.6168 39.9644C23.3547 40.1451 23.0925 40.3163 22.8303 40.4874L23.0019 40.7536H23.0067ZM24.0602 40.05C24.3176 39.8694 24.575 39.6887 24.8372 39.5033L24.6513 39.2466C24.3938 39.432 24.1364 39.6126 23.879 39.7933L24.0602 40.0548V40.05ZM25.0898 39.3131C25.3424 39.1277 25.5999 38.9376 25.8525 38.7474L25.6571 38.4954C25.4044 38.6856 25.1518 38.8758 24.8991 39.0612L25.0898 39.3179V39.3131ZM26.1052 38.5525C26.3578 38.3623 26.6057 38.1674 26.8536 37.9725L26.6581 37.7253C26.4102 37.9202 26.1624 38.1151 25.9145 38.3053L26.1099 38.5572L26.1052 38.5525ZM27.1014 37.7728C27.3493 37.5731 27.5972 37.3782 27.8403 37.1786L27.6401 36.9313C27.397 37.131 27.1539 37.3259 26.906 37.5256L27.1062 37.7728H27.1014ZM28.0834 36.9789C28.3313 36.7745 28.5744 36.5748 28.8127 36.3704L28.6078 36.1279C28.3694 36.3276 28.1263 36.532 27.8832 36.7317L28.0882 36.9789H28.0834ZM29.0559 36.1707C29.299 35.9615 29.5421 35.7571 29.7757 35.5574L29.5659 35.315C29.3323 35.5194 29.0892 35.7238 28.8461 35.9282L29.0511 36.1707H29.0559ZM30.0188 35.3482C30.2619 35.1391 30.5002 34.9299 30.7338 34.7254L30.5241 34.4877C30.2905 34.6922 30.0569 34.8966 29.8138 35.1105L30.0235 35.353L30.0188 35.3482ZM30.9721 34.5163C31.2153 34.3023 31.4536 34.0884 31.6777 33.8887L31.4631 33.651C31.2343 33.8554 31.0008 34.0646 30.7576 34.2786L30.9674 34.5163H30.9721ZM31.916 33.6748C32.1639 33.4561 32.3974 33.2422 32.6215 33.0425L32.407 32.8048C32.1829 33.0045 31.9494 33.2184 31.7063 33.4371L31.9208 33.6748H31.916ZM32.8551 32.8286L33.5558 32.1915L33.3413 31.9586L32.6406 32.5956L32.8551 32.8333V32.8286ZM33.7894 31.9776C34.0277 31.7589 34.2565 31.5402 34.4806 31.3263L34.2613 31.0981C34.042 31.312 33.8132 31.5259 33.5749 31.7446L33.7894 31.9776ZM34.7046 31.1076C34.9382 30.8794 35.1622 30.6559 35.3768 30.4373L35.1479 30.2138C34.9334 30.4325 34.7142 30.6559 34.4806 30.8794L34.7046 31.1076ZM35.596 30.2091C35.8201 29.9761 36.0394 29.7432 36.2443 29.515L36.006 29.301C35.801 29.5245 35.5865 29.7574 35.3625 29.9856L35.5913 30.2043L35.596 30.2091ZM36.4541 29.282C36.6733 29.0396 36.8783 28.8019 37.0738 28.5642L36.8307 28.3597C36.6352 28.5927 36.4302 28.8304 36.2157 29.0681L36.4541 29.282ZM37.2787 28.3217C37.4837 28.0697 37.6839 27.8178 37.8651 27.5753L37.6124 27.3851C37.4313 27.6276 37.2358 27.8701 37.0309 28.122L37.2787 28.3217ZM38.0557 27.3233C38.2512 27.0571 38.4323 26.8004 38.6039 26.5437L38.337 26.3678C38.1702 26.6197 37.989 26.8717 37.7983 27.1332L38.0557 27.3233ZM38.7803 26.2822C38.9567 26.016 39.1235 25.7402 39.2808 25.474L39.0044 25.3124C38.8518 25.5786 38.685 25.8448 38.5134 26.111L38.7803 26.2822ZM39.4381 25.1935C39.5955 24.913 39.7432 24.6278 39.8767 24.3473L39.5907 24.2094C39.4572 24.4851 39.3142 24.7609 39.1569 25.0366L39.4381 25.1887V25.1935ZM40.0149 24.062C40.1484 23.772 40.2724 23.4773 40.3868 23.1873L40.0912 23.0732C39.9816 23.3584 39.8576 23.6484 39.7242 23.9337L40.0149 24.0668V24.062ZM40.5012 22.8878C40.606 22.593 40.7109 22.2888 40.8015 21.9845L40.4964 21.8942C40.4058 22.1937 40.3057 22.4932 40.2008 22.7784L40.5012 22.8878ZM40.8873 21.6755C40.9683 21.3807 41.0446 21.0765 41.1209 20.7532L40.811 20.6819C40.7395 21.0004 40.6632 21.2999 40.5822 21.5899L40.8873 21.6755ZM41.1876 20.4442C41.2543 20.1304 41.3115 19.8166 41.3687 19.5124L41.0541 19.4553C41.0017 19.7596 40.9397 20.0638 40.873 20.3776L41.1828 20.4442H41.1876ZM41.4259 19.2034L41.4831 18.8753C41.5165 18.6757 41.5546 18.476 41.588 18.2763L41.2734 18.2193C41.2353 18.4189 41.2019 18.6186 41.1685 18.8183L41.1113 19.1463L41.4259 19.2034ZM41.65 17.9673C41.6929 17.7296 41.7406 17.4966 41.793 17.2637L41.8407 17.0498L41.5308 16.9832L41.4831 17.1971C41.4307 17.4348 41.383 17.6725 41.3354 17.9102L41.65 17.9673ZM41.9026 16.736C41.9598 16.4507 42.0123 16.137 42.0695 15.7994L41.7549 15.7471C41.6977 16.0799 41.6452 16.3889 41.588 16.6742L41.9026 16.736ZM42.1219 15.4904C42.1696 15.1909 42.2172 14.8771 42.2649 14.5539L41.9503 14.5063C41.9026 14.8296 41.855 15.1434 41.8073 15.4381L42.1219 15.4904ZM42.3078 14.2401C42.3507 13.9358 42.3936 13.6221 42.4365 13.3035L42.1219 13.2607C42.079 13.5793 42.0361 13.893 41.9932 14.1973L42.3078 14.2401ZM42.4747 12.9898C42.5128 12.6807 42.5509 12.367 42.5938 12.0485L42.2792 12.0104C42.2411 12.3289 42.2029 12.638 42.16 12.947L42.4747 12.9898ZM42.6272 11.7347C42.6653 11.4209 42.6987 11.1071 42.7368 10.7934L42.4175 10.7553C42.3793 11.0691 42.3459 11.3829 42.3078 11.6919L42.6224 11.7299L42.6272 11.7347ZM42.7702 10.4796L42.8751 9.53829L42.5557 9.50502L42.4508 10.4463L42.7702 10.4796ZM42.9084 9.22452C42.9418 8.906 42.9752 8.59223 43.0085 8.28322L42.6892 8.24994C42.6558 8.55895 42.6224 8.87272 42.5891 9.19125L42.9084 9.22452ZM43.0371 7.96945L43.1325 7.02814L42.8131 6.99486L42.7178 7.93617L43.0371 7.96945ZM43.1611 6.71437L43.2517 5.77306L42.9323 5.74453L42.8417 6.68584L43.1611 6.71437ZM43.2803 5.45929L43.3661 4.51798L43.0467 4.48945L42.9609 5.43076L43.2803 5.45929ZM43.3947 4.20421L43.4805 3.2629L43.1611 3.23438L43.0753 4.17568L43.3947 4.20421Z" fill="#9B9B9B"/>
<path d="M14.3781 43.6167L14.4258 43.303C14.2685 43.2792 14.1207 43.2459 13.9777 43.2031L13.8871 43.5074C14.0397 43.5549 14.2065 43.5882 14.3781 43.6167Z" fill="#9B9B9B"/>
<path d="M43.705 28.3243C43.2864 28.3243 42.947 27.9859 42.947 27.5684C42.947 27.1509 43.2864 26.8125 43.705 26.8125C44.1235 26.8125 44.4629 27.1509 44.4629 27.5684C44.4629 27.9859 44.1235 28.3243 43.705 28.3243Z" fill="#2B2B2B"/>
<path d="M39.4763 31.4395C39.4763 31.8579 39.8148 32.1954 40.2343 32.1954C40.6537 32.1954 40.9922 31.8579 40.9922 31.4395C40.9922 31.0211 40.6537 30.6836 40.2343 30.6836C39.8148 30.6836 39.4763 31.0211 39.4763 31.4395Z" fill="#2B2B2B"/>
<path d="M35.6111 34.6192C35.6111 35.0375 35.9495 35.3751 36.369 35.3751C36.7885 35.3751 37.127 35.0375 37.127 34.6192C37.127 34.2008 36.7885 33.8633 36.369 33.8633C35.9495 33.8633 35.6111 34.2008 35.6111 34.6192Z" fill="#2B2B2B"/>
<path d="M30.7185 37.9629C30.7185 38.3813 31.057 38.7188 31.4764 38.7188C31.8959 38.7188 32.2344 38.3813 32.2344 37.9629C32.2344 37.5446 31.8959 37.207 31.4764 37.207C31.057 37.207 30.7185 37.5446 30.7185 37.9629Z" fill="#2B2B2B"/>
<path d="M26.3728 40.295C26.3728 40.7133 26.7113 41.0509 27.1307 41.0509C27.5502 41.0509 27.8887 40.7133 27.8887 40.295C27.8887 39.8766 27.5502 39.5391 27.1307 39.5391C26.7113 39.5391 26.3728 39.8766 26.3728 40.295Z" fill="#2B2B2B"/>
<path d="M21.8474 42.6016C21.8474 43.02 22.1859 43.3575 22.6053 43.3575C23.0248 43.3575 23.3633 43.02 23.3633 42.6016C23.3633 42.1832 23.0248 41.8457 22.6053 41.8457C22.1859 41.8457 21.8474 42.1832 21.8474 42.6016Z" fill="#2B2B2B"/>
<path d="M17.8632 45.1739C17.4446 45.1739 17.1052 44.8355 17.1052 44.418C17.1052 44.0005 17.4446 43.6621 17.8632 43.6621C18.2818 43.6621 18.6211 44.0005 18.6211 44.418C18.6211 44.8355 18.2818 45.1739 17.8632 45.1739Z" fill="#2B2B2B"/>
<path d="M13.1835 45.9962C12.7649 45.9962 12.4255 45.6577 12.4255 45.2403C12.4255 44.8228 12.7649 44.4844 13.1835 44.4844C13.6021 44.4844 13.9414 44.8228 13.9414 45.2403C13.9414 45.6577 13.6021 45.9962 13.1835 45.9962Z" fill="#2B2B2B"/>
<path d="M69.0457 18.2987L69.2363 18.0419C69.2363 18.0419 68.9455 17.828 68.4975 17.4429L68.2877 17.6854C68.7453 18.08 69.0314 18.2892 69.0457 18.2987ZM68.0494 17.4762L68.2639 17.2385C68.0541 17.0531 67.8206 16.8344 67.5679 16.5919L67.3439 16.8201C67.6013 17.0674 67.8396 17.286 68.0494 17.4762ZM67.1151 16.5967L67.3391 16.3733C67.1294 16.1641 66.9053 15.9359 66.6813 15.6887L66.4477 15.9026C66.6765 16.1498 66.9006 16.3828 67.1151 16.5967ZM66.2332 15.6649L66.4715 15.451C66.257 15.2133 66.052 14.9708 65.8566 14.7283L65.6087 14.928C65.8089 15.1705 66.0187 15.4177 66.2332 15.6601V15.6649ZM65.4037 14.6808L65.6564 14.4859C65.461 14.2339 65.2655 13.982 65.0844 13.73L64.8222 13.9154C65.0081 14.1721 65.1988 14.4336 65.4037 14.6856V14.6808ZM64.641 13.6492L64.9032 13.4685C64.7221 13.207 64.5505 12.9408 64.3884 12.6746L64.1167 12.841C64.2835 13.112 64.4599 13.3829 64.641 13.6492ZM63.9498 12.5652L64.2263 12.4036C64.0643 12.1279 63.9117 11.8521 63.7735 11.5716L63.4875 11.7143C63.6305 11.9947 63.7878 12.28 63.9498 12.5605V12.5652ZM63.3445 11.429L63.6305 11.2911C63.4922 11.0059 63.3635 10.7159 63.2491 10.4259L62.9536 10.5447C63.0727 10.8395 63.2014 11.1343 63.3445 11.429ZM62.8392 10.2452L63.1395 10.1359C63.0298 9.83639 62.9297 9.53688 62.8439 9.24213L62.5388 9.3277C62.6247 9.63196 62.7295 9.94098 62.8439 10.2452H62.8392ZM62.4483 9.01868L62.7581 8.93787C62.6771 8.62885 62.6104 8.31983 62.5579 8.02033L62.2433 8.07262C62.2957 8.38639 62.3672 8.70491 62.4483 9.01868ZM62.1909 7.7541L62.5055 7.71131C62.4673 7.45459 62.4387 7.18836 62.4244 6.93164L62.1051 6.95541C62.1241 7.22164 62.1527 7.49262 62.1909 7.75885V7.7541Z" fill="#9B9B9B"/>
<path d="M69.4219 19.3409L69.584 19.0652C69.584 19.0652 69.2789 18.8845 68.7974 18.5375L68.6115 18.7942C69.1025 19.1507 69.4076 19.3314 69.4219 19.3409ZM68.3541 18.604L68.5448 18.3521C68.2969 18.1666 68.049 17.967 67.8012 17.7626L67.5962 18.005C67.8488 18.2142 68.1015 18.4139 68.3541 18.604ZM67.3531 17.7958L67.5628 17.5534C67.3245 17.3489 67.0861 17.135 66.8573 16.9163L66.638 17.1493C66.8716 17.368 67.1147 17.5867 67.3531 17.7958ZM66.4045 16.9258L66.6285 16.6976C66.4045 16.4789 66.1804 16.2508 65.9659 16.0178L65.7323 16.2365C65.9516 16.4694 66.1757 16.7024 66.4092 16.9258H66.4045ZM65.5131 15.9988L65.7514 15.7849C65.5417 15.5519 65.3319 15.3094 65.1317 15.067L64.8838 15.2667C65.084 15.5139 65.2985 15.7611 65.5131 15.9988ZM64.6836 15.0147L64.9363 14.8198C64.7408 14.5678 64.5501 14.3158 64.369 14.0591L64.1068 14.2445C64.288 14.5012 64.4834 14.7627 64.6836 15.0194V15.0147ZM63.9257 13.9783L64.1879 13.7976C64.0115 13.5362 63.8399 13.2699 63.6778 12.999L63.4013 13.1606C63.5682 13.4363 63.7398 13.7073 63.9209 13.9735L63.9257 13.9783ZM63.244 12.8849L63.5205 12.728C63.3632 12.4522 63.2154 12.1717 63.0772 11.8913L62.7912 12.0339C62.9294 12.3191 63.0819 12.6044 63.244 12.8849ZM62.6529 11.7439L62.9437 11.6108C62.8102 11.3255 62.6863 11.0355 62.5719 10.7408L62.2763 10.8549C62.3907 11.1496 62.5195 11.4491 62.6577 11.7391L62.6529 11.7439ZM62.1572 10.5554L62.4575 10.446C62.3478 10.1513 62.2477 9.85175 62.1619 9.55224L61.8569 9.64257C61.9474 9.95159 62.0475 10.2558 62.1572 10.5601V10.5554ZM61.7663 9.3288L62.0761 9.24798C61.9951 8.94848 61.9236 8.63946 61.8616 8.33044L61.547 8.39225C61.609 8.70602 61.6805 9.02454 61.7663 9.33356V9.3288ZM61.4898 8.07372L61.8044 8.02143C61.752 7.71241 61.7091 7.39864 61.6757 7.08963L61.3563 7.12291C61.3897 7.44143 61.4326 7.76471 61.4898 8.07848V8.07372ZM61.3277 6.79963L61.6471 6.77586C61.6376 6.62373 61.628 6.47635 61.6185 6.32422L61.2991 6.33848C61.3039 6.49537 61.3182 6.6475 61.3277 6.80438V6.79963Z" fill="#9B9B9B"/>
<mask id="mask0_60_26501" style="mask-type:luminance" maskUnits="userSpaceOnUse" x="3" y="0" width="71" height="61">
<path d="M72.2252 55.7752L72.9689 42.9439C72.9689 42.9439 76.6918 34.7764 69.9895 20.5664C69.9895 20.5664 67.2247 12.9313 66.586 10.3832C66.586 10.3832 58.3965 1.57858 52.6524 0.413833C52.6524 0.413833 49.9924 -0.0092804 48.4003 0.413833C48.4003 0.413833 45.2112 -0.750918 42.8707 0.836947C42.8707 0.836947 41.9412 20.0577 37.8559 26.4234C37.7272 26.6279 37.5747 26.8133 37.4078 26.9939C35.8062 28.7434 26.7491 38.3942 18.2211 42.4114C18.0686 42.4827 17.9017 42.535 17.7349 42.5636C16.0998 42.8536 6.93788 44.5698 4.90242 47.0799C4.90242 47.0799 0.755226 52.1716 4.90242 56.8353C4.90242 56.8353 9.47386 60.1252 24.1511 60.3343C24.1511 60.3343 35.0006 61.076 41.5932 57.363C48.1858 53.6501 55.2074 48.5585 58.182 48.2399V57.6816C58.182 57.6816 68.4975 57.6816 72.2205 55.7704L72.2252 55.7752Z" fill="white"/>
</mask>
<g mask="url(#mask0_60_26501)">
<path d="M73.6644 43.0399C73.6644 43.0399 60.3743 44.7894 49.787 51.6305C39.1998 58.4717 38.0367 58.3148 38.0367 58.3148C38.0367 58.3148 30.7672 60.8012 17.8632 59.413C4.95921 58.0295 2.714 54.7825 2.714 54.7825V57.3022L6.02222 62.1371L30.7147 65.2558L55.9602 64.0815L70.0988 62.7171L82.1113 56.0281L73.6549 43.0352L73.6644 43.0399Z" fill="#2B2B2B"/>
</g>
<path d="M43.7045 28.0433C43.8618 28.0433 44.0143 27.9672 44.1049 27.8246C44.2479 27.6012 44.1859 27.3064 43.9619 27.1638L39.0663 24.0023C38.847 23.8597 38.5467 23.9215 38.4037 24.145C38.2607 24.3684 38.3226 24.6632 38.5467 24.8058L43.4423 27.9672C43.5233 28.0195 43.6139 28.0433 43.7045 28.0433Z" fill="#5E5E5E"/>
<path d="M40.2348 31.9152C40.3587 31.9152 40.4874 31.8677 40.578 31.7678C40.7592 31.5777 40.7544 31.2782 40.5685 31.0928L36.8932 27.5557C36.7025 27.3703 36.3974 27.3798 36.2163 27.57C36.0352 27.7602 36.0399 28.0597 36.2258 28.2451L39.9011 31.7821C39.9917 31.8724 40.1156 31.9152 40.2348 31.9152Z" fill="#5E5E5E"/>
<path d="M36.3673 35.0998C36.4912 35.0998 36.6199 35.0523 36.7153 34.9524C36.8964 34.7623 36.8917 34.458 36.701 34.2773L33.3689 31.0969C33.1782 30.9162 32.8732 30.921 32.692 31.1111C32.5109 31.3013 32.5157 31.6055 32.7063 31.7862L36.0384 34.9667C36.129 35.057 36.2481 35.0998 36.3673 35.0998Z" fill="#5E5E5E"/>
<path d="M31.4777 38.4431C31.5826 38.4431 31.6922 38.4098 31.778 38.3337C31.983 38.1674 32.0116 37.8678 31.8448 37.6634L29.4375 34.7254C29.2707 34.521 28.9703 34.4924 28.7654 34.6588C28.5604 34.8252 28.5318 35.1247 28.6986 35.3292L31.1059 38.2672C31.2012 38.3813 31.3395 38.4431 31.4777 38.4431Z" fill="#5E5E5E"/>
<path d="M27.1307 40.7714C27.2308 40.7714 27.3309 40.7429 27.4167 40.6763C27.6312 40.5195 27.6741 40.22 27.5168 40.0108L25.7864 37.6765C25.6291 37.4626 25.3288 37.4198 25.1191 37.5767C24.9046 37.7336 24.8617 38.0331 25.019 38.2423L26.7493 40.5765C26.8447 40.7049 26.9877 40.7714 27.1355 40.7714H27.1307Z" fill="#5E5E5E"/>
<path d="M22.6069 43.0823C22.6927 43.0823 22.7785 43.0585 22.8548 43.011C23.0788 42.8731 23.1503 42.5783 23.0169 42.3549L21.8347 40.42C21.6964 40.1965 21.4009 40.1252 21.1768 40.2583C20.9528 40.3962 20.8813 40.691 21.0148 40.9144L22.197 42.8493C22.2875 42.9967 22.4448 43.0775 22.6069 43.0775V43.0823Z" fill="#5E5E5E"/>
<path d="M17.863 44.8983C17.9106 44.8983 17.9631 44.8888 18.0107 44.8745C18.2634 44.7937 18.4016 44.5227 18.3206 44.2707L17.7295 42.4547C17.6484 42.2027 17.3767 42.0648 17.1289 42.1504C16.8762 42.2312 16.738 42.5022 16.819 42.7494L17.4101 44.5655C17.4768 44.7652 17.6628 44.8935 17.863 44.8935V44.8983Z" fill="#5E5E5E"/>
<path d="M13.1815 45.7204C13.4437 45.7204 13.6582 45.5064 13.6582 45.245V43.5145C13.6582 43.253 13.4437 43.0391 13.1815 43.0391C12.9193 43.0391 12.7048 43.253 12.7048 43.5145V45.245C12.7048 45.5064 12.9193 45.7204 13.1815 45.7204Z" fill="#5E5E5E"/>
<path d="M66.3693 57.6874L62.9657 54.7827V47.5707L67.275 46.6484L67.6992 50.6751L66.3693 57.6874Z" fill="#2D2D2D"/>
<path d="M77.6964 54.7812C77.6964 54.7812 75.3844 57.724 75.7801 59.6732C76.1805 61.6224 77.0957 62.654 79.3314 62.9345C81.5623 63.215 85.352 63.0914 86.3101 64.4083C87.2683 65.7204 86.9489 67.1942 86.9489 67.1942C86.9489 67.1942 72.7531 68.5443 67.2473 68.9056C61.7416 69.2622 37.7069 69.6235 32.7112 69.4619C27.7107 69.305 14.8449 67.2892 14.8449 67.2892L13.248 67.6743V66.3432L12.7475 66.5619V65.8868L12.2708 66.0865V65.5873L11.5748 65.7775L11.6797 64.9693L11.4414 65.0216V64.6222L10.7215 64.993L10.8264 64.3988L10.5356 64.4273L10.6024 63.7522L9.91118 64.0327L10.0685 62.8394L8.68132 62.7063C8.68132 62.7063 12.8667 58.6891 13.248 57.8524L13.0669 55.4468L18.2532 57.0394L16.9328 58.4371C16.9328 58.4371 15.2024 59.5258 15.5409 61.0757C15.8793 62.6255 17.3952 63.2055 20.3078 63.6809C23.2203 64.1563 26.9433 64.5366 28.8548 64.375C30.7711 64.2181 31.5147 62.3355 31.5147 62.3355C31.5147 62.3355 31.9676 60.3198 31.038 58.9173L36.3817 58.9696C36.3817 58.9696 35.5571 61.3562 36.7011 62.9725C37.8452 64.5889 41.7778 64.432 44.3043 64.4035C46.8307 64.375 66.2129 64.0565 66.2129 64.0565C66.2129 64.0565 69.75 64.1896 70.894 61.0614C72.0381 57.9332 69.0063 56.3406 69.0063 56.3406L77.7011 54.7908L77.6964 54.7812Z" fill="#757575"/>
<path d="M80.4088 55.7752L81.1524 42.9439C81.1524 42.9439 84.8754 34.7764 78.1731 20.5664C78.1731 20.5664 75.4083 12.9313 74.7696 10.3832C74.7696 10.3832 66.5801 1.57858 60.836 0.413833C60.836 0.413833 58.176 -0.0092804 56.5839 0.413833C56.5839 0.413833 53.3948 -0.750918 51.0543 0.836947C51.0543 0.836947 50.1248 20.0577 46.0395 26.4234C45.9108 26.6279 45.7583 26.8133 45.5914 26.9939C43.9898 28.7434 34.9327 38.3942 26.4047 42.4114C26.2522 42.4827 26.0853 42.535 25.9185 42.5636C24.2834 42.8536 15.1215 44.5698 13.086 47.0799C13.086 47.0799 8.93882 52.1716 13.086 56.8353C13.086 56.8353 17.6575 60.1252 32.3347 60.3343C32.3347 60.3343 43.1842 61.076 49.7768 57.363C56.3694 53.6501 63.391 48.5585 66.3656 48.2399V57.6816C66.3656 57.6816 76.6811 57.6816 80.404 55.7704L80.4088 55.7752Z" fill="white"/>
<path d="M56.8543 5.63771C56.8543 6.35558 57.4359 6.93558 58.1557 6.93558C58.8755 6.93558 59.457 6.35558 59.457 5.63771C59.457 4.91984 58.8755 4.33984 58.1557 4.33984C57.4359 4.33984 56.8543 4.91984 56.8543 5.63771Z" fill="#E0E0E0"/>
<path opacity="0.5" d="M58.1548 6.65949C57.5888 6.65949 57.1299 6.20187 57.1299 5.63736C57.1299 5.07286 57.5888 4.61523 58.1548 4.61523C58.7208 4.61523 59.1797 5.07286 59.1797 5.63736C59.1797 6.20187 58.7208 6.65949 58.1548 6.65949Z" fill="#BDBDBD"/>
<path d="M56.0828 10.9111C56.0828 11.629 56.6644 12.209 57.3842 12.209C58.104 12.209 58.6855 11.629 58.6855 10.9111C58.6855 10.1933 58.104 9.61328 57.3842 9.61328C56.6644 9.61328 56.0828 10.1933 56.0828 10.9111Z" fill="#E0E0E0"/>
<path opacity="0.5" d="M57.3853 11.9329C56.8192 11.9329 56.3604 11.4753 56.3604 10.9108C56.3604 10.3463 56.8192 9.88867 57.3853 9.88867C57.9513 9.88867 58.4102 10.3463 58.4102 10.9108C58.4102 11.4753 57.9513 11.9329 57.3853 11.9329Z" fill="#BDBDBD"/>
<path d="M55.0574 16.2686C55.0574 16.9864 55.639 17.5664 56.3588 17.5664C57.0786 17.5664 57.6602 16.9864 57.6602 16.2686C57.6602 15.5507 57.0786 14.9707 56.3588 14.9707C55.639 14.9707 55.0574 15.5507 55.0574 16.2686Z" fill="#E0E0E0"/>
<path opacity="0.5" d="M56.3579 17.2904C55.7919 17.2904 55.3331 16.8327 55.3331 16.2682C55.3331 15.7037 55.7919 15.2461 56.3579 15.2461C56.924 15.2461 57.3828 15.7037 57.3828 16.2682C57.3828 16.8327 56.924 17.2904 56.3579 17.2904Z" fill="#BDBDBD"/>
<path d="M53.4988 21.4932C53.4988 22.211 54.0804 22.791 54.8002 22.791C55.52 22.791 56.1016 22.211 56.1016 21.4932C56.1016 20.7753 55.52 20.1953 54.8002 20.1953C54.0804 20.1953 53.4988 20.7753 53.4988 21.4932Z" fill="#E0E0E0"/>
<path opacity="0.5" d="M54.7993 22.515C54.2333 22.515 53.7745 22.0573 53.7745 21.4928C53.7745 20.9283 54.2333 20.4707 54.7993 20.4707C55.3654 20.4707 55.8242 20.9283 55.8242 21.4928C55.8242 22.0573 55.3654 22.515 54.7993 22.515Z" fill="#BDBDBD"/>
<path d="M48.3089 22.1968L48.4805 21.9305C48.2231 21.7642 48.0753 21.6738 48.0753 21.6738L47.9084 21.9448C47.9084 21.9448 48.0562 22.0351 48.3089 22.1968Z" fill="#9B9B9B"/>
<path d="M54.6631 27.2421L54.9062 27.0329C54.7013 26.7952 54.4629 26.5432 54.1912 26.2818L53.9672 26.51C54.2294 26.7667 54.4629 27.0091 54.6631 27.2421ZM53.7241 26.277L53.9433 26.0441C53.7098 25.8254 53.4476 25.5924 53.1759 25.3595L52.9661 25.6019C53.2378 25.8349 53.4905 26.0583 53.7241 26.277ZM52.7087 25.3832L52.9137 25.1408C52.6515 24.9221 52.3846 24.7082 52.1129 24.4942L51.9174 24.7462C52.1844 24.9554 52.4513 25.1693 52.7087 25.3832ZM51.6457 24.537L51.8411 24.2851C51.5647 24.0711 51.2882 23.8667 51.0212 23.6718L50.8353 23.9285C51.1023 24.1234 51.374 24.3278 51.6505 24.537H51.6457ZM50.5541 23.7288L50.74 23.4721C50.4492 23.2629 50.1632 23.0633 49.901 22.8826L49.7199 23.1441C49.9821 23.3247 50.2633 23.5196 50.5541 23.7288ZM49.4386 22.9492L49.6198 22.6877C49.2956 22.4642 49.0048 22.2741 48.7665 22.1172L48.5901 22.3834C48.8285 22.5403 49.1145 22.7305 49.4386 22.9492Z" fill="#9B9B9B"/>
<path d="M55.236 28.2821C55.3743 27.9968 55.4315 27.8399 55.4362 27.8352L55.4648 27.7591L55.4172 27.6926C55.3266 27.5642 55.2313 27.4311 55.1264 27.3027L54.8785 27.5024C54.9596 27.607 55.0358 27.7068 55.1073 27.8067C55.0787 27.878 55.0263 27.9921 54.95 28.1537L55.236 28.2916V28.2821Z" fill="#9B9B9B"/>
<path d="M21.4911 47.7313C21.8057 47.7313 22.1394 47.7075 22.4731 47.6647L22.4349 47.351C22.1108 47.389 21.7914 47.4128 21.4863 47.4128V47.7313H21.4911ZM21.1622 47.7265L21.1717 47.408C20.8523 47.3985 20.5329 47.3652 20.2326 47.3082L20.1754 47.6219C20.4948 47.679 20.8237 47.7123 21.1622 47.7265ZM22.802 47.6219C23.1023 47.5744 23.4074 47.5173 23.7649 47.4365L23.6934 47.1275C23.3454 47.2083 23.0451 47.2654 22.7543 47.3129L22.802 47.6267V47.6219ZM19.8513 47.5554L19.9228 47.2464C19.6177 47.1751 19.3126 47.08 19.0218 46.9659L18.9027 47.2606C19.2077 47.3842 19.5271 47.4841 19.8513 47.5554ZM24.0795 47.3605C24.3989 47.2844 24.7135 47.2083 25.0233 47.1323L24.9471 46.8232C24.6372 46.8993 24.3226 46.9754 24.008 47.0514L24.0795 47.3605ZM18.6023 47.1323L18.7358 46.8423C18.4736 46.7187 18.2115 46.576 17.9636 46.4192L17.9111 46.3859L17.7348 46.6521L17.792 46.6901C18.0541 46.8565 18.3259 47.0087 18.6023 47.137V47.1323ZM25.338 47.0562C25.6526 46.9754 25.9672 46.8946 26.277 46.8137L26.196 46.5047C25.8862 46.5855 25.5763 46.6664 25.2569 46.7472L25.3332 47.0562H25.338ZM26.5916 46.7329C26.9063 46.6474 27.2209 46.5618 27.526 46.4762L27.4402 46.1719C27.1303 46.2575 26.8205 46.3431 26.5058 46.4239L26.5869 46.7329H26.5916ZM17.4631 46.4287L17.6871 46.2005C17.4821 46.0055 17.382 45.7821 17.382 45.5254C17.382 45.5016 17.382 45.4826 17.382 45.4588L17.0626 45.4398C17.0626 45.4683 17.0626 45.4969 17.0626 45.5254C17.0626 45.8677 17.1961 46.1719 17.4631 46.4287ZM27.8406 46.3906C28.1552 46.3003 28.465 46.21 28.7749 46.1196L28.6843 45.8154C28.3792 45.9057 28.0694 45.996 27.7548 46.0816L27.8406 46.3859V46.3906ZM29.0847 46.0293C29.3993 45.9342 29.7044 45.8392 30.0143 45.7441L29.9189 45.4398C29.6139 45.5349 29.304 45.63 28.9942 45.7251L29.0847 46.0293ZM30.3194 45.649C30.6292 45.5492 30.9391 45.4493 31.2441 45.3495L31.144 45.0452C30.8389 45.1451 30.5339 45.2449 30.224 45.3447L30.3194 45.649ZM31.5492 45.2449C31.8591 45.1403 32.1641 45.0357 32.4692 44.9311L32.3644 44.6316C32.064 44.7362 31.759 44.8408 31.4491 44.9454L31.5492 45.2449ZM32.7743 44.8218C33.0842 44.7124 33.3845 44.6031 33.6848 44.489L33.5751 44.1895C33.2748 44.2988 32.9745 44.4129 32.6694 44.5223L32.7743 44.8218ZM33.9899 44.3749C34.2949 44.2608 34.6 44.1419 34.8956 44.0231L34.7764 43.7283C34.4809 43.8472 34.1805 43.9613 33.8755 44.0754L33.9899 44.3749ZM35.1959 43.9042C35.501 43.7806 35.8013 43.6618 36.0968 43.5382L35.9729 43.2434C35.6773 43.367 35.3818 43.4859 35.0767 43.6095L35.1959 43.9042ZM36.3924 43.4098C36.6927 43.2815 36.993 43.1531 37.2838 43.0247L37.1551 42.7347C36.8643 42.8631 36.5688 42.9915 36.2684 43.1198L36.3924 43.4146V43.4098ZM37.5793 42.8916C37.8796 42.7585 38.1704 42.6206 38.4612 42.4875L38.3277 42.1975C38.0417 42.3306 37.7462 42.4638 37.4506 42.6016L37.5793 42.8916ZM38.7568 42.3497C39.0523 42.207 39.3431 42.0692 39.6291 41.9265L39.4861 41.6413C39.2001 41.7839 38.9141 41.9218 38.6185 42.0644L38.7568 42.3497ZM39.9199 41.7839C40.2107 41.6365 40.5014 41.4892 40.7827 41.3418L40.6349 41.0613C40.3537 41.2087 40.0676 41.3561 39.7769 41.5034L39.9199 41.7887V41.7839ZM41.0687 41.1897C41.3595 41.0375 41.6407 40.8806 41.922 40.7238L41.7647 40.448C41.4882 40.6002 41.2069 40.757 40.9162 40.9092L41.0687 41.1897ZM42.2032 40.5669C42.4892 40.4052 42.7705 40.2436 43.0422 40.082L42.8801 39.8062C42.6084 39.9679 42.3272 40.1295 42.0459 40.2911L42.2032 40.5669ZM43.3234 39.9156C43.6047 39.7444 43.8812 39.578 44.1481 39.4069L43.9765 39.1359C43.7096 39.3023 43.4331 39.4734 43.1566 39.6398L43.3234 39.9108V39.9156ZM44.4246 39.231C44.7011 39.0551 44.9728 38.8744 45.235 38.6985L45.0586 38.4323C44.7964 38.6082 44.5295 38.7841 44.253 38.96L44.4246 39.2262V39.231ZM45.5067 38.5179C45.7784 38.3324 46.0453 38.147 46.3027 37.9616L46.1168 37.7049C45.8594 37.8903 45.5972 38.071 45.3255 38.2564L45.5067 38.5179ZM46.5649 37.7715C46.8319 37.5765 47.094 37.3816 47.3467 37.1915L47.1512 36.9395C46.9034 37.1297 46.646 37.3246 46.379 37.5147L46.5649 37.7715ZM47.5993 36.9918C47.8615 36.7874 48.1142 36.5877 48.3573 36.3833L48.1571 36.1361C47.914 36.3357 47.6613 36.5354 47.4039 36.7398L47.5993 36.9918ZM48.6099 36.1788C48.8626 35.9649 49.1104 35.7557 49.3488 35.5466L49.139 35.3088C48.9055 35.518 48.6624 35.7272 48.4097 35.9364L48.6147 36.1788H48.6099ZM49.5871 35.3326C49.835 35.1092 50.0734 34.8905 50.3022 34.6718L50.0829 34.4436C49.8541 34.6575 49.6205 34.8762 49.3774 35.0997L49.5919 35.3374L49.5871 35.3326ZM50.5357 34.4484C50.7741 34.2154 51.0029 33.9872 51.2222 33.759L50.9934 33.5403C50.7789 33.7638 50.55 33.992 50.3117 34.2202L50.5357 34.4484ZM51.4462 33.5261C51.675 33.2836 51.8943 33.0412 52.104 32.8082L51.8657 32.599C51.6607 32.832 51.4462 33.0649 51.2174 33.3074L51.451 33.5261H51.4462ZM52.3186 32.5657C52.5378 32.309 52.7476 32.0618 52.943 31.8194L52.6951 31.6197C52.5045 31.8574 52.2995 32.1046 52.0802 32.3566L52.3233 32.5657H52.3186ZM53.1432 31.5626C53.353 31.2916 53.5484 31.0302 53.7296 30.783L53.4721 30.5976C53.2958 30.84 53.1051 31.0967 52.8954 31.3677L53.148 31.5626H53.1432ZM53.9155 30.5167C54.1061 30.241 54.2873 29.9653 54.4541 29.7038L54.1824 29.5374C54.0203 29.7989 53.844 30.0651 53.6533 30.3361L53.9155 30.5167ZM54.621 29.428C54.7973 29.1333 54.9594 28.8433 55.0977 28.5771L54.8164 28.4297C54.6782 28.6959 54.5209 28.9764 54.3493 29.2664L54.6257 29.428H54.621Z" fill="#9B9B9B"/>
<path d="M17.4408 45.1547C17.4789 45.0264 17.5409 44.8885 17.6172 44.7459L17.3359 44.5938C17.2454 44.7554 17.1786 44.9123 17.131 45.0596L17.436 45.1547H17.4408Z" fill="#9B9B9B"/>
<path d="M74.8649 11.2407L75.0938 11.022C75.0938 11.022 74.9746 10.8984 74.7553 10.6797L74.5313 10.9031C74.7458 11.1171 74.8602 11.2407 74.8649 11.2407Z" fill="#9B9B9B"/>
<path d="M74.3072 10.6791L74.5312 10.4556C74.3406 10.2702 74.1118 10.042 73.8401 9.78056L73.6208 10.0088C73.8877 10.2655 74.1213 10.4937 74.3072 10.6791ZM73.3872 9.78531L73.6065 9.55711C73.392 9.35269 73.1536 9.12925 72.901 8.8963L72.6865 9.12925C72.9391 9.3622 73.1727 9.58088 73.3872 9.78531ZM72.4481 8.91056L72.6626 8.67761C72.4338 8.46843 72.1955 8.25449 71.9476 8.03105L71.7331 8.26876C71.981 8.4922 72.2193 8.70613 72.4481 8.91531V8.91056ZM71.4947 8.05482L71.7045 7.81712C71.4709 7.60794 71.2278 7.39876 70.9752 7.18482L70.7654 7.42728C71.0181 7.64122 71.2564 7.8504 71.49 8.05958L71.4947 8.05482ZM70.5271 7.2181L70.732 6.97564C70.4889 6.77122 70.241 6.56679 69.9884 6.35761L69.7882 6.60483C70.0408 6.80925 70.2887 7.01843 70.5271 7.2181ZM69.5403 6.4004L69.7405 6.15319C69.4926 5.95352 69.24 5.75384 68.9826 5.55417L68.7871 5.80614C69.0398 6.00581 69.2924 6.20548 69.5403 6.40515V6.4004ZM68.5345 5.60647L68.7299 5.3545C68.4773 5.15958 68.2199 4.96466 67.9577 4.7745L67.767 5.03122C68.0244 5.22139 68.2819 5.4163 68.5345 5.60647ZM67.5096 4.84106L67.6955 4.58434C67.4334 4.39417 67.1712 4.20877 66.9042 4.02811L66.7231 4.28958C66.9853 4.47024 67.2474 4.65565 67.5096 4.84581V4.84106ZM66.4609 4.10893L66.642 3.84745C66.3751 3.6668 66.1034 3.4909 65.8317 3.315L65.6601 3.58123C65.927 3.75237 66.1987 3.92827 66.4609 4.10893ZM65.3884 3.41483L65.5552 3.14385C65.2787 2.9727 65.0022 2.80631 64.721 2.64942L64.5637 2.92516C64.8402 3.08205 65.1119 3.24844 65.3884 3.41483ZM64.2872 2.76828L64.4445 2.49254C64.1537 2.3309 63.8677 2.17877 63.5865 2.0409L63.4435 2.32615C63.7199 2.46402 64.006 2.61139 64.292 2.77303L64.2872 2.76828ZM52.3509 2.35467C52.6417 2.25959 52.9515 2.16451 53.2662 2.07893L53.1803 1.77467C52.861 1.865 52.5464 1.96008 52.2508 2.05516L52.3509 2.35943V2.35467ZM63.1527 2.18352L63.2909 1.89828C62.9858 1.75566 62.6903 1.62254 62.3995 1.50369L62.2803 1.79844C62.5616 1.91254 62.8571 2.0409 63.1527 2.18352ZM53.5712 1.99336C53.8811 1.91254 54.1957 1.83648 54.5008 1.76516L54.4293 1.45615C54.1194 1.52746 53.8048 1.60353 53.4854 1.6891L53.5665 1.99811L53.5712 1.99336ZM54.8154 1.69385C55.1395 1.62254 55.4542 1.56074 55.7545 1.50844L55.6973 1.19467C55.3922 1.25172 55.0728 1.31353 54.7487 1.38484L54.8154 1.69385ZM61.9848 1.67959L62.0992 1.38008C61.7846 1.26123 61.47 1.15664 61.1744 1.07107L61.0839 1.37533C61.3746 1.4609 61.6749 1.56074 61.9848 1.67959ZM56.0739 1.45139C56.4075 1.39435 56.7269 1.34205 57.0225 1.29926L56.9748 0.985494C56.6745 1.02828 56.3551 1.08058 56.0166 1.13762L56.0691 1.45139H56.0739ZM60.7788 1.29451L60.8598 0.985494C60.5309 0.89992 60.2067 0.838117 59.8969 0.79533L59.854 1.1091C60.1495 1.14713 60.4594 1.20894 60.7788 1.28976V1.29451ZM57.3371 1.25648C57.6994 1.20418 58.0235 1.16615 58.2905 1.13762L58.2571 0.819101C57.9854 0.847625 57.6612 0.890412 57.2942 0.937953L57.3371 1.25172V1.25648ZM58.6098 1.10435C58.9388 1.07107 59.1294 1.05681 59.1294 1.05681C59.2581 1.05681 59.4011 1.06631 59.5441 1.08058L59.5727 0.762052C59.4202 0.747789 59.2724 0.743035 59.1247 0.738281C59.1104 0.738281 58.9197 0.752544 58.5812 0.785822L58.6146 1.10435H58.6098Z" fill="#9B9B9B"/>
<path d="M51.6842 2.94407L51.7176 2.56849C51.832 2.52571 51.9511 2.48292 52.0703 2.44013L51.9654 2.14062C51.8129 2.19292 51.6604 2.24997 51.5126 2.30702L51.4172 2.34505L51.3696 2.9203L51.689 2.94882L51.6842 2.94407Z" fill="#9B9B9B"/>
<path d="M23.3401 43.6726C23.5069 43.6726 23.6737 43.6679 23.8453 43.6536L23.8215 43.3351C23.5069 43.3589 23.1971 43.3589 22.9015 43.3351L22.8729 43.6536C23.0254 43.6679 23.1827 43.6726 23.3401 43.6726ZM24.1647 43.6251C24.465 43.5918 24.7844 43.5395 25.1133 43.4682L25.0466 43.1592C24.7272 43.2258 24.4174 43.278 24.1266 43.3113L24.1647 43.6251ZM25.428 43.3969C25.7283 43.3256 26.0381 43.24 26.3527 43.1449L26.2574 42.8407C25.9523 42.9358 25.6472 43.0166 25.3517 43.0879L25.428 43.3969ZM26.6578 43.0451C27.0487 42.9167 27.3633 42.7979 27.5588 42.7171L27.4396 42.4223C27.2489 42.4984 26.9391 42.6172 26.5577 42.7408L26.6578 43.0451ZM27.8543 42.5935C28.1355 42.4699 28.4263 42.3367 28.7171 42.1846L28.5741 41.8994C28.2833 42.0467 27.9973 42.1799 27.7256 42.2987L27.8543 42.5887V42.5935ZM29.0031 42.042C29.2796 41.8994 29.5561 41.7425 29.8373 41.5808L29.68 41.3051C29.4035 41.4667 29.1271 41.6141 28.8553 41.7567L29.0031 42.0372V42.042ZM30.1138 41.424C30.3808 41.2671 30.6525 41.1007 30.9242 40.9248L30.7526 40.6585C30.4856 40.8297 30.2139 40.9913 29.9517 41.1482L30.1138 41.424ZM31.1911 40.7536C31.4533 40.5825 31.7203 40.4066 31.9824 40.2259L31.8013 39.9644C31.5391 40.1451 31.2769 40.3163 31.0148 40.4874L31.1864 40.7536H31.1911ZM32.2446 40.05C32.502 39.8694 32.7594 39.6887 33.0216 39.5033L32.8357 39.2466C32.5783 39.432 32.3209 39.6126 32.0635 39.7933L32.2446 40.0548V40.05ZM33.2743 39.3131C33.5269 39.1277 33.7843 38.9376 34.037 38.7474L33.8415 38.4954C33.5889 38.6856 33.3362 38.8758 33.0836 39.0612L33.2743 39.3179V39.3131ZM34.2896 38.5525C34.5422 38.3623 34.7901 38.1674 35.038 37.9725L34.8426 37.7253C34.5947 37.9202 34.3468 38.1151 34.0989 38.3053L34.2944 38.5572L34.2896 38.5525ZM35.2859 37.7728C35.5338 37.5731 35.7816 37.3782 36.0248 37.1786L35.8245 36.9313C35.5814 37.131 35.3383 37.3259 35.0904 37.5256L35.2907 37.7728H35.2859ZM36.2679 36.9789C36.5157 36.7745 36.7589 36.5748 36.9972 36.3704L36.7922 36.1279C36.5539 36.3276 36.3108 36.532 36.0677 36.7317L36.2726 36.9789H36.2679ZM37.2403 36.1707C37.4834 35.9615 37.7265 35.7571 37.9601 35.5574L37.7504 35.315C37.5168 35.5194 37.2737 35.7238 37.0306 35.9282L37.2355 36.1707H37.2403ZM38.1985 35.3482C38.4416 35.1391 38.6799 34.9299 38.9135 34.7254L38.7037 34.4877C38.4702 34.6922 38.2366 34.8966 37.9935 35.1105L38.2032 35.353L38.1985 35.3482ZM39.1518 34.5163C39.3949 34.3023 39.6333 34.0884 39.8573 33.8887L39.6428 33.651C39.414 33.8554 39.1804 34.0646 38.9373 34.2786L39.1471 34.5163H39.1518ZM40.0957 33.6748C40.3436 33.4561 40.5771 33.2422 40.8012 33.0425L40.5867 32.8048C40.3626 33.0045 40.129 33.2184 39.8859 33.4371L40.1004 33.6748H40.0957ZM41.0348 32.8286L41.7355 32.1915L41.521 31.9586L40.8202 32.5956L41.0348 32.8286ZM41.9691 31.9776C42.2074 31.7589 42.4362 31.5402 42.6603 31.3263L42.441 31.0981C42.2217 31.312 41.9929 31.5259 41.7546 31.7446L41.9691 31.9776ZM42.8843 31.1076C43.1179 30.8794 43.3419 30.6559 43.5564 30.4373L43.3276 30.2138C43.1131 30.4325 42.8938 30.6559 42.6603 30.8794L42.8843 31.1076ZM43.7757 30.2091C43.9998 29.9761 44.219 29.7432 44.424 29.515L44.1857 29.301C43.9807 29.5245 43.7662 29.7574 43.5421 29.9856L43.771 30.2043L43.7757 30.2091ZM44.6338 29.282C44.853 29.0396 45.058 28.8019 45.2535 28.5642L45.0103 28.3597C44.8149 28.5927 44.6099 28.8304 44.3954 29.0681L44.6338 29.282ZM45.4584 28.3217C45.6634 28.0697 45.8636 27.8178 46.0448 27.5753L45.7921 27.3851C45.611 27.6276 45.4155 27.8701 45.2106 28.122L45.4584 28.3217ZM46.2354 27.3233C46.4309 27.0571 46.612 26.8004 46.7836 26.5437L46.5167 26.3678C46.3498 26.6197 46.1687 26.8717 45.978 27.1332L46.2354 27.3233ZM46.96 26.2822C47.1364 26.016 47.3032 25.7402 47.4605 25.474L47.184 25.3124C47.0315 25.5786 46.8647 25.8448 46.6931 26.111L46.96 26.2822ZM47.6178 25.1935C47.7751 24.913 47.9229 24.6278 48.0564 24.3473L47.7704 24.2094C47.6369 24.4851 47.4939 24.7609 47.3366 25.0366L47.6178 25.1887V25.1935ZM48.1946 24.062C48.3281 23.772 48.452 23.4773 48.5664 23.1873L48.2709 23.0732C48.1613 23.3584 48.0373 23.6484 47.9038 23.9337L48.1946 24.0668V24.062ZM48.6808 22.8878C48.7857 22.593 48.8906 22.2888 48.9812 21.9845L48.6761 21.8942C48.5855 22.1937 48.4854 22.4932 48.3805 22.7784L48.6808 22.8878ZM49.067 21.6755C49.148 21.3807 49.2243 21.0765 49.3005 20.7532L48.9907 20.6819C48.9192 21.0004 48.8429 21.2999 48.7619 21.5899L49.067 21.6755ZM49.3673 20.4442C49.434 20.1304 49.4912 19.8166 49.5484 19.5124L49.2338 19.4553C49.1766 19.7596 49.1194 20.0638 49.0527 20.3776L49.3625 20.4442H49.3673ZM49.6056 19.2034L49.6628 18.8753C49.6962 18.6757 49.7343 18.476 49.7677 18.2763L49.4531 18.2193C49.415 18.4189 49.3816 18.6186 49.3482 18.8183L49.291 19.1463L49.6056 19.2034ZM49.8297 17.9673C49.8726 17.7296 49.9202 17.4966 49.9727 17.2637L50.0203 17.0498L49.7105 16.9832L49.6628 17.1971C49.6104 17.4348 49.5627 17.6725 49.5151 17.9102L49.8297 17.9673ZM50.0823 16.736C50.1395 16.4507 50.192 16.137 50.2492 15.7994L49.9345 15.7471C49.8773 16.0799 49.8249 16.3889 49.7677 16.6742L50.0823 16.736ZM50.3016 15.4904C50.3493 15.1909 50.3969 14.8771 50.4446 14.5539L50.13 14.5063C50.0823 14.8296 50.0346 15.1434 49.987 15.4381L50.3016 15.4904ZM50.4875 14.2401C50.5304 13.9358 50.5733 13.6221 50.6162 13.3035L50.3016 13.2607C50.2587 13.5793 50.2158 13.893 50.1729 14.1973L50.4875 14.2401ZM50.6543 12.9898C50.6925 12.6807 50.7306 12.367 50.7735 12.0485L50.4589 12.0104C50.4208 12.3289 50.3826 12.638 50.3397 12.947L50.6543 12.9898ZM50.8069 11.7347C50.845 11.4209 50.8784 11.1071 50.9165 10.7934L50.5971 10.7553C50.559 11.0691 50.5256 11.3829 50.4875 11.6919L50.8021 11.7299L50.8069 11.7347ZM50.9499 10.4796L51.0548 9.53829L50.7354 9.50502L50.6305 10.4463L50.9499 10.4796ZM51.0881 9.22452C51.1215 8.906 51.1549 8.59223 51.1882 8.28322L50.8689 8.24994C50.8355 8.55895 50.8021 8.87272 50.7687 9.19125L51.0881 9.22452ZM51.2168 7.96945L51.3122 7.02814L50.9928 6.99486L50.8975 7.93617L51.2168 7.96945ZM51.3408 6.71437L51.4313 5.77306L51.112 5.74453L51.0214 6.68584L51.3408 6.71437ZM51.4599 5.45929L51.5458 4.51798L51.2264 4.48945L51.1406 5.43076L51.4599 5.45929ZM51.5744 4.20421L51.6602 3.2629L51.3408 3.23438L51.255 4.17568L51.5744 4.20421Z" fill="#9B9B9B"/>
<path d="M22.5617 43.6167L22.6094 43.303C22.4521 43.2792 22.3043 43.2459 22.1613 43.2031L22.0707 43.5074C22.2233 43.5549 22.3901 43.593 22.5617 43.6167Z" fill="#9B9B9B"/>
<path d="M51.1306 27.5684C51.1306 27.9868 51.4691 28.3243 51.8885 28.3243C52.308 28.3243 52.6465 27.9868 52.6465 27.5684C52.6465 27.15 52.308 26.8125 51.8885 26.8125C51.4691 26.8125 51.1306 27.15 51.1306 27.5684Z" fill="#424242"/>
<path d="M47.6599 31.4395C47.6599 31.8579 47.9984 32.1954 48.4178 32.1954C48.8373 32.1954 49.1758 31.8579 49.1758 31.4395C49.1758 31.0211 48.8373 30.6836 48.4178 30.6836C47.9984 30.6836 47.6599 31.0211 47.6599 31.4395Z" fill="#424242"/>
<path d="M43.7947 34.6192C43.7947 35.0375 44.1331 35.3751 44.5526 35.3751C44.9721 35.3751 45.3105 35.0375 45.3105 34.6192C45.3105 34.2008 44.9721 33.8633 44.5526 33.8633C44.1331 33.8633 43.7947 34.2008 43.7947 34.6192Z" fill="#424242"/>
<path d="M38.8982 37.9629C38.8982 38.3813 39.2366 38.7188 39.6561 38.7188C40.0756 38.7188 40.4141 38.3813 40.4141 37.9629C40.4141 37.5446 40.0756 37.207 39.6561 37.207C39.2366 37.207 38.8982 37.5446 38.8982 37.9629Z" fill="#424242"/>
<path d="M35.3143 41.0509C34.8957 41.0509 34.5564 40.7124 34.5564 40.295C34.5564 39.8775 34.8957 39.5391 35.3143 39.5391C35.7329 39.5391 36.0723 39.8775 36.0723 40.295C36.0723 40.7124 35.7329 41.0509 35.3143 41.0509Z" fill="#424242"/>
<path d="M30.031 42.6016C30.031 43.02 30.3695 43.3575 30.7889 43.3575C31.2084 43.3575 31.5469 43.02 31.5469 42.6016C31.5469 42.1832 31.2084 41.8457 30.7889 41.8457C30.3695 41.8457 30.031 42.1832 30.031 42.6016Z" fill="#424242"/>
<path d="M25.2888 44.418C25.2888 44.8364 25.6273 45.1739 26.0468 45.1739C26.4662 45.1739 26.8047 44.8364 26.8047 44.418C26.8047 43.9997 26.4662 43.6621 26.0468 43.6621C25.6273 43.6621 25.2888 43.9997 25.2888 44.418Z" fill="#424242"/>
<path d="M21.3612 45.9962C20.9426 45.9962 20.6033 45.6577 20.6033 45.2403C20.6033 44.8228 20.9426 44.4844 21.3612 44.4844C21.7798 44.4844 22.1191 44.8228 22.1191 45.2403C22.1191 45.6577 21.7798 45.9962 21.3612 45.9962Z" fill="#424242"/>
<path d="M77.2292 18.2987L77.4199 18.0419C77.4199 18.0419 77.1291 17.828 76.6811 17.4429L76.4713 17.6854C76.9289 18.08 77.2149 18.2892 77.2292 18.2987ZM76.233 17.4762L76.4475 17.2385C76.2377 17.0531 76.0042 16.8344 75.7515 16.5919L75.5275 16.8201C75.7849 17.0674 76.0232 17.286 76.233 17.4762ZM75.2987 16.5967L75.5227 16.3733C75.313 16.1641 75.0889 15.9359 74.8649 15.6887L74.6313 15.9026C74.8601 16.1498 75.0841 16.3828 75.2987 16.5967ZM74.4168 15.6649L74.6551 15.451C74.4406 15.2133 74.2356 14.9708 74.0402 14.7283L73.7923 14.928C73.9925 15.1705 74.2023 15.4177 74.4168 15.6601V15.6649ZM73.5873 14.6808L73.84 14.4859C73.6445 14.2339 73.4491 13.982 73.268 13.73L73.0058 13.9154C73.1917 14.1721 73.3824 14.4336 73.5873 14.6856V14.6808ZM72.8246 13.6492L73.0868 13.4685C72.9057 13.207 72.7341 12.9408 72.572 12.6746L72.3003 12.841C72.4671 13.112 72.6435 13.3829 72.8246 13.6492ZM72.1334 12.5652L72.4099 12.4036C72.2478 12.1279 72.0953 11.8521 71.9571 11.5716L71.6711 11.7143C71.8141 11.9947 71.9714 12.28 72.1334 12.5605V12.5652ZM71.528 11.429L71.8141 11.2911C71.6758 11.0059 71.5471 10.7159 71.4327 10.4259L71.1372 10.5447C71.2563 10.8395 71.385 11.1343 71.528 11.429ZM71.0228 10.2452L71.3231 10.1359C71.2134 9.83639 71.1133 9.53688 71.0275 9.24213L70.7224 9.3277C70.8082 9.63196 70.9131 9.94098 71.0275 10.2452H71.0228ZM70.6319 9.01868L70.9417 8.93787C70.8607 8.62885 70.7939 8.31983 70.7415 8.02033L70.4269 8.07262C70.4793 8.38639 70.5508 8.70491 70.6319 9.01868ZM70.3745 7.7541L70.6891 7.71131C70.6509 7.45459 70.6223 7.19312 70.608 6.93164L70.2887 6.95541C70.3077 7.22164 70.3363 7.49262 70.3745 7.75885V7.7541Z" fill="#9B9B9B"/>
<path d="M77.6055 19.3401L77.7676 19.0643C77.7676 19.0643 77.4625 18.8837 76.981 18.5366L76.7951 18.7933C77.2861 19.1499 77.5912 19.3306 77.6055 19.3401ZM76.5377 18.6032L76.7284 18.3512C76.4805 18.1658 76.2326 17.9661 75.9848 17.7617L75.7798 18.0042C76.0324 18.2133 76.2851 18.413 76.5377 18.6032ZM75.5367 17.795L75.7464 17.5525C75.5081 17.3481 75.2697 17.1342 75.0409 16.9155L74.8216 17.1484C75.0552 17.3671 75.2983 17.5858 75.5367 17.795ZM74.5881 16.925L74.8121 16.6968C74.5881 16.4781 74.364 16.2499 74.1495 16.017L73.9159 16.2356C74.1352 16.4686 74.3593 16.7015 74.5928 16.925H74.5881ZM73.6967 15.9979L73.935 15.784C73.7253 15.5511 73.5155 15.3086 73.3153 15.0661L73.0674 15.2658C73.2676 15.513 73.4821 15.7602 73.6967 15.9979ZM72.8672 15.0138L73.1199 14.8189C72.9244 14.567 72.7337 14.315 72.5526 14.0583L72.2904 14.2437C72.4716 14.5004 72.667 14.7619 72.8672 15.0186V15.0138ZM72.1093 13.9775L72.3715 13.7968C72.1951 13.5353 72.0235 13.2691 71.8614 12.9981L71.5849 13.1597C71.7518 13.4355 71.9234 13.7065 72.1045 13.9727L72.1093 13.9775ZM71.4276 12.8888L71.7041 12.7319C71.5468 12.4561 71.399 12.1757 71.2608 11.8952L70.9748 12.0378C71.113 12.323 71.2655 12.6083 71.4276 12.8888ZM70.8365 11.7478L71.1273 11.6147C70.9938 11.3294 70.8699 11.0394 70.7555 10.7447L70.4599 10.8588C70.5743 11.1535 70.703 11.453 70.8413 11.743L70.8365 11.7478ZM70.3408 10.5593L70.6411 10.4499C70.5314 10.1552 70.4313 9.85566 70.3455 9.55615L70.0404 9.64648C70.131 9.95549 70.2311 10.2598 70.3408 10.564V10.5593ZM69.9499 9.33271L70.2597 9.25189C70.1787 8.95238 70.1072 8.64337 70.0452 8.33435L69.7306 8.39615C69.7926 8.70992 69.8641 9.02845 69.9499 9.33746V9.33271ZM69.6734 8.07763L69.988 8.02533C69.9356 7.71632 69.8927 7.40255 69.8593 7.09353L69.5399 7.12681C69.5733 7.44534 69.6162 7.76386 69.6686 8.08238L69.6734 8.07763ZM69.5113 6.80353L69.8307 6.77976C69.8212 6.62763 69.8116 6.48026 69.8021 6.32812L69.4827 6.34239C69.4875 6.49927 69.5018 6.6514 69.5113 6.80353Z" fill="#9B9B9B"/>
<mask id="mask1_60_26501" style="mask-type:luminance" maskUnits="userSpaceOnUse" x="11" y="0" width="72" height="61">
<path d="M80.4088 55.7752L81.1524 42.9439C81.1524 42.9439 84.8754 34.7764 78.1731 20.5664C78.1731 20.5664 75.4083 12.9313 74.7696 10.3832C74.7696 10.3832 66.5801 1.57858 60.836 0.413833C60.836 0.413833 58.176 -0.0092804 56.5839 0.413833C56.5839 0.413833 53.3948 -0.750918 51.0543 0.836947C51.0543 0.836947 50.1248 20.0577 46.0395 26.4234C45.9108 26.6279 45.7583 26.8133 45.5914 26.9939C43.9898 28.7434 34.9327 38.3942 26.4047 42.4114C26.2522 42.4827 26.0853 42.535 25.9185 42.5636C24.2834 42.8536 15.1215 44.5698 13.086 47.0799C13.086 47.0799 8.93882 52.1716 13.086 56.8353C13.086 56.8353 17.6575 60.1252 32.3347 60.3343C32.3347 60.3343 43.1842 61.076 49.7768 57.363C56.3694 53.6501 63.391 48.5585 66.3656 48.2399V57.6816C66.3656 57.6816 76.6811 57.6816 80.404 55.7704L80.4088 55.7752Z" fill="white"/>
</mask>
<g mask="url(#mask1_60_26501)">
<path d="M81.8441 43.0399C81.8441 43.0399 68.554 44.7894 57.9667 51.6305C47.3795 58.4717 46.2163 58.3148 46.2163 58.3148C46.2163 58.3148 38.9468 60.8012 26.0429 59.413C13.1389 58.0295 10.8937 54.7825 10.8937 54.7825V57.3022L14.2019 62.1371L38.8944 65.2558L64.1399 64.0815L78.2785 62.7171L90.291 56.0281L81.8346 43.0352L81.8441 43.0399Z" fill="#424242"/>
</g>
<path d="M51.8881 28.0433C52.0454 28.0433 52.1979 27.9672 52.2885 27.8246C52.4315 27.6012 52.3695 27.3064 52.1455 27.1638L47.2499 24.0023C47.0258 23.8597 46.7303 23.9215 46.5873 24.145C46.4443 24.3684 46.5062 24.6632 46.7303 24.8058L51.6259 27.9672C51.7069 28.0195 51.7975 28.0433 51.8881 28.0433Z" fill="#757575"/>
<path d="M48.4184 31.9152C48.5423 31.9152 48.671 31.8677 48.7616 31.7678C48.9427 31.5777 48.938 31.2782 48.7521 31.0928L45.0768 27.5557C44.8861 27.3703 44.581 27.3798 44.3999 27.57C44.2188 27.7602 44.2235 28.0597 44.4094 28.2451L48.0847 31.7821C48.1753 31.8724 48.2992 31.9152 48.4184 31.9152Z" fill="#757575"/>
<path d="M44.5509 35.0998C44.6748 35.0998 44.8035 35.0523 44.8989 34.9524C45.08 34.7623 45.0753 34.458 44.8846 34.2773L41.5525 31.0969C41.3618 30.9162 41.0568 30.921 40.8756 31.1111C40.6945 31.3013 40.6992 31.6055 40.8899 31.7862L44.222 34.9667C44.3126 35.057 44.4317 35.0998 44.5509 35.0998Z" fill="#757575"/>
<path d="M39.6613 38.4431C39.7662 38.4431 39.8758 38.4098 39.9616 38.3337C40.1666 38.1674 40.1952 37.8678 40.0284 37.6634L37.6211 34.7254C37.4542 34.521 37.1539 34.4924 36.949 34.6588C36.744 34.8252 36.7154 35.1247 36.8822 35.3292L39.2895 38.2672C39.3848 38.3813 39.5231 38.4431 39.6613 38.4431Z" fill="#757575"/>
<path d="M35.3143 40.7714C35.4144 40.7714 35.5145 40.7429 35.6003 40.6763C35.8148 40.5195 35.8577 40.22 35.7004 40.0108L33.97 37.6765C33.8127 37.4626 33.5124 37.4198 33.3027 37.5767C33.0882 37.7336 33.0453 38.0331 33.2026 38.2423L34.9329 40.5765C35.0283 40.7049 35.1713 40.7714 35.3191 40.7714H35.3143Z" fill="#757575"/>
<path d="M30.7905 43.0823C30.8763 43.0823 30.9621 43.0585 31.0384 43.011C31.2624 42.8731 31.3339 42.5783 31.2005 42.3549L30.0183 40.42C29.88 40.1965 29.5845 40.1252 29.3604 40.2583C29.1364 40.3962 29.0649 40.691 29.1984 40.9144L30.3806 42.8493C30.4711 42.9967 30.6284 43.0775 30.7905 43.0775V43.0823Z" fill="#757575"/>
<path d="M26.0471 44.8983C26.0947 44.8983 26.1472 44.8888 26.1948 44.8745C26.4475 44.7937 26.5857 44.5227 26.4999 44.2707L25.9088 42.4547C25.8278 42.2027 25.5561 42.0648 25.3034 42.1504C25.0508 42.2312 24.9125 42.5022 24.9983 42.7494L25.5894 44.5655C25.6562 44.7652 25.8421 44.8935 26.0423 44.8935L26.0471 44.8983Z" fill="#757575"/>
<path d="M21.3612 45.7204C21.6234 45.7204 21.8379 45.5064 21.8379 45.245V43.5145C21.8379 43.253 21.6234 43.0391 21.3612 43.0391C21.099 43.0391 20.8845 43.253 20.8845 43.5145V45.245C20.8845 45.5064 21.099 45.7204 21.3612 45.7204Z" fill="#757575"/>
<g filter="url(#filter0_ii_60_26501)">
<path d="M63.9698 34.8005C63.9807 38.8218 62.7986 42.7559 60.573 46.105C58.3474 49.4542 55.1784 52.0679 51.467 53.6154C47.7555 55.163 43.6684 55.5749 39.7227 54.799C35.7771 54.023 32.1502 52.0941 29.3011 49.2564C26.4519 46.4186 24.5084 42.7995 23.7166 38.8569C22.9249 34.9144 23.3203 30.8256 24.8529 27.1079C26.3855 23.3902 28.9864 20.2107 32.3265 17.9716C35.6667 15.7326 39.596 14.5346 43.6172 14.5293C46.2846 14.5238 48.9269 15.0437 51.3933 16.0595C53.8598 17.0753 56.1021 18.567 57.992 20.4494C59.882 22.3318 61.3826 24.568 62.4083 27.0304C63.434 29.4928 63.9646 32.1331 63.9698 34.8005Z" fill="#8250CB"/>
</g>
<path d="M62.9698 34.8025L62.9698 34.8032C62.9802 38.6266 61.8562 42.3672 59.7401 45.5516C57.624 48.7359 54.6109 51.221 51.0821 52.6925C47.5532 54.1639 43.6672 54.5555 39.9157 53.8178C36.1642 53.08 32.7157 51.246 30.0067 48.5478C27.2978 45.8497 25.4499 42.4086 24.6971 38.6601C23.9442 34.9115 24.3202 31.0239 25.7774 27.4891C27.2346 23.9543 29.7076 20.9312 32.8834 18.8023C36.0592 16.6734 39.7952 15.5343 43.6185 15.5293L43.6193 15.5293C46.1553 15.5241 48.6675 16.0184 51.0125 16.9842C53.3576 17.9499 55.4894 19.3682 57.2863 21.1579C59.0832 22.9476 60.51 25.0738 61.4852 27.4149C62.4604 29.7561 62.9649 32.2664 62.9698 34.8025ZM43.6172 14.5293C46.2846 14.5238 48.9269 15.0437 51.3933 16.0595C53.8598 17.0753 56.1021 18.567 57.992 20.4494C59.882 22.3318 61.3826 24.568 62.4083 27.0304C63.434 29.4928 63.9646 32.1331 63.9698 34.8005L43.6172 14.5293Z" stroke="white" stroke-width="2"/>
</g>
<defs>
<filter id="filter0_ii_60_26501" x="21.3184" y="10.5293" width="44.6523" height="48.6523" filterUnits="userSpaceOnUse" color-interpolation-filters="sRGB">
<feFlood flood-opacity="0" result="BackgroundImageFix"/>
<feBlend mode="normal" in="SourceGraphic" in2="BackgroundImageFix" result="shape"/>
<feColorMatrix in="SourceAlpha" type="matrix" values="0 0 0 0 0 0 0 0 0 0 0 0 0 0 0 0 0 0 127 0" result="hardAlpha"/>
<feOffset dx="2" dy="4"/>
<feGaussianBlur stdDeviation="5"/>
<feComposite in2="hardAlpha" operator="arithmetic" k2="-1" k3="1"/>
<feColorMatrix type="matrix" values="0 0 0 0 0 0 0 0 0 0 0 0 0 0 0 0 0 0 0.15 0"/>
<feBlend mode="normal" in2="shape" result="effect1_innerShadow_60_26501"/>
<feColorMatrix in="SourceAlpha" type="matrix" values="0 0 0 0 0 0 0 0 0 0 0 0 0 0 0 0 0 0 127 0" result="hardAlpha"/>
<feOffset dx="-2" dy="-4"/>
<feGaussianBlur stdDeviation="5"/>
<feComposite in2="hardAlpha" operator="arithmetic" k2="-1" k3="1"/>
<feColorMatrix type="matrix" values="0 0 0 0 0 0 0 0 0 0 0 0 0 0 0 0 0 0 0.15 0"/>
<feBlend mode="normal" in2="effect1_innerShadow_60_26501" result="effect2_innerShadow_60_26501"/>
</filter>
<clipPath id="clip0_60_26501">
<rect width="87" height="70" fill="white" transform="matrix(-1 0 0 1 87 0)"/>
</clipPath>
</defs>
</svg>
