<svg width="69" height="69" viewBox="0 0 69 69" fill="none" xmlns="http://www.w3.org/2000/svg">
<path d="M34.2521 68.5002C53.1657 68.5002 68.4983 53.1677 68.4983 34.254C68.4983 15.3404 53.1657 0.0078125 34.2521 0.0078125C15.3384 0.0078125 0.00585938 15.3404 0.00585938 34.254C0.00585938 53.1677 15.3384 68.5002 34.2521 68.5002Z" fill="#E8E32A"/>
<path d="M59.5068 11.1122C56.7298 8.08058 53.3591 5.50139 49.4544 3.567C32.507 -4.8292 11.9606 2.10306 3.56581 19.0518C-0.015166 26.2802 -0.806634 34.1631 0.777686 41.48C3.55474 44.5116 6.9254 47.0908 10.8302 49.0252C27.7789 57.4214 48.3239 50.4878 56.7201 33.5404C60.3011 26.312 61.0912 18.4292 59.5068 11.1122Z" fill="#EDFF45"/>
<path d="M68.1292 29.2322C67.1966 28.1834 66.0025 27.4085 64.5801 26.9478C57.7198 24.7284 50.9619 30.1884 50.216 30.7045C45.9156 33.6766 41.4698 36.7498 32.6515 38.2636C21.9875 40.0928 13.3989 37.1068 7.81439 29.6266C3.34646 23.6408 5.52854 16.6352 6.57599 14.0781C5.5742 15.4549 4.66512 16.923 3.85843 18.4782C3.33678 21.9319 3.60383 26.3722 6.67008 30.4789C13.4072 39.5033 23.4556 41.2883 32.8923 39.668C42.0205 38.1017 46.5991 34.9372 51.0269 31.8765C51.7146 31.4005 57.9771 26.3113 64.1401 28.3038C66.1755 28.9624 67.5993 30.3337 68.37 32.3787L68.4489 32.3497C68.3894 31.3036 68.2814 30.2631 68.1279 29.2322H68.1292Z" fill="white"/>
<path opacity="0.29" d="M30.2458 25.3507C38.3369 20.8009 42.7572 13.309 40.1187 8.61698C37.4803 3.92498 28.7823 3.80971 20.6912 8.35951C12.6001 12.9093 8.17987 20.4013 10.8183 25.0933C13.4567 29.7853 22.1547 29.9005 30.2458 25.3507Z" fill="white"/>
<path opacity="0.72" d="M66.0923 29.373C66.8575 35.4737 65.9 41.8608 62.9666 47.783C55.0131 63.8379 35.5502 70.4049 19.4967 62.4514C15.6141 60.5281 12.2863 57.9309 9.58398 54.873C9.58398 54.873 26.4594 65.4817 45.3301 57.1796C64.8636 48.5855 66.0937 29.373 66.0937 29.373H66.0923Z" fill="#CCC321"/>
<g filter="url(#filter0_ii_60_26611)">
<path d="M54.5987 34.1462C54.6096 38.1675 53.4275 42.1016 51.2019 45.4507C48.9763 48.7999 45.8073 51.4136 42.0959 52.9611C38.3844 54.5087 34.2973 54.9206 30.3516 54.1447C26.406 53.3687 22.7791 51.4398 19.93 48.6021C17.0808 45.7643 15.1373 42.1452 14.3456 38.2026C13.5538 34.2601 13.9492 30.1713 15.4818 26.4536C17.0144 22.7359 19.6153 19.5564 22.9554 17.3173C26.2956 15.0783 30.2249 13.8803 34.2461 13.875C36.9135 13.8695 39.5558 14.3894 42.0222 15.4052C44.4887 16.421 46.731 17.9127 48.6209 19.7951C50.5109 21.6775 52.0115 23.9137 53.0372 26.3761C54.0629 28.8385 54.5935 31.4788 54.5987 34.1462Z" fill="#8250CB"/>
</g>
<path d="M53.5987 34.1482L53.5987 34.1489C53.6091 37.9723 52.4851 41.7129 50.369 44.8973C48.253 48.0816 45.2399 50.5667 41.711 52.0382C38.1821 53.5096 34.2961 53.9012 30.5446 53.1635C26.7931 52.4257 23.3446 50.5917 20.6357 47.8935C17.9267 45.1954 16.0788 41.7543 15.326 38.0058C14.5731 34.2572 14.9491 30.3696 16.4063 26.8348C17.8635 23.3 20.3365 20.2769 23.5123 18.148C26.6881 16.0191 30.4241 14.88 34.2474 14.875L34.2482 14.875C36.7843 14.8698 39.2964 15.3641 41.6414 16.3299C43.9865 17.2956 46.1183 18.7139 47.9152 20.5036C49.7121 22.2933 51.1389 24.4195 52.1141 26.7606C53.0893 29.1018 53.5938 31.6121 53.5987 34.1482ZM34.2461 13.875C36.9135 13.8695 39.5558 14.3894 42.0222 15.4052C44.4887 16.421 46.731 17.9127 48.6209 19.7951C50.5109 21.6775 52.0115 23.9137 53.0372 26.3761C54.0629 28.8385 54.5935 31.4788 54.5987 34.1462L34.2461 13.875Z" stroke="white" stroke-width="2"/>
<defs>
<filter id="filter0_ii_60_26611" x="11.9473" y="9.875" width="44.6523" height="48.6523" filterUnits="userSpaceOnUse" color-interpolation-filters="sRGB">
<feFlood flood-opacity="0" result="BackgroundImageFix"/>
<feBlend mode="normal" in="SourceGraphic" in2="BackgroundImageFix" result="shape"/>
<feColorMatrix in="SourceAlpha" type="matrix" values="0 0 0 0 0 0 0 0 0 0 0 0 0 0 0 0 0 0 127 0" result="hardAlpha"/>
<feOffset dx="2" dy="4"/>
<feGaussianBlur stdDeviation="5"/>
<feComposite in2="hardAlpha" operator="arithmetic" k2="-1" k3="1"/>
<feColorMatrix type="matrix" values="0 0 0 0 0 0 0 0 0 0 0 0 0 0 0 0 0 0 0.15 0"/>
<feBlend mode="normal" in2="shape" result="effect1_innerShadow_60_26611"/>
<feColorMatrix in="SourceAlpha" type="matrix" values="0 0 0 0 0 0 0 0 0 0 0 0 0 0 0 0 0 0 127 0" result="hardAlpha"/>
<feOffset dx="-2" dy="-4"/>
<feGaussianBlur stdDeviation="5"/>
<feComposite in2="hardAlpha" operator="arithmetic" k2="-1" k3="1"/>
<feColorMatrix type="matrix" values="0 0 0 0 0 0 0 0 0 0 0 0 0 0 0 0 0 0 0.15 0"/>
<feBlend mode="normal" in2="effect1_innerShadow_60_26611" result="effect2_innerShadow_60_26611"/>
</filter>
</defs>
</svg>
