<svg width="69" height="79" viewBox="0 0 69 79" fill="none" xmlns="http://www.w3.org/2000/svg">
<g clip-path="url(#clip0_181_571)">
<path d="M39.2177 -0.0730552C37.4247 -0.0565111 35.9435 1.37779 35.9269 3.11588C36.2567 14.3697 36.389 26.0197 36.2769 38.0396C36.1614 50.1557 35.8086 61.8991 35.2585 73.2428C35.2565 73.4543 35.2732 74.5695 36.1958 75.4648C36.7814 76.0315 37.595 76.3798 38.4915 76.3715C40.287 76.3549 41.7682 74.9206 41.7848 73.1826C41.2802 62.0361 41.0418 50.3174 41.1609 38.0739C41.2773 25.8688 41.7388 14.1797 42.4532 3.05566C42.4649 1.57482 41.5943 -0.0949842 39.2177 -0.0730552Z" fill="#0083FB"/>
<path d="M36.2805 38.0403C36.2311 43.2233 36.1376 48.3346 36.0027 53.379L41.2951 58.5006C41.1473 51.8652 41.0955 45.0581 41.162 38.0745C41.196 34.5046 41.2643 30.9872 41.3546 27.5081L36.291 22.6055C36.3296 27.6795 36.3302 32.8236 36.2805 38.0403Z" fill="#6A6A6A"/>
<path d="M41.1633 38.0735C41.1861 35.6767 41.2261 33.3038 41.2759 30.9501C40.3615 30.7446 39.4014 30.6573 38.4151 30.712C37.6921 30.7524 36.9933 30.8622 36.3186 31.0391C36.3164 33.3587 36.3041 35.6905 36.2817 38.0392C36.243 42.1044 36.1749 46.1241 36.0848 50.1032C37.0658 50.3466 38.1027 50.4524 39.176 50.3944C39.8592 50.3569 40.5257 50.2546 41.1679 50.0948C41.131 46.1457 41.1295 42.141 41.1682 38.0735L41.1633 38.0735Z" fill="#61B3FF"/>
<path d="M38.5867 47.3517C37.9733 47.3574 37.4738 46.8764 37.4795 46.2802L37.5463 39.2654C37.552 38.6716 38.0608 38.1789 38.6742 38.1733C39.29 38.1676 39.787 38.651 39.7814 39.2448L39.7145 46.2596C39.7088 46.8558 39.2025 47.346 38.5867 47.3517Z" fill="#4D515C"/>
<path d="M41.9673 38.7221C42.0409 39.0772 41.7719 39.4162 41.4342 39.4169C40.8258 39.4201 39.8126 39.4247 38.6628 39.4353C37.513 39.4459 36.4998 39.46 35.8938 39.468C35.5387 39.4713 35.2938 39.1082 35.3843 38.7324C35.7307 37.2989 37.081 36.8418 38.6902 36.8269C40.2994 36.8121 41.6709 37.2537 41.9698 38.7197L41.9673 38.7221Z" fill="#32353D"/>
<path d="M35.2998 46.8012C35.2262 46.4461 35.4951 46.1071 35.8328 46.1064C36.4412 46.1031 37.4544 46.0986 38.6042 46.088C39.754 46.0774 40.7673 46.0632 41.3732 46.0552C41.7283 46.052 41.9732 46.4151 41.8827 46.7909C41.5363 48.2243 40.1861 48.6815 38.5769 48.6964C36.9676 48.7112 35.6011 48.2695 35.2998 46.8012Z" fill="#32353D"/>
<path d="M40.2017 42.7486C40.1937 43.59 39.4819 44.2768 38.6152 44.2848C37.7485 44.2928 37.0498 43.6166 37.0578 42.7776C37.0658 41.9386 37.7775 41.2494 38.6442 41.2414C39.5109 41.2334 40.2097 41.9096 40.2017 42.7486Z" fill="#8891A5"/>
<path d="M39.3547 42.7565C39.351 43.1436 39.0252 43.4591 38.6253 43.4628C38.2255 43.4665 37.9057 43.1569 37.9093 42.7699C37.913 42.3828 38.2389 42.0673 38.6387 42.0636C39.0385 42.06 39.3584 42.3695 39.3547 42.7565Z" fill="#4D515C"/>
<g opacity="0.25">
<path d="M36.2578 19.6602C36.2844 22.0829 36.3009 24.5226 36.3073 26.9768L41.2528 31.7628C41.3004 29.3754 41.3552 27.0048 41.4273 24.6604L36.2578 19.6602Z" fill="#FEFEFE"/>
<path d="M35.9421 2.86121C35.9339 2.94542 35.9281 3.02961 35.9273 3.11615C36.0531 7.36728 36.1486 11.6764 36.2138 16.041L41.5456 21.2008C41.6973 17.0073 41.8856 12.883 42.1105 8.82818L35.9421 2.86121Z" fill="#FEFEFE"/>
</g>
<path d="M25.0891 3.65622C23.5259 4.53961 22.9702 6.48536 23.8535 7.98231C29.956 17.4632 36.0901 27.379 42.2015 37.7301C48.3596 48.1652 54.1173 58.3959 59.4959 68.3798C59.6034 68.562 60.1941 69.5092 61.4643 69.8295C62.2697 70.0315 63.1619 69.9359 63.9424 69.4948C65.5056 68.6115 66.0613 66.6657 65.1779 65.1688C58.9779 55.8645 52.7154 45.9412 46.4947 35.3951C40.2914 24.8833 34.6569 14.6465 29.5356 4.77131C28.7829 3.4959 27.1582 2.48692 25.0891 3.65622Z" fill="#0083FB"/>
<path d="M42.2048 37.728C44.8391 42.1919 47.3978 46.6157 49.8856 51.0023L57.1645 52.8277C53.6072 47.215 50.0453 41.4088 46.4959 35.3942C44.6814 32.3195 42.9241 29.2733 41.2059 26.2493L34.2383 24.502C36.8933 28.8299 39.5512 33.2363 42.2026 37.7292L42.2048 37.728Z" fill="#6A6A6A"/>
<path d="M46.4985 35.3945C45.2803 33.3303 44.0895 31.2782 42.9171 29.2377C42.0105 29.5043 41.1249 29.8944 40.2897 30.4188C39.6777 30.8033 39.1227 31.2357 38.6235 31.7138C39.8199 33.702 41.0137 35.7055 42.2074 37.7283C44.2736 41.2295 46.2905 44.7059 48.2673 48.1582C49.2518 47.8918 50.2142 47.4804 51.1238 46.9112C51.7025 46.5483 52.2331 46.138 52.7127 45.6902C50.6403 42.3251 48.5702 38.8953 46.5028 35.3921L46.4985 35.3945Z" fill="#61B3FF"/>
<path d="M49.0344 44.5896C48.5004 44.8914 47.8147 44.7212 47.5116 44.2077L43.9463 38.1661C43.6445 37.6547 43.8332 36.9876 44.3694 36.6845C44.9035 36.3828 45.5904 36.555 45.8922 37.0664L49.4576 43.108C49.7606 43.6215 49.5706 44.2866 49.0344 44.5896Z" fill="#4D515C"/>
<path d="M47.5362 35.5612C47.7841 35.8297 47.7238 36.2503 47.4285 36.4144C46.8976 36.7117 46.013 37.2061 45.0119 37.7718C44.0108 38.3375 43.1311 38.8401 42.6048 39.1403C42.2956 39.3151 41.8937 39.1225 41.7788 38.7568C41.3415 37.3611 42.2873 36.3158 43.6884 35.5241C45.0894 34.7323 46.5182 34.4468 47.5371 35.5579L47.5362 35.5612Z" fill="#32353D"/>
<path d="M45.874 45.7087C45.6262 45.4402 45.6865 45.0196 45.9817 44.8555C46.5127 44.5582 47.3973 44.0638 48.3983 43.4981C49.3994 42.9324 50.2791 42.4298 50.8054 42.1296C51.1146 41.9548 51.5165 42.1474 51.6315 42.5131C52.0688 43.9088 51.1229 44.954 49.7219 45.7458C48.3208 46.5376 46.8921 46.8231 45.8731 45.712L45.874 45.7087Z" fill="#32353D"/>
<path d="M48.0732 39.8614C48.5008 40.5861 48.2326 41.519 47.478 41.9454C46.7234 42.3719 45.7623 42.1308 45.3359 41.4083C44.9095 40.6857 45.1765 39.7507 45.9311 39.3242C46.6857 38.8978 47.6467 39.1388 48.0732 39.8614Z" fill="#8891A5"/>
<path d="M47.3307 40.282C47.5274 40.6154 47.4052 41.0434 47.0571 41.2401C46.709 41.4368 46.2691 41.3265 46.0724 40.9931C45.8756 40.6598 45.9979 40.2318 46.346 40.0351C46.6941 39.8384 47.134 39.9487 47.3307 40.282Z" fill="#4D515C"/>
<g opacity="0.25">
<path d="M32.6946 21.9943C33.9694 24.0568 35.2442 26.1388 36.5176 28.2381L43.3194 29.9438C42.1277 27.8756 40.9511 25.8183 39.8031 23.7751L32.6934 21.9922L32.6946 21.9943Z" fill="#FEFEFE"/>
<path d="M23.7354 7.75756C23.7717 7.83369 23.8101 7.9086 23.8541 7.98314C26.1604 11.5639 28.4701 15.2091 30.7819 18.9165L38.115 20.7554C36.0814 17.0896 34.1157 13.4654 32.2178 9.88299L23.7354 7.75756Z" fill="#FEFEFE"/>
</g>
<path d="M7.84237 12.9928C10.8728 20.3514 5.01018 22.2305 5.68271 13.9367" stroke="#4D515C" stroke-width="3" stroke-miterlimit="10" stroke-linecap="round"/>
<path d="M41.3394 77.3505L41.2921 76.1527L7.67818 13.6653C7.54259 13.4133 7.22147 13.3157 6.9646 13.4486C6.70773 13.5814 6.6085 13.8964 6.7441 14.1485L40.3569 76.6337L41.3383 77.3484L41.3394 77.3505Z" fill="#8891A5"/>
<path d="M41.3394 77.3505L41.2921 76.1527L7.67818 13.6653C7.54259 13.4133 7.22147 13.3157 6.9646 13.4486C6.70773 13.5814 6.6085 13.8964 6.7441 14.1485L40.3569 76.6337L41.3383 77.3484L41.3394 77.3505Z" fill="#8891A5"/>
<path opacity="0.2" d="M6.74968 14.1519L7.68164 13.6699L14.9143 27.1153L13.9824 27.5973L6.74968 14.1519Z" fill="#3E2C38"/>
<path d="M39.8437 74.639C40.332 74.3865 40.5225 73.7873 40.2637 73.3061L38.4168 69.8729C38.1591 69.3937 37.5482 69.2064 37.0578 69.4601C36.5695 69.7126 36.3789 70.3118 36.6378 70.793L38.4847 74.2262C38.7424 74.7054 39.3533 74.8927 39.8437 74.639Z" fill="#4D515C"/>
<path d="M38.188 75.6299L41.7438 73.7908C41.8606 73.7304 41.9057 73.5872 41.8441 73.4726C41.6132 73.0435 41.0651 72.877 40.6277 73.1031L38.2395 74.3384C37.8021 74.5645 37.6328 75.1022 37.8636 75.5313C37.9252 75.6459 38.0712 75.6902 38.188 75.6299Z" fill="#4D515C"/>
<path d="M6.02899 14.2484C5.70901 13.6535 5.94052 12.9174 6.54609 12.6042C7.15167 12.291 7.90197 12.5193 8.22195 13.1142L13.5305 22.9826C13.8505 23.5774 13.6189 24.3135 13.0134 24.6267C12.4078 24.9399 11.6575 24.7116 11.3375 24.1168L6.02899 14.2484Z" fill="#0083FB"/>
<path d="M6.54699 12.6028C7.14989 12.291 7.90452 12.5185 8.22391 13.1122L9.6617 15.785L7.46874 16.9192L6.03094 14.2464C5.71268 13.6548 5.94408 12.9146 6.54911 12.6017L6.54699 12.6028Z" fill="#6A6A6A"/>
<path d="M6.8425 14.6904L8.27759 13.9482C8.97391 13.588 9.24251 12.7355 8.87494 12.0522C8.50737 11.3689 7.63809 11.1048 6.94178 11.4649L5.50669 12.2072C4.81037 12.5673 4.54177 13.4199 4.90934 14.1032C5.27691 14.7865 6.14619 15.0505 6.8425 14.6904Z" fill="#0083FB"/>
<path d="M10.8878 23.0475L12.8791 22.0176C13.0397 21.9345 13.2387 21.995 13.3235 22.1526L13.5767 22.6234C13.6615 22.781 13.6 22.9762 13.4394 23.0592L11.4481 24.0891C11.2875 24.1722 11.0885 24.1118 11.0037 23.9542L10.7505 23.4833C10.6657 23.3257 10.7272 23.1306 10.8878 23.0475Z" fill="#61B3FF"/>
<path d="M9.78835 21.0015L11.7754 19.9738C11.9372 19.8901 12.1376 19.951 12.223 20.1098L12.474 20.5764C12.5594 20.7352 12.4975 20.9317 12.3357 21.0154L10.3487 22.0431C10.1869 22.1268 9.98648 22.0659 9.90107 21.9071L9.65004 21.4405C9.56463 21.2817 9.62655 21.0852 9.78835 21.0015Z" fill="#61B3FF"/>
<path d="M8.68857 18.9577L10.6799 17.9278C10.8405 17.8447 11.0394 17.9051 11.1242 18.0628L11.3775 18.5336C11.4623 18.6912 11.4008 18.8863 11.2402 18.9694L9.2489 19.9993C9.08827 20.0824 8.88932 20.0219 8.80453 19.8643L8.55126 19.3935C8.46647 19.2359 8.52795 19.0407 8.68857 18.9577Z" fill="#61B3FF"/>
<path d="M7.58913 16.9136L9.57618 15.8859C9.73798 15.8022 9.93838 15.8631 10.0238 16.0219L10.2748 16.4885C10.3602 16.6473 10.2983 16.8438 10.1365 16.9275L8.14946 17.9552C7.98766 18.0389 7.78726 17.978 7.70185 17.8193L7.45082 17.3526C7.36541 17.1938 7.42733 16.9973 7.58913 16.9136Z" fill="#61B3FF"/>
<g opacity="0.25">
<path d="M23.5551 45.4017L23.9961 44.002L24.3614 44.6811L23.9204 46.0808L23.5551 45.4017Z" fill="#FEFEFE"/>
<path d="M21.0454 38.5158L20.6033 39.9135L19.3235 37.5344L19.7656 36.1367L21.0454 38.5158Z" fill="#FEFEFE"/>
<path d="M28.5379 54.6651L26.1352 50.1986L26.5762 48.7988L28.9788 53.2653L28.5379 54.6651Z" fill="#FEFEFE"/>
</g>
<path d="M11.3308 10.7884C15.8132 17.396 20.7053 13.7128 13.3448 9.57371" stroke="#4D515C" stroke-width="3" stroke-miterlimit="10" stroke-linecap="round"/>
<path d="M46.5816 74.2372L45.6002 73.5225L11.9863 11.0352C11.8507 10.7831 11.9499 10.4682 12.2068 10.3353C12.4637 10.2024 12.7848 10.3 12.9204 10.5521L46.5332 73.0373L46.5805 74.2351L46.5816 74.2372Z" fill="#8891A5"/>
<path d="M46.5816 74.2372L45.6002 73.5225L11.9863 11.0352C11.8507 10.7831 11.9499 10.4682 12.2068 10.3353C12.4637 10.2024 12.7848 10.3 12.9204 10.5521L46.5332 73.0373L46.5805 74.2351L46.5816 74.2372Z" fill="#8891A5"/>
<path opacity="0.2" d="M11.9899 11.0406L12.9219 10.5586L20.1546 24.0039L19.2226 24.486L11.9899 11.0406Z" fill="#3E2C38"/>
<path d="M45.1454 71.497C45.6358 71.2433 45.8242 70.6453 45.5653 70.164L43.7185 66.7308C43.4596 66.2496 42.8498 66.0644 42.3594 66.318C41.869 66.5716 41.6806 67.1697 41.9395 67.6509L43.7863 71.0841C44.0452 71.5654 44.655 71.7506 45.1454 71.497Z" fill="#4D515C"/>
<path d="M46.9118 70.7146L43.3559 72.5537C43.2392 72.6141 43.0932 72.5697 43.0316 72.4552C42.8007 72.026 42.9701 71.4884 43.4074 71.2622L45.7957 70.027C46.233 69.8008 46.7812 69.9673 47.012 70.3965C47.0737 70.511 47.0286 70.6542 46.9118 70.7146Z" fill="#4D515C"/>
<path d="M18.7152 19.9001C19.0351 20.4949 18.8036 21.231 18.198 21.5442C17.5925 21.8574 16.8422 21.6291 16.5222 21.0343L11.2137 11.1659C10.8937 10.5711 11.1252 9.83494 11.7308 9.52174C12.3363 9.20854 13.0866 9.43684 13.4066 10.0317L18.7152 19.9001Z" fill="#0083FB"/>
<path d="M11.7325 9.52078C11.1296 9.8326 10.895 10.5717 11.2144 11.1655L12.6522 13.8383L14.8472 12.703L13.4095 10.0302C13.0912 9.43852 12.3376 9.20785 11.7325 9.52078Z" fill="#6A6A6A"/>
<path d="M13.3206 10.9384L11.8855 11.6806C11.1892 12.0408 10.3199 11.7767 9.95231 11.0934C9.58473 10.4101 9.85334 9.55754 10.5497 9.1974L11.9847 8.45517C12.6811 8.09504 13.5503 8.35909 13.9179 9.0424C14.2855 9.72571 14.0169 10.5783 13.3206 10.9384Z" fill="#0083FB"/>
<path d="M18.6317 19.9681L16.6404 20.998C16.4798 21.0811 16.2809 21.0207 16.1961 20.863L15.9428 20.3922C15.858 20.2346 15.9195 20.0395 16.0801 19.9564L18.0714 18.9265C18.232 18.8434 18.431 18.9038 18.5158 19.0615L18.769 19.5323C18.8538 19.6899 18.7924 19.885 18.6317 19.9681Z" fill="#61B3FF"/>
<path d="M17.5341 17.9271L15.5428 18.957C15.3822 19.0401 15.1832 18.9796 15.0984 18.822L14.8452 18.3512C14.7604 18.1936 14.8218 17.9984 14.9825 17.9154L16.9738 16.8855C17.1344 16.8024 17.3333 16.8628 17.4181 17.0205L17.6714 17.4913C17.7562 17.6489 17.6947 17.844 17.5341 17.9271Z" fill="#61B3FF"/>
<path d="M16.4325 15.8802L14.4412 16.9101C14.2806 16.9932 14.0817 16.9328 13.9969 16.7751L13.7436 16.3043C13.6588 16.1467 13.7203 15.9516 13.8809 15.8685L15.8722 14.8386C16.0328 14.7555 16.2318 14.816 16.3166 14.9736L16.5698 15.4444C16.6546 15.602 16.5931 15.7971 16.4325 15.8802Z" fill="#61B3FF"/>
<path d="M15.3329 13.8392L13.3416 14.8691C13.181 14.9522 12.982 14.8918 12.8973 14.7341L12.644 14.2633C12.5592 14.1057 12.6207 13.9106 12.7813 13.8275L14.7726 12.7976C14.9332 12.7145 15.1322 12.7749 15.217 12.9326L15.4702 13.4034C15.555 13.561 15.4935 13.7561 15.3329 13.8392Z" fill="#61B3FF"/>
<g opacity="0.25">
<path d="M28.7994 42.2873L29.2383 40.8887L29.6036 41.5678L29.1647 42.9665L28.7994 42.2873Z" fill="#FEFEFE"/>
<path d="M26.2876 35.4025L25.8476 36.7991L24.5678 34.42L25.0078 33.0234L26.2876 35.4025Z" fill="#FEFEFE"/>
<path d="M33.7822 51.5527L31.3795 47.0861L31.8184 45.6875L34.221 50.154L33.7822 51.5527Z" fill="#FEFEFE"/>
</g>
<g clip-path="url(#clip1_181_571)">
<path d="M34.822 110.972C34.822 92.741 32.503 77.9618 29.6424 77.9618C26.7819 77.9618 24.4629 92.741 24.4629 110.972C24.4629 129.203 26.7819 143.982 29.6425 143.982C32.503 143.982 34.822 129.203 34.822 110.972Z" fill="#1E4054"/>
<path d="M32.5915 89.3574C32.5915 80.0791 29.2539 78.0172 29.2539 78.0172C29.2539 78.0172 36.9886 75.7286 42.916 78.0172C42.916 78.0172 44.9449 83.0207 44.5018 89.3574L32.5915 89.3574Z" fill="#0083D5"/>
</g>
<g filter="url(#filter0_ii_181_571)">
<path d="M55.1788 34.0467C55.1898 38.1579 53.99 42.1801 51.7311 45.6043C49.4722 49.0284 46.2557 51.7006 42.4886 53.2828C38.7216 54.865 34.5733 55.2861 30.5685 54.4928C26.5638 53.6995 22.8826 51.7274 19.9907 48.8261C17.0989 45.9249 15.1263 42.2247 14.3227 38.1939C13.519 34.1631 13.9204 29.9828 15.4759 26.1819C17.0315 22.3809 19.6714 19.1302 23.0615 16.841C26.4517 14.5518 30.4399 13.327 34.5213 13.3216C37.2287 13.316 39.9105 13.8476 42.4139 14.8861C44.9173 15.9246 47.1932 17.4497 49.1115 19.3742C51.0297 21.2988 52.5529 23.5851 53.5939 26.1026C54.6349 28.6201 55.1735 31.3195 55.1788 34.0467Z" fill="#8250CB"/>
</g>
<path d="M54.1788 34.0486L54.1788 34.0494C54.1893 37.9644 53.0467 41.794 50.8964 45.0536C48.7461 48.3131 45.685 50.8557 42.1014 52.3608C38.5178 53.866 34.572 54.2665 30.7628 53.5119C26.9536 52.7573 23.4511 50.8813 20.699 48.1202C17.9468 45.359 16.0686 41.8366 15.3034 37.9984C14.5381 34.1601 14.9203 30.1796 16.4014 26.5606C17.8825 22.9418 20.3954 19.8479 23.6211 17.6698C26.8468 15.4917 30.6407 14.3268 34.5226 14.3216L34.5234 14.3216C37.0984 14.3162 39.6493 14.8218 42.0307 15.8098C44.4122 16.7977 46.5776 18.2487 48.4032 20.0802C50.2288 21.9117 51.6787 24.0879 52.6698 26.4847C53.6609 28.8816 54.1738 31.4518 54.1788 34.0486Z" stroke="white" stroke-width="2"/>
</g>
<defs>
<filter id="filter0_ii_181_571" x="11.918" y="9.32227" width="45.2617" height="49.5605" filterUnits="userSpaceOnUse" color-interpolation-filters="sRGB">
<feFlood flood-opacity="0" result="BackgroundImageFix"/>
<feBlend mode="normal" in="SourceGraphic" in2="BackgroundImageFix" result="shape"/>
<feColorMatrix in="SourceAlpha" type="matrix" values="0 0 0 0 0 0 0 0 0 0 0 0 0 0 0 0 0 0 127 0" result="hardAlpha"/>
<feOffset dx="2" dy="4"/>
<feGaussianBlur stdDeviation="5"/>
<feComposite in2="hardAlpha" operator="arithmetic" k2="-1" k3="1"/>
<feColorMatrix type="matrix" values="0 0 0 0 0 0 0 0 0 0 0 0 0 0 0 0 0 0 0.15 0"/>
<feBlend mode="normal" in2="shape" result="effect1_innerShadow_181_571"/>
<feColorMatrix in="SourceAlpha" type="matrix" values="0 0 0 0 0 0 0 0 0 0 0 0 0 0 0 0 0 0 127 0" result="hardAlpha"/>
<feOffset dx="-2" dy="-4"/>
<feGaussianBlur stdDeviation="5"/>
<feComposite in2="hardAlpha" operator="arithmetic" k2="-1" k3="1"/>
<feColorMatrix type="matrix" values="0 0 0 0 0 0 0 0 0 0 0 0 0 0 0 0 0 0 0.15 0"/>
<feBlend mode="normal" in2="effect1_innerShadow_181_571" result="effect2_innerShadow_181_571"/>
</filter>
<clipPath id="clip0_181_571">
<rect width="68.5" height="78.3443" fill="white"/>
</clipPath>
<clipPath id="clip1_181_571">
<rect width="68" height="29" fill="white" transform="translate(21 145) rotate(-90)"/>
</clipPath>
</defs>
</svg>
