<svg width="70" height="71" viewBox="0 0 70 71" fill="none" xmlns="http://www.w3.org/2000/svg">
<path d="M0.289062 35.025L4.51954 51.3655C5.78545 56.2554 10.3501 59.9678 17.3744 61.821C24.3545 63.6624 32.9406 63.449 41.5517 61.2189C50.1628 58.9904 57.7744 55.0101 62.9838 50.0127C68.2255 44.9844 70.4158 39.5234 69.1499 34.6335L64.9194 18.293L0.289062 35.025Z" fill="#2E2E2E"/>
<path d="M17.3748 61.8208C17.9916 61.9842 18.6245 62.124 19.2663 62.255L12.1242 34.3359L5.9375 36.6558L12.5423 60.0736C13.9878 60.7669 15.604 61.3527 17.3763 61.8208H17.3748Z" fill="#3C3C3C"/>
<path d="M59.491 52.9439L51.5673 22.7344L29.1387 36.6564L35.8141 62.4043C37.7144 62.1085 39.631 61.7169 41.5519 61.2194C48.401 59.4457 54.6128 56.5635 59.4924 52.9439H59.491Z" fill="#232323"/>
<path d="M52.1939 8.35891C45.3404 6.70293 36.7838 7.02825 28.102 9.2745C19.4202 11.5222 11.7821 15.3891 6.59338 20.1642C1.30601 25.0291 -0.913738 30.3798 0.343336 35.2329C1.60924 40.1229 6.17386 43.8352 13.1982 45.6884C20.1783 47.5299 28.7644 47.3164 37.3755 45.0864C45.9866 42.8578 53.5982 38.8775 58.8076 33.8802C64.0493 28.8519 66.2396 23.3908 64.9737 18.5009C63.7166 13.6478 59.18 10.0458 52.1954 8.35746L52.1939 8.35891Z" fill="#414449"/>
<g style="mix-blend-mode:overlay" opacity="0.24">
<path d="M51.878 8.28878C45.0774 6.71671 36.6532 7.06116 28.104 9.27502C19.4222 11.5227 11.7841 15.3896 6.59533 20.1648C1.30797 25.0297 -0.911785 30.3803 0.345289 35.2334C0.552839 36.0342 0.850179 36.8026 1.23142 37.5371C8.13797 39.2667 16.5562 39.0238 25.004 36.8379C33.6151 34.6093 41.2267 30.6291 46.436 25.6317C51.6778 20.6034 53.8681 15.1424 52.6022 10.2524C52.4255 9.57237 52.1827 8.91732 51.8809 8.28878H51.878Z" fill="white"/>
</g>
<g style="mix-blend-mode:overlay" opacity="0.24">
<path d="M48.0265 10.4797C42.1195 9.11365 34.8022 9.41395 27.3746 11.3364C19.8336 13.2882 13.1979 16.6487 8.69071 20.7953C4.09813 25.0214 2.16983 29.6699 3.26057 33.8857C3.26057 33.8857 4.73108 23.2992 20.1972 16.8548C35.6633 10.4105 48.0265 10.4797 48.0265 10.4797Z" fill="white"/>
</g>
<path d="M0.552734 35.1778C3.12723 45.124 19.5899 49.4663 37.3214 44.8767C55.0529 40.2856 67.3396 28.5009 64.7636 18.5547C64.7636 18.5547 63.9113 30.6868 49.3799 38.4603C34.8485 46.2324 17.9589 45.8232 11.307 43.3679C4.65515 40.9127 0.552734 35.1778 0.552734 35.1778Z" fill="#595D63"/>
<g filter="url(#filter0_ii_60_26632)">
<path d="M54.9698 35.3005C54.9807 39.3218 53.7986 43.2559 51.573 46.605C49.3474 49.9542 46.1784 52.5679 42.467 54.1154C38.7555 55.663 34.6684 56.0749 30.7227 55.299C26.7771 54.523 23.1502 52.5941 20.3011 49.7564C17.4519 46.9186 15.5084 43.2995 14.7166 39.3569C13.9249 35.4144 14.3203 31.3256 15.8529 27.6079C17.3855 23.8902 19.9864 20.7107 23.3265 18.4716C26.6667 16.2326 30.596 15.0346 34.6172 15.0293C37.2846 15.0238 39.9269 15.5437 42.3933 16.5595C44.8598 17.5753 47.1021 19.067 48.992 20.9494C50.882 22.8318 52.3826 25.068 53.4083 27.5304C54.434 29.9928 54.9646 32.6331 54.9698 35.3005Z" fill="#8250CB"/>
</g>
<path d="M53.9698 35.3025L53.9698 35.3032C53.9802 39.1266 52.8562 42.8672 50.7401 46.0516C48.624 49.2359 45.6109 51.721 42.0821 53.1925C38.5532 54.6639 34.6672 55.0555 30.9157 54.3178C27.1642 53.58 23.7157 51.746 21.0067 49.0478C18.2978 46.3497 16.4499 42.9086 15.6971 39.1601C14.9442 35.4115 15.3202 31.5239 16.7774 27.9891C18.2346 24.4543 20.7076 21.4312 23.8834 19.3023C27.0592 17.1734 30.7952 16.0343 34.6185 16.0293L34.6193 16.0293C37.1553 16.0241 39.6675 16.5184 42.0125 17.4842C44.3576 18.4499 46.4894 19.8682 48.2863 21.6579C50.0832 23.4476 51.51 25.5738 52.4852 27.9149C53.4604 30.2561 53.9649 32.7664 53.9698 35.3025ZM34.6172 15.0293C37.2846 15.0238 39.9269 15.5437 42.3933 16.5595C44.8598 17.5753 47.1021 19.067 48.992 20.9494C50.882 22.8318 52.3826 25.068 53.4083 27.5304C54.434 29.9928 54.9646 32.6331 54.9698 35.3005L34.6172 15.0293Z" stroke="white" stroke-width="2"/>
<defs>
<filter id="filter0_ii_60_26632" x="12.3184" y="11.0293" width="44.6523" height="48.6523" filterUnits="userSpaceOnUse" color-interpolation-filters="sRGB">
<feFlood flood-opacity="0" result="BackgroundImageFix"/>
<feBlend mode="normal" in="SourceGraphic" in2="BackgroundImageFix" result="shape"/>
<feColorMatrix in="SourceAlpha" type="matrix" values="0 0 0 0 0 0 0 0 0 0 0 0 0 0 0 0 0 0 127 0" result="hardAlpha"/>
<feOffset dx="2" dy="4"/>
<feGaussianBlur stdDeviation="5"/>
<feComposite in2="hardAlpha" operator="arithmetic" k2="-1" k3="1"/>
<feColorMatrix type="matrix" values="0 0 0 0 0 0 0 0 0 0 0 0 0 0 0 0 0 0 0.15 0"/>
<feBlend mode="normal" in2="shape" result="effect1_innerShadow_60_26632"/>
<feColorMatrix in="SourceAlpha" type="matrix" values="0 0 0 0 0 0 0 0 0 0 0 0 0 0 0 0 0 0 127 0" result="hardAlpha"/>
<feOffset dx="-2" dy="-4"/>
<feGaussianBlur stdDeviation="5"/>
<feComposite in2="hardAlpha" operator="arithmetic" k2="-1" k3="1"/>
<feColorMatrix type="matrix" values="0 0 0 0 0 0 0 0 0 0 0 0 0 0 0 0 0 0 0.15 0"/>
<feBlend mode="normal" in2="effect1_innerShadow_60_26632" result="effect2_innerShadow_60_26632"/>
</filter>
</defs>
</svg>
