<svg width="69" height="69" viewBox="0 0 69 69" fill="none" xmlns="http://www.w3.org/2000/svg">
<path d="M35.5819 3.54145C35.5819 3.54145 35.5617 3.54145 35.5483 3.54145C35.4609 3.44066 35.3131 3.40707 35.1855 3.48098C34.8495 3.40035 34.5337 3.27268 34.1843 3.22565C33.5728 3.1383 32.9547 3.1719 32.3567 2.98376C25.5905 0.880663 18.233 7.70733 14.3157 12.357C12.9988 13.9158 11.7624 15.5755 10.6471 17.2821C8.00643 21.3136 5.60769 26.0842 5.27173 30.9624C5.13063 33.0655 7.4689 34.9939 8.84633 36.2436C11.0233 38.2123 13.6707 39.5696 16.4726 40.4095C16.4927 40.4095 16.5129 40.4095 16.5331 40.4162C16.6002 40.7387 17.0101 40.9874 17.2923 40.7186C17.4737 40.5439 17.5342 40.4229 17.5947 40.1878C17.9172 39.3344 17.9239 38.1384 18.0516 37.3053C18.3472 35.397 18.8243 33.5425 19.3685 31.6948C20.363 28.315 21.9554 24.9689 23.7898 21.9788C25.6375 18.9687 27.324 15.8711 29.2995 12.9416C31.3488 9.89778 33.5997 7.01526 35.5752 3.91772C35.5752 3.91772 35.5886 3.91772 35.5953 3.91772C35.7835 3.87069 35.8103 3.57505 35.5953 3.55489L35.5819 3.54145Z" fill="#484344"/>
<path d="M17.0112 41.1222C16.7155 41.1222 16.4333 40.934 16.2989 40.6653C13.3089 39.7582 10.7288 38.3471 8.63911 36.4591L8.35018 36.2037C6.94587 34.9473 4.82262 33.0457 4.96372 30.9426C5.24593 26.7835 7.01978 22.2615 10.3861 17.1213C11.5015 15.4146 12.7445 13.7483 14.0816 12.1693C17.1926 8.48046 23.3608 2.29883 29.7373 2.29883C30.6645 2.29883 31.5783 2.43321 32.4451 2.70198C32.8012 2.8162 33.1708 2.84308 33.5672 2.86995C33.7889 2.88339 34.0107 2.90355 34.2257 2.93043C34.4676 2.96402 34.6893 3.03121 34.9043 3.09169C34.9917 3.11856 35.0723 3.14544 35.1596 3.1656C35.3343 3.11184 35.5359 3.15216 35.6837 3.25967C35.8786 3.31342 36.013 3.46796 36.0331 3.66282C36.0533 3.87111 35.9458 4.06597 35.7644 4.15331C34.6355 5.92046 33.3992 7.64056 32.2032 9.30691C31.3163 10.5432 30.4025 11.8199 29.5357 13.0965C28.2725 14.9779 27.1034 16.96 25.9746 18.8817C25.3362 19.9635 24.6979 21.052 24.0394 22.1271C22.0842 25.3052 20.5656 28.6447 19.6451 31.7758C19.0135 33.9192 18.5969 35.6931 18.3416 37.346C18.3013 37.6013 18.2744 37.8902 18.2475 38.1926C18.1803 38.878 18.1064 39.6574 17.8712 40.2823C17.804 40.5578 17.71 40.719 17.495 40.9273C17.3606 41.055 17.1926 41.1222 17.0179 41.1222L17.0112 41.1222ZM29.7373 2.89011C23.3742 2.89011 16.991 9.64287 14.5385 12.5523C13.2216 14.1178 11.992 15.764 10.89 17.4505C7.58419 22.5034 5.84393 26.9313 5.56844 30.9897C5.4475 32.8038 7.43637 34.5844 8.76005 35.767L9.04898 36.029C11.0916 37.8701 13.618 39.2475 16.561 40.1277L16.7626 40.1613L16.8298 40.3629C16.8499 40.457 16.9507 40.5376 17.0246 40.5376C17.0381 40.5376 17.0649 40.5376 17.0918 40.504C17.2262 40.3763 17.2598 40.3091 17.3136 40.1143C17.5286 39.5297 17.6025 38.7973 17.6629 38.1456C17.6898 37.8298 17.7234 37.5274 17.7637 37.2586C18.0258 35.5789 18.4491 33.7781 19.0874 31.6078C20.0214 28.4297 21.5668 25.0432 23.5422 21.818C24.2007 20.7497 24.839 19.6611 25.4706 18.5794C26.6062 16.651 27.7753 14.6621 29.0519 12.7673C29.9187 11.4772 30.8392 10.2006 31.7262 8.95752C32.9356 7.27101 34.1854 5.53074 35.3209 3.74345L35.2201 3.7972L35.1126 3.7636C34.9849 3.73001 34.8573 3.69641 34.7296 3.6561C34.528 3.59562 34.3399 3.54187 34.1383 3.50828C33.93 3.4814 33.7217 3.46796 33.5202 3.4478C33.1103 3.42093 32.687 3.38733 32.2637 3.25295C31.4574 2.99762 30.604 2.87667 29.7373 2.87667L29.7373 2.89011Z" fill="#232021"/>
<g style="mix-blend-mode:multiply" opacity="0.2">
<path d="M35.581 3.54208C35.581 3.54208 35.5609 3.54208 35.5474 3.54208C35.4601 3.4413 35.3122 3.4077 35.1846 3.48161C34.8486 3.40098 34.5328 3.27332 34.1834 3.22628C33.572 3.13893 32.9538 3.17253 32.3558 2.98439C31.8048 2.8097 31.2471 2.70891 30.6894 2.64844C29.2515 3.22628 27.948 4.02586 26.7117 4.96655C24.1719 6.88151 22.6466 9.64981 20.2815 11.7193C18.2993 13.4529 16.1626 13.3991 14.2073 12.4853C12.9307 14.0105 11.7213 15.6231 10.6395 17.2828C10.2565 17.8673 9.88021 18.4721 9.51065 19.0835C9.53753 19.1104 9.55096 19.1373 9.57784 19.1641C10.1288 19.7554 10.8142 20.2258 11.3584 20.8305C12.2588 21.8451 12.373 22.9739 12.3058 24.2976C12.1446 27.2943 11.7952 31.1444 8.42887 32.159C7.21942 32.5218 6.24513 32.5017 5.45899 32.2195C6.03012 33.8254 7.74351 35.2565 8.84545 36.251C11.0225 38.2197 13.6698 39.577 16.4717 40.4169C16.4919 40.4169 16.512 40.4169 16.5322 40.4236C16.5994 40.7461 17.0092 40.9947 17.2914 40.7259C17.4729 40.5512 17.5333 40.4303 17.5938 40.1951C17.9163 39.3418 17.923 38.1458 18.0507 37.3126C18.3463 35.4044 18.8234 33.5499 19.3677 31.7021C20.3621 28.3224 21.9545 24.9762 23.7889 21.9862C25.6366 18.976 27.3232 15.8785 29.2986 12.9489C31.3479 9.90513 33.5988 7.02261 35.5743 3.92508C35.5743 3.92508 35.5877 3.92508 35.5944 3.92508C35.7826 3.87804 35.8095 3.5824 35.5944 3.56224L35.581 3.54208Z" fill="#353132"/>
</g>
<g style="mix-blend-mode:multiply" opacity="0.2">
<path d="M27.2431 6.81198C25.2139 8.58584 23.6685 11.0249 21.5049 12.6173C18.8979 14.5323 15.8205 14.8279 12.8708 14.1493C12.1989 15.0228 11.5539 15.9232 10.9424 16.837C12.8641 18.6108 14.2079 20.7946 14.2617 23.5494C14.3222 26.7343 13.2269 30.7591 11.1843 33.2653C9.99501 34.7234 8.59071 35.0325 7.17969 34.6898C7.75754 35.2811 8.35554 35.8052 8.84604 36.2486C11.023 38.2174 13.6704 39.5746 16.4723 40.4145C16.4925 40.4145 16.5126 40.4145 16.5328 40.4212C16.6 40.7438 17.0098 40.9924 17.292 40.7236C17.4734 40.5489 17.5339 40.428 17.5944 40.1928C17.9169 39.3395 17.9236 38.1434 18.0513 37.3103C18.3469 35.402 18.824 33.5475 19.3683 31.6998C20.3627 28.32 21.9551 24.9739 23.7895 21.9839C25.6372 18.9737 27.3237 15.8761 29.2992 12.9466C31.3485 9.9028 33.5994 7.02028 35.5749 3.92274C35.5749 3.92274 35.5883 3.92274 35.595 3.92274C35.6555 3.9093 35.6891 3.86227 35.716 3.81524C32.6924 3.3113 29.5142 4.84999 27.2565 6.83214L27.2431 6.81198Z" fill="#353132"/>
</g>
<path d="M12.9585 39.2217C12.8779 38.2743 12.5487 37.9854 11.8364 37.421C9.41753 35.506 7.1263 33.5844 5.39275 30.9841C5.25165 30.7758 4.92241 30.7489 4.73428 30.9034C4.15643 31.3805 2.94697 32.8923 2.89994 33.7188C2.81931 35.076 4.16986 36.5744 4.9896 37.542C6.79705 39.6786 9.06142 42.1244 11.8499 42.9106C12.0514 43.2667 12.6226 43.2465 12.7502 42.7426C13.0459 41.56 13.0593 40.4245 12.9585 39.2217Z" fill="#231F20"/>
<path d="M12.2662 43.4542C12.0311 43.4542 11.8093 43.3467 11.6615 43.172C8.9537 42.3724 6.7431 40.0879 4.76094 37.7429L4.61312 37.5682C3.72619 36.5267 2.51674 35.1022 2.60409 33.7114C2.66456 32.7304 3.99496 31.1447 4.54593 30.6877C4.86173 30.4257 5.41942 30.4996 5.64115 30.8289C7.35454 33.3956 9.63906 35.3038 12.0176 37.1986C12.7702 37.7899 13.1599 38.1527 13.254 39.2076C13.3749 40.6321 13.3077 41.7475 13.039 42.8293C12.9449 43.219 12.6358 43.4676 12.2662 43.4676L12.2662 43.4542ZM5.0297 31.1043C4.98939 31.1043 4.94908 31.1178 4.92892 31.1312C4.37795 31.5881 3.24241 33.0327 3.19538 33.7315C3.12818 34.8872 4.2906 36.2579 5.0633 37.165L5.21785 37.3464C7.16641 39.6511 9.32997 41.8886 11.9303 42.621L12.0445 42.6546L12.105 42.7621C12.1386 42.8226 12.1991 42.8562 12.2662 42.8562C12.32 42.8562 12.4208 42.8293 12.4611 42.668C12.7164 41.6534 12.7769 40.5985 12.6627 39.2412C12.5955 38.4349 12.367 38.2199 11.6548 37.6488C9.22918 35.7271 6.91108 33.7853 5.15066 31.1447C5.1305 31.1178 5.08346 31.0976 5.03643 31.0976L5.0297 31.1043Z" fill="#232021"/>
<g style="mix-blend-mode:multiply" opacity="0.3">
<path d="M12.9585 39.2196C12.8779 38.2722 12.5487 37.9833 11.8364 37.4189C11.823 37.4121 11.8163 37.4054 11.8028 37.392C11.0503 37.9833 10.2104 38.5141 9.29658 38.5544C7.89228 38.6149 6.84409 37.9161 5.74887 37.0963C4.53942 36.1892 3.50467 34.7513 3.04104 33.1992C2.96713 33.3874 2.90666 33.5621 2.89994 33.7166C2.81931 35.0739 4.16986 36.5722 4.9896 37.5398C6.79705 39.6765 9.06142 42.1223 11.8499 42.9084C12.0514 43.2645 12.6226 43.2444 12.7502 42.7404C13.0459 41.5579 13.0593 40.4223 12.9585 39.2196Z" fill="#231F20"/>
</g>
<path d="M20.9425 18.7854C20.4587 18.6644 15.3319 14.7001 13.1617 13.6049C12.6712 13.3563 12.4091 13.4772 12.2949 13.5646C11.9858 13.8065 10.5949 15.8222 10.2455 16.3127C10.0776 16.5479 10.1179 16.857 10.3463 17.0384C12.6846 18.913 15.1841 20.5928 17.5022 22.4876C18.1137 22.9916 18.7184 23.3611 19.2895 22.6691C20.116 21.6545 20.8484 20.7205 21.3658 19.5043C21.5069 19.1617 21.265 18.8727 20.9492 18.7921L20.9425 18.7854Z" fill="#231F20"/>
<path d="M18.6038 23.3418C18.1267 23.3418 17.6833 23.0193 17.3137 22.7102C16.0976 21.7225 14.8142 20.7751 13.5712 19.8545C12.4423 19.0214 11.2732 18.1613 10.1578 17.2677C9.80842 16.9855 9.74123 16.5017 10.0033 16.1388L10.2922 15.729C11.2598 14.3583 11.8712 13.5251 12.1131 13.3302C12.2945 13.1891 12.7716 13.0682 13.2957 13.3302C14.5857 13.982 16.8434 15.5879 18.6576 16.8779C19.7192 17.6372 20.8211 18.4166 21.0227 18.4905C21.2847 18.5577 21.5065 18.7324 21.6207 18.9542C21.7215 19.1557 21.7282 19.3842 21.6341 19.6059C21.1101 20.849 20.3642 21.8031 19.5176 22.8446C19.2488 23.1738 18.9398 23.3351 18.5971 23.3351L18.6038 23.3418ZM12.6439 13.7535C12.5633 13.7535 12.5095 13.7804 12.4826 13.8006C12.2609 13.9753 11.1859 15.5005 10.7827 16.0716L10.4871 16.4882C10.4131 16.589 10.4333 16.7234 10.5341 16.804C11.6427 17.691 12.8052 18.551 13.9273 19.3775C15.177 20.298 16.4671 21.2521 17.69 22.2466C18.0058 22.5019 18.335 22.7438 18.6038 22.7438C18.7046 22.7438 18.8591 22.7169 19.0607 22.4683C19.9073 21.4335 20.5927 20.5466 21.0899 19.3775C21.1235 19.3036 21.1033 19.2565 21.0899 19.2296C21.0563 19.1625 20.9689 19.102 20.8749 19.0751C20.6397 19.0146 20.0215 18.5846 18.3149 17.3752C16.5141 16.0985 14.2767 14.5061 13.0269 13.8678C12.8791 13.7938 12.7447 13.7535 12.6372 13.7535L12.6439 13.7535Z" fill="#161414"/>
<g style="mix-blend-mode:multiply" opacity="0.3">
<path d="M20.9417 18.7863C20.7804 18.746 20.1018 18.2757 19.1947 17.6373C18.3011 18.5377 17.226 19.176 15.8687 19.0215C13.9067 18.7997 11.8305 17.7986 10.1507 16.5488C10.1238 16.7302 10.1843 16.9117 10.3388 17.0393C12.6771 18.914 15.1766 20.5938 17.4948 22.4886C18.1062 22.9925 18.7109 23.3621 19.2821 22.67C20.1085 21.6554 20.8409 20.7214 21.3583 19.5053C21.4994 19.1626 21.2575 18.8737 20.9417 18.793L20.9417 18.7863Z" fill="#231F20"/>
</g>
<path d="M42.3676 44.4366C40.923 43.3683 39.3641 42.6023 37.7649 41.8296C34.1702 40.096 30.226 38.853 26.4566 37.6167C24.5819 37.0052 22.7947 36.125 20.8998 35.5808C19.9659 35.312 16.2972 33.7397 15.4506 33.3164C15.4506 33.3164 15.4372 33.3164 15.4304 33.3164C15.2692 33.4978 15.1012 33.6792 14.9265 33.8674C14.2008 34.6468 13.6633 35.6144 13.2064 36.5886C12.3464 38.4163 11.6341 40.3581 11.1571 42.3335C10.2701 45.9753 9.86698 50.0135 10.4851 53.7359C11.3721 59.0777 15.0139 63.9625 20.0398 65.555C23.5338 66.6636 27.1084 66.3277 30.4142 64.6882C34.1433 62.8404 36.616 59.6958 38.7594 56.0742C40.634 52.9028 42.2265 49.5432 43.3822 46.0156C43.315 45.4311 43.0395 44.9338 42.3743 44.4433L42.3676 44.4366Z" fill="#F0F7EE"/>
<path d="M24.145 66.4943C22.734 66.4943 21.3229 66.2726 19.9388 65.8359C15.0405 64.2837 11.1165 59.4459 10.1759 53.7817C9.46362 49.4948 10.149 45.1475 10.8545 42.2583C11.3181 40.3501 12.0169 38.4015 12.924 36.4597C13.2868 35.687 13.858 34.5581 14.6978 33.6578L15.3429 32.959L15.5781 33.0531C16.418 33.4764 20.0665 35.0352 20.9803 35.2973C22.0419 35.6063 23.0834 36.0162 24.0912 36.4194C24.8908 36.7352 25.7173 37.0711 26.5505 37.3399L27.2627 37.575C30.8239 38.7375 34.5059 39.9335 37.8924 41.5662C39.6595 42.4196 41.131 43.152 42.5421 44.2001C43.2341 44.7108 43.5903 45.2752 43.6642 45.9807L43.6642 46.0479L43.6507 46.1084C42.5622 49.4545 40.9967 52.8611 39.0011 56.2274C37.2339 59.2108 34.6739 62.8996 30.5282 64.9556C28.4654 65.977 26.3086 66.5011 24.1383 66.5011L24.145 66.4943ZM15.4974 33.6779L15.1346 34.0676C14.3552 34.9075 13.8109 35.9826 13.4683 36.715C12.5746 38.6232 11.8892 40.5382 11.4323 42.4061C10.7403 45.2416 10.0684 49.4948 10.7604 53.6876C11.6675 59.1301 15.4235 63.7865 20.1135 65.2714C23.4798 66.3331 27.0006 66.0374 30.2662 64.4181C34.2439 62.4427 36.6561 59.0159 38.4904 55.9184C40.4457 52.6058 41.9844 49.2664 43.0662 45.9807C42.9922 45.4701 42.7235 45.0736 42.186 44.6772C40.8152 43.6626 39.3706 42.9369 37.6304 42.097C34.2775 40.4844 30.6156 39.2884 27.0746 38.1327L26.3623 37.8976C25.5157 37.6221 24.6825 37.2861 23.8695 36.9636C22.8751 36.5672 21.8538 36.1573 20.8123 35.8617C19.9321 35.6063 16.6061 34.1953 15.4974 33.6712L15.4974 33.6779Z" fill="#969696"/>
<g style="mix-blend-mode:multiply">
<path d="M42.3699 44.4341C40.9253 43.3658 39.3665 42.5998 37.7673 41.8271C34.1725 40.0935 30.2284 38.8505 26.4589 37.6142C24.5843 37.0027 22.797 36.1225 20.9022 35.5782C20.1026 35.3498 17.3007 34.1605 15.9771 33.5625C15.6949 34.4293 15.668 35.5379 15.668 36.1427C15.668 37.6142 15.8158 39.0453 16.5683 40.3556C18.3825 43.5337 21.9974 45.2538 23.0859 48.9225C24.2215 52.7457 23.7377 56.8242 22.2595 60.4795C21.5271 62.2869 20.3915 64.2691 21.5607 65.9354C24.5641 66.5267 27.5878 66.09 30.4165 64.6857C34.1457 62.8379 36.6183 59.6933 38.7617 56.0717C40.6364 52.9003 42.2288 49.5407 43.3845 46.0131C43.3173 45.4285 43.0418 44.9313 42.3766 44.4408L42.3699 44.4341Z" fill="#E2E5E6"/>
</g>
<g style="mix-blend-mode:multiply">
<path d="M42.3687 44.434C40.9241 43.3656 39.3653 42.5996 37.7661 41.8269C34.1713 40.0934 30.2272 38.8503 26.4577 37.614C25.087 37.1705 23.7701 36.5792 22.4195 36.082C22.218 37.2041 21.9559 38.3128 21.7812 39.4483C21.2168 43.1976 23.3333 46.5303 24.6167 49.9168C25.5507 52.3894 28.0569 53.5922 29.3739 55.7759C31.4165 59.1624 30.281 63.6642 27.0154 65.8546C28.1644 65.606 29.3 65.2163 30.4019 64.6721C34.131 62.8243 36.6037 59.6797 38.7471 56.0581C40.6217 52.8867 42.2142 49.5271 43.3699 45.9995C43.3027 45.415 43.0272 44.9177 42.362 44.4272L42.3687 44.434Z" fill="#E2E5E6"/>
</g>
<path d="M57.069 7.38009C54.2335 4.7193 52.7486 4.39006 48.9791 3.95331C44.9275 3.48297 42.5691 2.7573 38.0941 2.60948C36.542 2.55573 31.9259 2.69683 30.6358 3.65095C28.9695 4.88728 26.7185 7.50775 25.4218 9.10692C19.9725 15.8126 15.988 23.4792 13.6767 31.8043C12.9846 34.2971 12.5075 36.8705 12.2656 39.4439C12.6621 39.8471 13.1458 40.2166 13.6027 40.6265C16.156 42.9312 20.584 44.3422 23.9771 43.8987C25.6233 43.6837 27.1284 42.6826 28.4454 41.7419C30.0714 40.5728 31.6101 39.2692 32.9943 37.8179C35.2385 35.4595 37.3684 33.0339 39.0146 30.2185C40.4727 27.7324 41.8165 25.1187 43.0528 22.5049C43.8927 21.4097 45.1291 20.4018 46.0496 19.6157C47.2792 18.5608 48.2803 17.2035 49.4024 16.0277C52.0028 13.2997 54.7711 10.7464 57.3311 7.97137C57.5461 7.74292 57.3243 7.41368 57.069 7.36665L57.069 7.38009Z" fill="#2C2829"/>
<path d="M22.6875 44.2877C19.4086 44.2877 15.6794 42.9103 13.4084 40.8543C13.2404 40.6997 13.0657 40.5519 12.891 40.4041C12.6088 40.1622 12.3131 39.9136 12.0578 39.6582L11.957 39.5575L11.9705 39.4164C12.2124 36.8362 12.6894 34.2493 13.3949 31.7229C15.7198 23.3643 19.6841 15.691 25.1938 8.91806C26.4167 7.41297 28.7213 4.70515 30.4616 3.40835C31.9129 2.32656 36.8851 2.29297 37.4428 2.29297C37.6981 2.29297 37.9199 2.29297 38.1013 2.29969C40.9637 2.39375 42.966 2.72299 45.0825 3.07239C46.292 3.26724 47.5417 3.47554 49.0132 3.64352C52.8835 4.0937 54.3885 4.46326 57.2173 7.09717C57.4256 7.16436 57.607 7.33906 57.6809 7.55407C57.7549 7.76908 57.7078 8.00425 57.5533 8.17223C56.1154 9.73108 54.5901 11.2429 53.1186 12.701C51.9629 13.8499 50.7669 15.0325 49.6247 16.2285C49.2215 16.6518 48.8251 17.102 48.4488 17.5455C47.7635 18.3316 47.0579 19.1513 46.2516 19.8367L45.9358 20.1055C45.0959 20.8244 44.0478 21.7114 43.3154 22.652C41.985 25.4741 40.6277 28.061 39.2839 30.3589C37.5638 33.2952 35.3532 35.7746 33.2165 38.0188C31.8928 39.4096 30.3474 40.7467 28.6273 41.9764C27.2969 42.9305 25.738 43.9652 24.0246 44.187C23.6013 44.2407 23.1512 44.2676 22.6943 44.2676L22.6875 44.2877ZM12.5819 39.3357C12.7969 39.544 13.0321 39.7389 13.274 39.9539C13.4487 40.1017 13.6301 40.2562 13.8048 40.4175C15.9751 42.3795 19.543 43.6965 22.6875 43.6965C23.1243 43.6965 23.5476 43.6696 23.944 43.6158C25.5163 43.4075 27.008 42.4198 28.2779 41.506C29.9644 40.2898 31.4829 38.9863 32.7864 37.6156C34.8963 35.3983 37.08 32.9525 38.7665 30.07C40.1103 27.7855 41.4609 25.1919 42.7913 22.3833L42.8249 22.3295C43.5909 21.3284 44.6794 20.4078 45.5461 19.6687L45.8619 19.4C46.6346 18.7415 47.3267 17.9419 47.9986 17.1692C48.3883 16.7257 48.7848 16.2688 49.1946 15.8321C50.3436 14.6294 51.5396 13.4401 52.702 12.2911C54.1735 10.833 55.6921 9.32793 57.1165 7.78252C57.1233 7.74893 57.0762 7.68845 57.0225 7.67502L56.9351 7.66158L56.8679 7.6011C54.0526 4.96047 52.6348 4.67827 48.946 4.25496C47.4611 4.08026 46.2046 3.87869 44.9884 3.67711C42.8921 3.33444 40.9099 3.01192 38.0879 2.91785C37.9132 2.91785 37.6981 2.91113 37.4495 2.91113C34.903 2.91113 31.7382 3.22021 30.8177 3.90557C29.1312 5.15533 26.8669 7.82956 25.6574 9.30777C20.2014 16.0202 16.2707 23.6196 13.9661 31.8976C13.2874 34.3434 12.8171 36.8429 12.5752 39.3492L12.5819 39.3357Z" fill="#161414"/>
<g style="mix-blend-mode:multiply" opacity="0.2">
<path d="M57.0701 7.37753C54.2346 4.71674 52.7497 4.3875 48.9802 3.95075C46.7629 3.69543 45.0495 3.35947 43.2219 3.08398C38.1557 5.08629 33.7277 9.3664 30.946 13.7607C28.8026 17.1405 25.658 23.6715 20.753 23.302C18.7507 23.1541 18.6096 20.8091 18.7238 19.21C16.6006 23.1944 14.9073 27.4074 13.6845 31.8084C12.9924 34.3012 12.5153 36.8747 12.2734 39.4481C12.6699 39.8513 13.1536 40.2208 13.6105 40.6307C16.1638 42.9354 20.5918 44.3464 23.9849 43.9029C25.6311 43.6879 27.1362 42.6867 28.4532 41.7461C30.0792 40.5769 31.6179 39.2734 33.0021 37.8221C35.2463 35.4636 37.3762 33.038 39.0224 30.2227C40.4805 27.7366 41.8243 25.1228 43.0606 22.5091C43.9005 21.4139 45.1369 20.406 46.0574 19.6198C47.287 18.5649 48.2882 17.2077 49.4103 16.0318C52.0106 13.3038 54.7789 10.7505 57.3389 7.97553C57.5539 7.74708 57.3321 7.41784 57.0768 7.37081L57.0701 7.37753Z" fill="#353132"/>
</g>
<g style="mix-blend-mode:multiply" opacity="0.2">
<path d="M57.071 7.37795C54.2355 4.71716 52.7506 4.38792 48.9811 3.95118C48.5309 3.89743 48.1076 3.84367 47.691 3.7832C44.7346 5.0464 41.6706 6.2021 39.03 8.04987C35.2874 10.6636 32.929 14.507 30.752 18.4377C28.9513 21.6831 27.3252 25.607 24.4763 28.1133C22.5076 29.8536 19.5108 31.2982 16.8568 30.3642C15.7817 29.9879 15.1568 29.1615 14.8141 28.1805C14.4043 29.3765 14.0213 30.5859 13.6786 31.8088C12.9865 34.3016 12.5095 36.8751 12.2676 39.4485C12.664 39.8517 13.1478 40.2212 13.6047 40.6311C16.158 42.9358 20.5859 44.3468 23.9791 43.9033C25.6253 43.6883 27.1304 42.6872 28.4473 41.7465C30.0734 40.5773 31.6121 39.2738 32.9962 37.8225C35.2404 35.4641 37.3704 33.0384 39.0166 30.2231C40.4746 27.737 41.8185 25.1233 43.0548 22.5095C43.8947 21.4143 45.131 20.4064 46.0515 19.6203C47.2811 18.5654 48.2823 17.2081 49.4044 16.0322C52.0047 13.3043 54.773 10.751 57.333 7.97596C57.548 7.74751 57.3263 7.41827 57.071 7.37123L57.071 7.37795Z" fill="#353132"/>
</g>
<path d="M59.4367 33.3478C61.0829 30.4115 62.6552 27.4282 63.8848 24.3239C64.4626 22.8659 64.9531 21.3742 65.3025 19.8422C66.0148 16.6909 65.2286 12.5318 63.4749 9.85756C61.5801 6.97504 58.5027 5.08695 55.2238 4.15299C51.3334 3.04433 46.3881 2.69493 42.7194 4.65021C39.5749 6.32328 37.2836 9.34691 35.3888 12.2832C33.83 14.6954 32.4525 17.2352 31.1356 19.7885C28.2665 25.352 25.2227 30.949 23.9595 37.1374C22.5485 44.038 24.4769 51.8523 32.2039 53.6396C34.9857 54.2847 37.4113 54.1234 40.193 53.7673C47.7454 52.8132 52.9057 45.0122 56.2585 38.9717C57.3 37.0971 58.3818 35.2291 59.4367 33.3478Z" fill="#353132"/>
<path d="M36.1347 54.4126C34.7371 54.4126 33.4268 54.2647 32.1233 53.9624C24.2417 52.1348 22.179 44.1591 23.6303 37.0637C24.8129 31.2583 27.5677 25.9435 30.2352 20.7966L30.84 19.6274C31.9285 17.5109 33.4 14.7493 35.1133 12.0953C36.9544 9.24633 39.2725 6.09504 42.5649 4.34806C44.3589 3.39393 46.5426 2.91015 49.0556 2.91015C51.0579 2.91015 53.2282 3.22595 55.3246 3.82396C58.9731 4.86543 61.9699 6.94165 63.7639 9.66963C65.5713 12.4178 66.3575 16.7248 65.6385 19.9096C65.316 21.3543 64.8456 22.8325 64.2073 24.4451C62.9105 27.7106 61.224 30.8619 59.7391 33.5092C59.262 34.3558 58.785 35.2025 58.3079 36.0424C57.7233 37.0704 57.1388 38.1051 56.5676 39.1332C53.2551 45.0931 47.9604 53.1292 40.2468 54.1035C39.0306 54.258 37.5927 54.4126 36.1481 54.4126L36.1347 54.4126ZM49.0489 3.58207C46.6434 3.58207 44.5672 4.03897 42.874 4.93934C39.716 6.61913 37.4583 9.68307 35.671 12.4581C33.9778 15.0853 32.513 17.8334 31.4313 19.9365L30.8265 21.1124C28.1859 26.2189 25.4512 31.4935 24.2821 37.2048C22.8979 43.9844 24.833 51.5905 32.2711 53.3106C33.5209 53.5995 34.7841 53.7406 36.128 53.7406C37.4718 53.7406 38.95 53.5861 40.1393 53.4383C47.5505 52.5043 52.7176 44.6429 55.9562 38.8107C56.5273 37.7759 57.1186 36.7479 57.7032 35.7131C58.1802 34.8732 58.6573 34.0266 59.1344 33.18C60.6059 30.5461 62.2856 27.4217 63.5623 24.1965C64.1872 22.6242 64.6441 21.1728 64.9599 19.7618C65.6452 16.7382 64.8927 12.6529 63.1793 10.0392C61.4726 7.44559 58.617 5.47016 55.123 4.469C53.0871 3.89115 50.984 3.58207 49.0422 3.58207L49.0489 3.58207Z" fill="#232021"/>
<g style="mix-blend-mode:multiply" opacity="0.3">
<path d="M63.4749 9.85118C63.401 9.73695 63.3204 9.63616 63.2398 9.53537C63.9789 13.0293 63.4951 16.6375 62.6417 20.1113C61.6675 24.0622 60.1557 27.9123 58.1802 31.4734C54.9483 37.3124 46.9592 43.1245 40.1863 39.3349C36.6319 37.346 34.8916 33.9595 34.7908 29.9549C34.5086 18.922 41.5839 10.5433 49.4117 3.25968C47.0533 3.21264 44.7016 3.59564 42.7194 4.65054C39.5749 6.32362 37.2836 9.34724 35.3888 12.2835C33.83 14.6957 32.4525 17.2355 31.1356 19.7888C28.2665 25.3523 25.2227 30.9494 23.9595 37.1377C22.5485 44.0383 24.4769 51.8527 32.2039 53.64C34.9857 54.285 37.4113 54.1237 40.193 53.7676C47.7454 52.8135 52.9057 45.0126 56.2585 38.972C57.3 37.0974 58.3818 35.2295 59.4367 33.3481C61.0829 30.4118 62.6552 27.4285 63.8848 24.3243C64.4626 22.8662 64.9531 21.3745 65.3025 19.8426C66.0148 16.6913 65.2286 12.5321 63.4749 9.85789L63.4749 9.85118Z" fill="#2D292A"/>
</g>
<g style="mix-blend-mode:multiply" opacity="0.3">
<path d="M63.9097 22.004C62.2299 26.0893 60.3553 30.1208 58.0506 33.8969C57.4593 34.8712 56.821 35.8724 56.1423 36.8601C54.3483 39.8972 52.131 42.7125 49.8599 45.2255C46.4533 48.9882 40.9705 51.9177 35.7967 49.9893C30.7775 48.1147 29.0776 42.4639 29.5882 37.5118C29.642 37.0079 29.7293 36.5107 29.8368 36.0135C28.6475 30.1544 30.0854 23.9391 32.6858 18.584C35.1047 13.5983 38.3702 9.06291 42.1396 4.98437C39.2907 6.70448 37.1607 9.51981 35.3869 12.2747C33.828 14.6868 32.4506 17.2267 31.1336 19.78C28.2645 25.3434 25.2208 30.9405 23.9576 37.1289C22.5465 44.0294 24.4749 51.8438 32.202 53.6311C34.9837 54.2762 37.4093 54.1149 40.1911 53.7588C47.7434 52.8047 52.9037 45.0037 56.2566 38.9632C57.2981 37.0885 58.3798 35.2206 59.4348 33.3392C61.081 30.403 62.6532 27.4197 63.8828 24.3154C64.4607 22.8573 64.9512 21.3657 65.3006 19.8337C65.4551 19.1417 65.5357 18.3958 65.5559 17.6231C65.0587 19.0946 64.5144 20.5527 63.9164 21.9973L63.9097 22.004Z" fill="#2D292A"/>
</g>
<path d="M57.1719 5.02539C57.1719 5.02539 57.3667 5.29416 57.6691 5.78466C57.9647 6.28187 58.4082 6.98067 58.8584 7.8676C59.3153 8.74781 59.8259 9.78928 60.3164 10.9315C60.5449 11.5094 60.8069 12.094 61.0219 12.7121C61.2437 13.3236 61.4721 13.9484 61.667 14.58C61.8686 15.2116 62.0567 15.85 62.218 16.4816C62.3994 17.1064 62.527 17.738 62.6547 18.3495C62.7958 18.9542 62.8899 19.5455 62.9705 20.1099C63.0578 20.6743 63.1385 21.2051 63.1788 21.7024C63.2325 22.1996 63.2661 22.6498 63.293 23.0529C63.2997 23.4561 63.3132 23.8055 63.3199 24.0944C63.3199 24.6722 63.3266 25.0015 63.3266 25.0015C63.3266 25.0015 63.2796 24.6722 63.1989 24.1011C63.1654 23.8189 63.1183 23.4695 63.0713 23.0731C63.0041 22.6766 62.9302 22.2332 62.8428 21.7494C62.7756 21.2589 62.6614 20.7415 62.5405 20.1905C62.4263 19.6396 62.2986 19.0617 62.1441 18.4637C62.003 17.8657 61.8417 17.2543 61.6603 16.6361C61.4923 16.0112 61.3042 15.3863 61.0959 14.7682C60.7129 13.5184 60.256 12.2888 59.8327 11.1331C59.5975 10.5687 59.4026 10.0043 59.1809 9.48692C58.9659 8.96282 58.7643 8.47232 58.556 8.02214C58.1596 7.12177 57.8236 6.36922 57.5683 5.85185C57.313 5.33447 57.1719 5.03883 57.1719 5.03883L57.1719 5.02539Z" fill="#020202"/>
<path d="M51.7419 3.86914C51.7419 3.86914 52.0242 4.23198 52.4676 4.89717C52.9044 5.56909 53.5293 6.52321 54.1877 7.72594C54.5237 8.32395 54.8664 8.98242 55.2225 9.68122C55.592 10.38 55.928 11.1326 56.2841 11.9187C56.6066 12.7116 56.9695 13.5246 57.2785 14.3712C57.5876 15.2178 57.9236 16.0711 58.1924 16.9514C58.3267 17.3881 58.4611 17.8248 58.5955 18.2616C58.7097 18.7051 58.8239 19.1418 58.9382 19.5785C59.0457 20.0153 59.1666 20.4453 59.2607 20.8821C59.348 21.3188 59.4354 21.7421 59.516 22.1654C59.5967 22.5887 59.6974 22.9986 59.7512 23.4085C59.805 23.8183 59.852 24.2215 59.9057 24.6112C59.9528 25.0009 59.9998 25.3839 60.0468 25.7467C60.0939 26.1163 60.1006 26.4724 60.1275 26.8151C60.1745 27.5004 60.2081 28.1253 60.2283 28.683C60.2148 29.2407 60.2081 29.7245 60.2014 30.1276C60.1745 30.9272 60.1678 31.3841 60.1678 31.3841C60.1678 31.3841 60.1409 30.9272 60.0872 30.1344C60.067 29.7379 60.0401 29.2541 60.0132 28.7032C59.9528 28.1522 59.8789 27.534 59.7982 26.8554C59.7579 26.5194 59.731 26.1633 59.6706 25.8005C59.6101 25.4377 59.5429 25.0681 59.4757 24.6784C59.4085 24.2954 59.3413 23.899 59.2741 23.4958C59.1868 23.0927 59.0994 22.6895 59.0121 22.2729C58.9247 21.8563 58.8307 21.433 58.7366 21.0097C58.6358 20.5864 58.5081 20.1564 58.3939 19.7264C58.273 19.2963 58.1587 18.8596 58.0378 18.4296C57.8967 17.9995 57.7623 17.5695 57.6212 17.1395C57.3726 16.266 57.0501 15.4194 56.7544 14.5728C56.4588 13.7329 56.1094 12.9199 55.8003 12.127C55.4442 11.3543 55.1553 10.5816 54.8193 9.87607C54.4968 9.16384 54.1877 8.49193 53.8786 7.8872C53.2739 6.66431 52.7498 5.65644 52.3534 4.96436C51.9637 4.26557 51.7285 3.87586 51.7285 3.87586L51.7419 3.86914Z" fill="#020202"/>
<path d="M48.6845 6.5575C48.6845 6.5575 48.9935 6.94721 49.4706 7.66616C49.699 8.03572 50.0014 8.47246 50.3038 8.99656C50.6196 9.51393 50.9555 10.1052 51.3049 10.7637C51.661 11.4222 52.0037 12.1478 52.38 12.9138C52.7294 13.6933 53.1258 14.5063 53.4483 15.3798C53.6163 15.8165 53.791 16.2533 53.9657 16.7034C54.127 17.1536 54.2815 17.6172 54.4428 18.0741C54.7854 18.9947 55.0408 19.9555 55.3364 20.9029C55.6119 21.857 55.8135 22.8313 56.0554 23.7787C56.2704 24.7328 56.4317 25.687 56.6131 26.594C56.781 27.5079 56.8684 28.4082 56.9826 29.2548C57.1103 30.1015 57.1372 30.9078 57.2044 31.6469C57.2514 32.386 57.332 33.0646 57.3186 33.676C57.3186 34.2808 57.332 34.8049 57.332 35.2416C57.332 36.1084 57.332 36.6056 57.332 36.6056C57.332 36.6056 57.2917 36.1151 57.2178 35.2483C57.1842 34.8183 57.1439 34.2942 57.0968 33.6962C57.0633 33.0982 56.9423 32.4263 56.8684 31.6872C56.7743 30.9548 56.7139 30.1552 56.5526 29.322C56.4048 28.4889 56.2771 27.6019 56.1024 26.6948C55.9075 25.7945 55.7396 24.8538 55.5111 23.9064C55.2625 22.9724 55.0475 22.0049 54.7653 21.0642C54.4831 20.1235 54.2412 19.1627 53.9187 18.2488C53.7641 17.7919 53.6163 17.335 53.4618 16.8849C53.2938 16.4414 53.1325 15.9979 52.9646 15.5679C52.6488 14.7011 52.2927 13.8814 51.9836 13.0885C51.6476 12.3091 51.3251 11.5767 51.0026 10.9115C50.68 10.2463 50.3844 9.63488 50.1089 9.09734C49.8402 8.55981 49.5781 8.10291 49.3698 7.71992C48.9465 6.96737 48.6777 6.55078 48.6777 6.55078L48.6845 6.5575Z" fill="#020202"/>
<path d="M45.8485 8.94141C45.8485 8.94141 46.1576 9.36471 46.6347 10.1374C46.8766 10.5204 47.1588 11.0042 47.4813 11.5484C47.7904 12.1061 48.1599 12.7176 48.5093 13.4231C48.8721 14.1152 49.2484 14.8744 49.6314 15.6874C50.0346 16.4937 50.3974 17.3672 50.7804 18.2676C51.1365 19.1814 51.5195 20.1154 51.8622 21.0897C52.1914 22.0639 52.561 23.0449 52.8432 24.0528C52.9843 24.5567 53.1321 25.0607 53.2732 25.5579C53.4076 26.0618 53.5151 26.5658 53.636 27.0697C53.7503 27.5737 53.8712 28.0709 53.9854 28.5614C54.0728 29.0586 54.1601 29.5491 54.2475 30.0329C54.3281 30.5166 54.4289 30.987 54.4961 31.4573C54.5498 31.9277 54.5969 32.3846 54.6439 32.8348C54.7447 33.7284 54.8388 34.5683 54.8522 35.3544C54.8858 36.1406 54.9127 36.8528 54.9261 37.4911C54.8992 38.1295 54.8791 38.6804 54.8589 39.1373C54.8119 40.0444 54.7917 40.5685 54.7917 40.5685C54.7917 40.5685 54.7716 40.0444 54.7447 39.1373C54.7313 38.6804 54.7178 38.1295 54.7044 37.4979C54.6506 36.8663 54.5834 36.154 54.5162 35.3813C54.4759 34.6019 54.3416 33.7687 54.2072 32.8885C54.14 32.445 54.0728 31.9949 54.0056 31.5312C53.9182 31.0743 53.8242 30.604 53.7301 30.1269C53.636 29.6499 53.542 29.1661 53.4479 28.6756C53.327 28.1918 53.206 27.7013 53.0851 27.2041C52.9574 26.7136 52.8499 26.2097 52.7088 25.7124C52.561 25.2152 52.4131 24.7247 52.2653 24.2275C52.0033 23.2264 51.6472 22.2521 51.3381 21.2778C51.0088 20.3102 50.646 19.3763 50.3033 18.4625C49.9203 17.5688 49.6045 16.6819 49.235 15.8689C48.8856 15.0491 48.5429 14.2764 48.2069 13.5776C47.5417 12.1666 46.9639 11.0042 46.5272 10.2046C46.1038 9.39831 45.8418 8.94813 45.8418 8.94813L45.8485 8.94141Z" fill="#020202"/>
<path d="M42.9395 12.2949C42.9395 12.2949 43.2485 12.7317 43.7458 13.5245C44.2363 14.3174 44.935 15.4596 45.6809 16.8774C46.0504 17.5896 46.4536 18.3556 46.85 19.1888C47.2599 20.0085 47.6563 20.8955 48.0527 21.816C48.4559 22.7365 48.812 23.7108 49.2084 24.6851C49.5511 25.6795 49.9341 26.6807 50.2499 27.702C50.5388 28.73 50.8815 29.7513 51.1032 30.7793C51.3518 31.8074 51.6072 32.8085 51.7684 33.803C51.9566 34.7907 52.1313 35.7448 52.2052 36.6653C52.2858 37.5859 52.4336 38.4392 52.4404 39.2455C52.4739 40.0451 52.4941 40.7842 52.5075 41.4359C52.4941 42.0877 52.4471 42.6521 52.4269 43.1224C52.3664 44.0564 52.3396 44.5872 52.3396 44.5872C52.3396 44.5872 52.3328 44.0564 52.3127 43.1224C52.306 42.6588 52.3127 42.0944 52.2858 41.4427C52.2321 40.7976 52.1716 40.0719 52.1044 39.2724C52.0708 38.4795 51.8961 37.6262 51.7751 36.7258C51.6676 35.8187 51.4526 34.8848 51.2645 33.9038C51.0965 32.9228 50.821 31.9283 50.5657 30.9204C50.3305 29.9059 49.9811 28.898 49.6788 27.8834C49.3764 26.8688 49.0069 25.8676 48.6843 24.8799C48.3013 23.9056 47.9654 22.9314 47.5757 22.0176C47.186 21.1037 46.8366 20.2034 46.4536 19.3702C46.0907 18.5303 45.7212 17.7509 45.3785 17.0319C44.6864 15.594 44.0951 14.4047 43.645 13.585C43.2082 12.7585 42.9395 12.3016 42.9395 12.3016L42.9395 12.2949Z" fill="#020202"/>
<path d="M40.2598 15.7294C40.2598 15.7294 40.5621 16.1728 41.0392 16.9791C41.2811 17.3823 41.5566 17.8795 41.8724 18.4439C42.1814 19.0218 42.5376 19.6601 42.8802 20.3858C43.2431 21.1047 43.6059 21.8908 43.9822 22.7307C44.3719 23.5639 44.728 24.471 45.1043 25.3983C45.4402 26.3457 45.83 27.3065 46.1525 28.3144C46.4817 29.3155 46.8244 30.3301 47.1066 31.3649C47.2477 31.8822 47.3888 32.3996 47.5232 32.917C47.6374 33.4344 47.7583 33.9585 47.8726 34.4691C47.9868 34.9865 48.1145 35.4904 48.2085 36.0011C48.2959 36.5118 48.3832 37.0157 48.4706 37.5062C48.5512 38.0034 48.6587 38.4872 48.7125 38.9642C48.7662 39.448 48.8133 39.9184 48.867 40.3753C48.9141 40.8322 48.9611 41.2756 49.0081 41.7057C49.0484 42.1357 49.0552 42.559 49.082 42.9554C49.1223 43.755 49.1559 44.4941 49.1694 45.1459C49.1492 45.7976 49.1358 46.3688 49.1223 46.8324C49.0888 47.7664 49.0686 48.2972 49.0686 48.2972C49.0686 48.2972 49.0417 47.7664 49.0081 46.8324C48.988 46.3688 48.9745 45.7976 48.9476 45.1526C48.8872 44.5076 48.82 43.7752 48.7528 42.9823C48.7125 42.5859 48.6923 42.1693 48.6318 41.746C48.5714 41.3227 48.5042 40.8792 48.437 40.429C48.3698 39.9788 48.3026 39.5152 48.2354 39.0382C48.1481 38.5678 48.0607 38.084 47.9667 37.5935C47.8726 37.103 47.7785 36.6058 47.6844 36.1019C47.5836 35.5979 47.4493 35.094 47.335 34.5901C47.2141 34.0794 47.0932 33.5688 46.9655 33.0514C46.8244 32.5407 46.6766 32.0301 46.5287 31.5194C46.2667 30.4914 45.9375 29.4768 45.6217 28.4823C45.3126 27.4812 44.943 26.5204 44.6205 25.5797C44.251 24.6524 43.9352 23.7386 43.579 22.8987C43.2364 22.0521 42.9071 21.2525 42.5712 20.5269C41.9261 19.0688 41.355 17.8594 40.9317 17.0262C40.5151 16.193 40.2598 15.7227 40.2598 15.7227L40.2598 15.7294Z" fill="#020202"/>
<path d="M37.5703 19.6797C37.5703 19.6797 37.8592 20.1097 38.3161 20.9026C38.5379 21.299 38.8134 21.7828 39.1023 22.3472C39.3979 22.9049 39.7204 23.5432 40.0497 24.2554C40.3924 24.9542 40.7082 25.7404 41.0777 26.5601C41.4002 27.3933 41.7899 28.2601 42.0923 29.1873C42.4215 30.1078 42.7508 31.062 43.0464 32.0429C43.3689 33.0172 43.6377 34.0251 43.9132 35.033C44.1954 36.0341 44.3768 37.0622 44.612 38.0633C44.8404 39.0645 44.9748 40.0656 45.1562 41.0265C45.3444 41.9873 45.4049 42.928 45.5258 43.8149C45.6467 44.7019 45.6938 45.5485 45.7475 46.3279C45.7946 47.1073 45.8618 47.8195 45.8618 48.4511C45.8618 49.0827 45.8618 49.6404 45.8685 50.0906C45.8685 50.9977 45.8685 51.5218 45.8685 51.5218C45.8685 51.5218 45.8282 51.0044 45.7543 50.0973C45.7207 49.6472 45.6871 49.0962 45.64 48.4646C45.5997 47.833 45.4855 47.1275 45.4116 46.3548C45.3309 45.5821 45.2503 44.7422 45.0958 43.8687C44.948 42.9885 44.8404 42.0612 44.6523 41.1071C44.4642 40.1597 44.3096 39.1653 44.0745 38.1775C43.8326 37.1898 43.6377 36.1752 43.3488 35.1808C43.0935 34.1796 42.8381 33.1785 42.5291 32.2042C42.2536 31.2232 41.9311 30.2758 41.622 29.3553C41.3196 28.4348 40.9836 27.5613 40.688 26.7214C40.3588 25.8949 40.0698 25.1021 39.7608 24.3898C39.4584 23.6709 39.1829 23.0191 38.9209 22.4413C38.6655 21.8634 38.4237 21.3662 38.2355 20.9563C37.8391 20.1433 37.5972 19.6797 37.5972 19.6797L37.5703 19.6797Z" fill="#020202"/>
<path d="M35.6367 23.3348C35.6367 23.3348 35.8988 23.7447 36.3086 24.4838C36.5102 24.8601 36.7521 25.3103 37.0141 25.8411C37.2829 26.3719 37.5718 26.9699 37.8608 27.6418C38.1698 28.307 38.4453 29.0394 38.7679 29.8121C39.0568 30.5983 39.3927 31.4113 39.6548 32.2848C39.937 33.1515 40.2259 34.0519 40.4678 34.9724C40.7433 35.893 40.965 36.8336 41.1868 37.781C41.4219 38.7284 41.5563 39.6893 41.7377 40.63C41.9191 41.5707 42.0065 42.5113 42.1409 43.4117C42.282 44.3121 42.3021 45.199 42.376 46.0255C42.45 46.8586 42.4634 47.6448 42.4768 48.3772C42.4903 49.1028 42.5171 49.7748 42.4903 50.366C42.4634 50.9573 42.4432 51.4747 42.4231 51.898C42.376 52.7446 42.3492 53.2284 42.3492 53.2284C42.3492 53.2284 42.3357 52.7446 42.3089 51.898C42.3021 51.4747 42.2887 50.964 42.2753 50.3728C42.2618 49.7815 42.1879 49.123 42.1476 48.3973C42.1006 47.6717 42.0602 46.8922 41.9527 46.0658C41.8452 45.246 41.7848 44.3725 41.6369 43.4789C41.4891 42.5852 41.395 41.658 41.2002 40.724C41.0121 39.7968 40.8575 38.8427 40.6156 37.9087C40.4073 36.968 40.199 36.0273 39.9437 35.1135C39.7153 34.193 39.4398 33.2994 39.171 32.4326C38.909 31.5658 38.62 30.7394 38.3647 29.9532C38.0758 29.1738 37.8339 28.428 37.5584 27.7628C37.041 26.4122 36.564 25.2968 36.2146 24.5309C35.8652 23.7582 35.6434 23.3281 35.6434 23.3281L35.6367 23.3348Z" fill="#020202"/>
<path d="M33.9902 26.3923C33.9902 26.3923 34.1985 26.7821 34.521 27.4741C34.8436 28.1729 35.3005 29.1674 35.7977 30.3902C36.0329 31.0084 36.3083 31.6669 36.5637 32.3724C36.8257 33.0779 37.1012 33.8237 37.3498 34.6166C37.6119 35.396 37.8538 36.2158 38.0956 37.0422C38.351 37.8687 38.5458 38.7287 38.781 39.5753C38.9759 40.4354 39.1506 41.2955 39.3253 42.1421C39.4664 42.9954 39.6209 43.8353 39.7351 44.655C39.8292 45.4748 39.9367 46.2676 39.977 47.0202C40.0106 47.7794 40.0509 48.4917 40.0711 49.1502C40.0644 49.8086 40.0442 50.4134 40.024 50.9509C40.024 51.4884 39.9233 51.952 39.8964 52.335C39.8023 53.0943 39.7486 53.5311 39.7486 53.5311C39.7486 53.5311 39.762 53.0943 39.7822 52.3283C39.7822 51.9453 39.8426 51.4817 39.8023 50.9509C39.7754 50.4201 39.7553 49.8221 39.7351 49.1636C39.6881 48.5118 39.6142 47.8063 39.547 47.0605C39.4664 46.3147 39.3252 45.5352 39.2245 44.7289C39.1035 43.9226 38.9288 43.0962 38.781 42.2496C38.5929 41.4097 38.4114 40.5631 38.2032 39.7097C37.9881 38.8631 37.8067 38.0098 37.5648 37.19C37.3364 36.3636 37.1146 35.5438 36.866 34.7644C36.6241 33.985 36.389 33.2257 36.1672 32.5068C35.9455 31.7878 35.7036 31.1226 35.502 30.4978C35.0653 29.2614 34.7159 28.2267 34.4337 27.5077C34.1649 26.7888 34.0104 26.3789 34.0104 26.3789L33.9902 26.3923Z" fill="#020202"/>
<path d="M32.3496 30.1211C32.3496 30.1211 32.5512 30.4436 32.8535 31.0349C33.0014 31.3305 33.2029 31.6867 33.3911 32.11C33.5859 32.5333 33.8077 33.0103 34.0361 33.5344C34.2579 34.0652 34.4729 34.6431 34.7148 35.2545C34.9566 35.866 35.212 36.511 35.4068 37.1964C35.6218 37.8817 35.8369 38.5872 36.0653 39.3062C36.2938 40.0251 36.4349 40.7777 36.6297 41.5168C36.8044 42.2626 36.9724 43.0017 37.1404 43.7408C37.2748 44.48 37.3756 45.2123 37.4898 45.9246C37.5906 46.6301 37.6914 47.3154 37.7921 47.9672C37.9064 48.6122 37.8996 49.2371 37.9601 49.8082C38.0475 50.9505 38.0811 51.9046 38.1214 52.5698C38.1482 53.235 38.1684 53.618 38.1684 53.618C38.1684 53.618 38.1079 53.2417 38.0071 52.5833C37.9198 51.9248 37.7653 50.9841 37.6309 49.8553C37.5435 49.2909 37.5166 48.6727 37.3688 48.0344C37.2479 47.3961 37.1135 46.7174 36.9791 46.0186C36.8515 45.3198 36.7171 44.6009 36.5827 43.8685C36.408 43.1428 36.2333 42.4037 36.0519 41.6713C35.8705 40.939 35.7361 40.1864 35.5143 39.4742C35.306 38.7552 35.1112 38.0497 34.9096 37.3711C34.7282 36.6857 34.5132 36.034 34.3049 35.4158C34.0966 34.7976 33.9152 34.2063 33.727 33.6755C33.5187 33.1447 33.344 32.6542 33.1895 32.2175C33.0417 31.7807 32.8737 31.4112 32.7528 31.1021C32.5109 30.4839 32.3496 30.1345 32.3496 30.1345L32.3496 30.1211Z" fill="#020202"/>
<path d="M30.7841 33.5488C30.7841 33.5488 30.9453 33.831 31.1805 34.3484C31.2947 34.6105 31.456 34.9195 31.6105 35.2824C31.7651 35.6452 31.9465 36.0551 32.1279 36.512C32.316 36.9622 32.484 37.4661 32.6789 37.9902C32.867 38.5143 33.0955 39.0653 33.2634 39.6498C33.4381 40.2344 33.6263 40.8391 33.8144 41.4506C34.0093 42.062 34.1571 42.6936 34.3116 43.3252C34.4594 43.9568 34.614 44.5951 34.7618 45.2133C34.9163 45.8382 34.9903 46.4631 35.1045 47.0611C35.2053 47.6658 35.2993 48.2436 35.3934 48.7946C35.4942 49.3456 35.5345 49.8764 35.5883 50.3602C35.6891 51.3345 35.7428 52.1408 35.7898 52.7119C35.8302 53.2763 35.8503 53.6055 35.8503 53.6055C35.8503 53.6055 35.7831 53.283 35.6756 52.7253C35.5748 52.1676 35.4069 51.3681 35.2523 50.4139C35.1717 49.9369 35.0978 49.4128 34.9634 48.8752C34.8424 48.331 34.7215 47.7599 34.5871 47.1686C34.4594 46.5773 34.3452 45.9591 34.1974 45.341C34.0429 44.7228 33.8883 44.0979 33.7338 43.473C33.586 42.8414 33.4449 42.2098 33.2567 41.6051C33.0887 40.9937 32.9208 40.3889 32.7595 39.8044C32.605 39.2198 32.4235 38.6621 32.269 38.1246C32.1077 37.5938 31.9666 37.0831 31.8121 36.6262C31.6508 36.1693 31.5232 35.7393 31.4022 35.363C31.288 34.9867 31.1671 34.6642 31.073 34.3954C30.8849 33.8579 30.7773 33.5488 30.7773 33.5488L30.7841 33.5488Z" fill="#020202"/>
<path d="M29.5215 38.3184C29.5215 38.3184 29.6693 38.5065 29.8776 38.8626C30.0993 39.2187 30.3815 39.7361 30.7041 40.3744C30.8586 40.6969 30.9997 41.0531 31.1677 41.4293C31.3289 41.8056 31.5104 42.202 31.638 42.6253C31.7791 43.0487 31.9269 43.4854 32.0748 43.9356C32.2293 44.379 32.3099 44.8494 32.4376 45.313C32.5451 45.7766 32.6526 46.2403 32.7534 46.6972C32.834 47.1608 32.8878 47.6177 32.9483 48.0612C33.0154 48.5046 33.0558 48.9346 33.1028 49.3378C33.1633 49.7409 33.1431 50.1307 33.1633 50.4868C33.1901 51.199 33.1767 51.797 33.1834 52.2069C33.1834 52.6235 33.1767 52.8586 33.1767 52.8586C33.1767 52.8586 33.1297 52.6235 33.0692 52.2136C33.0155 51.8037 32.9079 51.2192 32.8273 50.5204C32.7736 50.171 32.7668 49.788 32.666 49.3915C32.5854 48.9951 32.4981 48.5785 32.4242 48.1418C32.3435 47.7118 32.2629 47.2616 32.1823 46.8114C32.0748 46.3612 31.9605 45.911 31.8463 45.4541C31.7321 44.9972 31.6582 44.5336 31.5104 44.0968C31.3827 43.6534 31.255 43.2166 31.1341 42.7933C31.0199 42.37 30.8855 41.9669 30.7578 41.5839C30.6301 41.2009 30.5159 40.838 30.395 40.5088C30.2606 40.1796 30.1531 39.8772 30.0523 39.6084C29.9582 39.333 29.8507 39.1112 29.7768 38.9164C29.6223 38.5334 29.5215 38.3184 29.5215 38.3184Z" fill="#020202"/>
<path d="M44.5059 10.5079C44.5059 10.5079 45.3525 10.1854 46.6291 9.72176C47.9058 9.27157 49.6057 8.66685 51.3057 8.06884C51.729 7.9143 52.159 7.7732 52.5689 7.61194C52.9855 7.4574 53.3886 7.30286 53.785 7.15504C54.5712 6.85267 55.3036 6.57047 55.915 6.29498C56.2241 6.1606 56.5063 6.03965 56.7549 5.91871C57.0035 5.79776 57.2252 5.7037 57.3865 5.59619C57.7292 5.40133 57.9307 5.28711 57.9307 5.28711C57.9307 5.28711 57.7628 5.43493 57.4537 5.69026C57.3059 5.82464 57.0976 5.95231 56.8691 6.10685C56.6407 6.26811 56.3786 6.43609 56.0763 6.59735C55.7806 6.77204 55.4581 6.94674 55.102 7.11472C54.7526 7.29614 54.383 7.47084 53.9866 7.63882C53.2072 7.98821 52.3606 8.31073 51.5072 8.62653C50.6472 8.9289 49.7871 9.2111 48.9741 9.44627C48.1611 9.68144 47.3951 9.88974 46.7299 10.0443C46.0714 10.2055 45.5137 10.313 45.124 10.3937C44.7343 10.4676 44.5126 10.5012 44.5126 10.5012L44.5059 10.5079Z" fill="#020202"/>
<path d="M60.9136 7.15625C60.9136 7.15625 60.8465 7.21 60.7255 7.31079C60.5978 7.39814 60.4097 7.53252 60.1678 7.7005C59.9192 7.84832 59.6101 8.03646 59.2607 8.24475C58.9181 8.46649 58.5015 8.66134 58.0513 8.88979C57.6011 9.11824 57.1173 9.36685 56.5932 9.58859C56.0691 9.81704 55.5114 10.0589 54.9403 10.3143C54.3625 10.5629 53.7577 10.7779 53.1396 11.013C52.5214 11.2415 51.8965 11.47 51.2716 11.7051C50.0017 12.1217 48.7318 12.5249 47.5358 12.8877C46.9378 13.0826 46.3599 13.2371 45.8022 13.3782C45.2446 13.5193 44.7205 13.6537 44.2367 13.7813C43.2691 14.0367 42.4561 14.2114 41.8917 14.3525C41.3206 14.4801 40.998 14.5541 40.998 14.5541C40.998 14.5541 41.3138 14.4398 41.8581 14.245C42.4091 14.0568 43.1952 13.7679 44.1426 13.4655C44.6197 13.311 45.1303 13.143 45.6746 12.9683C46.2188 12.8003 46.79 12.5988 47.3745 12.3972C48.5504 11.9873 49.8136 11.5775 51.0701 11.1542C51.695 10.9324 52.3198 10.7107 52.938 10.489C53.5494 10.2605 54.1676 10.0791 54.7455 9.84391C55.33 9.62218 55.8877 9.40717 56.4185 9.20559C56.9561 9.01746 57.4533 8.79573 57.9035 8.60087C58.3537 8.39258 58.7904 8.24475 59.1532 8.06334C59.5161 7.88864 59.8386 7.74082 60.1006 7.61315C60.356 7.47877 60.5575 7.37126 60.6986 7.29735C60.833 7.21672 60.9002 7.16969 60.9002 7.16969L60.9136 7.15625Z" fill="#020202"/>
<path d="M38.3904 18.1887C38.3904 18.1887 38.7801 18.0745 39.4722 17.8796C40.1575 17.678 41.1385 17.3891 42.3077 17.0464C43.4835 16.697 44.8408 16.2737 46.2921 15.7967C47.0245 15.5682 47.7636 15.2995 48.5229 15.0508C49.2822 14.7955 50.0481 14.5133 50.8141 14.2445C51.5734 13.9623 52.3394 13.6734 53.0852 13.3912C53.8243 13.0821 54.5701 12.8201 55.2689 12.5177C55.9677 12.2086 56.6598 11.9466 57.2914 11.6509C57.923 11.3553 58.5345 11.0933 59.0787 10.8245C59.623 10.5423 60.1202 10.3004 60.5704 10.0787C61.0205 9.86365 61.3834 9.6352 61.6992 9.46722C62.3308 9.12454 62.6869 8.92969 62.6869 8.92969C62.6869 8.92969 62.3509 9.15814 61.7596 9.56801C61.4573 9.76286 61.1079 10.0249 60.6779 10.2735C60.2478 10.5288 59.764 10.8178 59.2332 11.1201C58.6957 11.4158 58.0977 11.7114 57.4728 12.0407C56.8479 12.3699 56.1693 12.6723 55.4705 12.9948C54.0729 13.6264 52.541 14.2244 51.009 14.7955C49.4636 15.3398 47.9115 15.8571 46.4332 16.2805C44.9617 16.7239 43.5709 17.0532 42.3816 17.3555C39.9963 17.9266 38.377 18.1753 38.377 18.1753L38.3904 18.1887Z" fill="#020202"/>
<path d="M36.7517 21.3193C36.7517 21.3193 37.2019 21.2252 37.9813 21.0572C38.7675 20.896 39.8761 20.6272 41.2065 20.3181C41.8717 20.1501 42.5974 19.9889 43.3499 19.7806C44.1092 19.579 44.9021 19.364 45.7285 19.1423C46.555 18.9273 47.4016 18.6719 48.2617 18.4166C49.1217 18.168 49.9818 17.8589 50.8485 17.5834C51.7086 17.2878 52.5686 16.9854 53.4152 16.6965C54.2484 16.3673 55.0749 16.0649 55.861 15.7357C56.6337 15.3795 57.4064 15.0906 58.1187 14.7547C58.8242 14.412 59.4961 14.1029 60.1008 13.7938C60.6921 13.4579 61.2431 13.1622 61.7336 12.9002C62.2308 12.6516 62.6205 12.3559 62.9632 12.1476C63.6418 11.7243 64.0315 11.4824 64.0315 11.4824C64.0315 11.4824 63.6687 11.7579 63.0304 12.2417C62.7011 12.4701 62.3316 12.7994 61.8545 13.0816C61.3842 13.3839 60.8534 13.7199 60.2621 14.0827C59.6641 14.4187 58.9989 14.7681 58.3068 15.1444C57.608 15.5139 56.8487 15.8499 56.0626 16.2127C55.2765 16.5621 54.4433 16.8779 53.6101 17.2206C52.7635 17.5364 51.9034 17.8522 51.0367 18.1546C50.1565 18.4233 49.2897 18.719 48.4162 18.9541C47.5494 19.2027 46.6961 19.4446 45.8562 19.6462C45.0297 19.8679 44.2167 20.0426 43.444 20.2106C42.678 20.3853 41.9389 20.513 41.267 20.6541C38.5659 21.158 36.7383 21.326 36.7383 21.326L36.7517 21.3193Z" fill="#020202"/>
<path d="M34.8153 24.7525C34.8153 24.7525 35.3193 24.7122 36.2062 24.6047C37.0864 24.5174 38.3429 24.3225 39.8413 24.0941C40.5871 23.9664 41.4001 23.8387 42.2534 23.6573C43.1068 23.4961 44.0004 23.2878 44.9209 23.0862C45.8482 22.8981 46.7889 22.6158 47.7497 22.3807C48.7038 22.1052 49.6714 21.8095 50.6322 21.5005C51.5796 21.1578 52.5539 20.8756 53.4677 20.4926C54.3815 20.1029 55.3088 19.7871 56.1487 19.3503C56.9953 18.927 57.8419 18.5843 58.5877 18.1342C58.964 17.9259 59.3336 17.7176 59.6897 17.5227C60.0525 17.3279 60.3952 17.133 60.6975 16.9113C61.3224 16.488 61.907 16.1117 62.4244 15.7757C62.9283 15.4263 63.3314 15.0702 63.6876 14.8015C64.3864 14.2572 64.7895 13.9414 64.7895 13.9414C64.7895 13.9414 64.4132 14.2841 63.7615 14.8888C63.4255 15.1777 63.0425 15.5674 62.5587 15.9504C62.0615 16.32 61.5038 16.7433 60.879 17.1868C60.5766 17.4219 60.2406 17.6302 59.8845 17.8452C59.5351 18.0603 59.1656 18.282 58.796 18.5104C58.0636 18.9942 57.217 19.3772 56.3637 19.814C55.5171 20.2641 54.5898 20.6068 53.6693 21.01C52.7488 21.4131 51.7678 21.7088 50.8136 22.0716C49.8394 22.374 48.8584 22.6562 47.8908 22.9249C46.9165 23.1534 45.9624 23.4221 45.0284 23.6036C44.0945 23.8119 43.1874 23.9731 42.3206 24.1008C41.4606 24.2486 40.6341 24.3427 39.8816 24.4435C38.3698 24.6249 37.0998 24.6988 36.2062 24.7391C35.3193 24.7794 34.8086 24.7727 34.8086 24.7727L34.8153 24.7525Z" fill="#020202"/>
<path d="M32.9473 28.9987C32.9473 28.9987 33.4848 28.9315 34.4255 28.7837C35.3662 28.6493 36.7033 28.4075 38.3024 28.1051C39.102 27.9505 39.9688 27.7826 40.8759 27.5676C41.7897 27.3794 42.7371 27.1241 43.7315 26.8956C44.7192 26.6605 45.7271 26.3715 46.7619 26.0961C47.7765 25.7735 48.8246 25.4913 49.846 25.1352C50.8673 24.7858 51.9088 24.4767 52.8965 24.0803C53.8909 23.704 54.8786 23.3412 55.7992 22.9179C56.7264 22.508 57.6402 22.1452 58.4667 21.7152C59.2998 21.2986 60.1128 20.9559 60.8049 20.5326C61.5171 20.1362 62.1689 19.7733 62.7468 19.4575C63.3112 19.1148 63.7882 18.7923 64.1914 18.5437C64.9977 18.0331 65.4546 17.7441 65.4546 17.7441C65.4546 17.7441 65.0178 18.0667 64.2519 18.6378C63.8689 18.9133 63.4052 19.2694 62.861 19.6457C62.2966 19.9951 61.6583 20.3915 60.9662 20.8282C60.2808 21.2784 59.4745 21.6547 58.6548 22.1049C57.8351 22.5685 56.9347 22.9784 56.0007 23.3882C55.0735 23.825 54.0858 24.2013 53.0846 24.5977C52.0902 25.0143 51.0487 25.3368 50.0207 25.6996C48.9859 26.0423 47.931 26.3178 46.903 26.6336C45.8615 26.8956 44.8402 27.1778 43.8458 27.3996C42.8513 27.628 41.8838 27.8363 40.9565 27.9909C40.036 28.1656 39.1625 28.3067 38.3562 28.4343C36.7436 28.6897 35.3863 28.8173 34.4389 28.898C33.4915 28.9853 32.9473 28.9987 32.9473 28.9987Z" fill="#020202"/>
<path d="M31.1621 32.8012C31.1621 32.8012 31.7131 32.7743 32.6739 32.687C33.1577 32.6534 33.7356 32.5795 34.4075 32.5123C35.0727 32.4182 35.8252 32.3443 36.645 32.2234C37.4647 32.1158 38.3516 31.9747 39.2789 31.8068C40.2128 31.6589 41.1871 31.4305 42.2017 31.2491C43.2096 31.0341 44.251 30.7989 45.2992 30.5368C46.3407 30.2412 47.4158 29.9993 48.4573 29.6432C49.5122 29.3207 50.5671 29.0116 51.5749 28.6286C52.0856 28.4472 52.5895 28.2658 53.0867 28.0843C53.5772 27.8828 54.061 27.6812 54.5381 27.4796C55.0151 27.2848 55.4788 27.0832 55.9424 26.8951C56.3926 26.68 56.8293 26.4717 57.2526 26.2702C58.106 25.8603 58.919 25.4907 59.6312 25.0674C60.3569 24.6643 61.0154 24.3015 61.6066 23.9722C62.1711 23.6094 62.6616 23.2869 63.0647 23.0248C63.8777 22.5074 64.3481 22.2051 64.3481 22.2051C64.3481 22.2051 63.9046 22.5343 63.1319 23.1189C62.7422 23.4078 62.2651 23.7572 61.7276 24.1536C61.1565 24.5097 60.5114 24.9129 59.7992 25.3496C59.1004 25.8065 58.2941 26.2097 57.4542 26.6532C57.0309 26.8749 56.5941 27.0966 56.1507 27.3318C55.6938 27.5334 55.2234 27.7349 54.7464 27.95C54.2693 28.1583 53.7855 28.3665 53.2883 28.5748C52.7844 28.763 52.2805 28.9511 51.7698 29.1393C50.7552 29.5424 49.6936 29.8716 48.6319 30.2009C47.577 30.5436 46.4885 30.7787 45.4336 31.0609C44.372 31.3095 43.3171 31.538 42.3025 31.7396C41.2812 31.921 40.2935 32.1091 39.3461 32.2166C38.4054 32.351 37.5117 32.4585 36.6853 32.5324C35.8588 32.6332 35.0995 32.6601 34.4276 32.7139C33.7557 32.7407 33.1644 32.7743 32.6806 32.781C31.7131 32.8079 31.1621 32.781 31.1621 32.781L31.1621 32.8012Z" fill="#020202"/>
<path d="M29.8915 36.4574C29.8915 36.4574 30.429 36.4037 31.3764 36.3029C32.3238 36.2088 33.6677 36.0207 35.2735 35.7922C36.0798 35.6645 36.9466 35.5436 37.8671 35.3689C38.7877 35.2144 39.7485 35.0128 40.7429 34.8246C41.7441 34.65 42.7587 34.3879 43.8002 34.1595C44.8349 33.9041 45.8831 33.6354 46.9246 33.3464C47.9593 33.0374 49.0142 32.7753 50.0154 32.4259C51.0165 32.0765 52.0311 31.7876 52.9651 31.3912C53.8991 31.0082 54.8397 30.7058 55.6729 30.3027C56.5128 29.9129 57.3393 29.5971 58.0515 29.2074C58.7705 28.8312 59.4357 28.4885 60.0202 28.1861C60.6048 27.877 61.0751 27.5478 61.485 27.3059C62.298 26.8154 62.7684 26.5332 62.7684 26.5332C62.7684 26.5332 62.3249 26.849 61.5522 27.4C61.1558 27.6687 60.6988 28.0249 60.1344 28.3743C59.5633 28.7102 58.9116 29.0865 58.206 29.5031C57.5005 29.9197 56.6875 30.2691 55.8476 30.6991C55.0145 31.1358 54.0872 31.4852 53.1465 31.8749C52.2058 32.2848 51.198 32.5872 50.1834 32.9567C49.1755 33.3196 48.1139 33.595 47.0724 33.9243C46.0175 34.1998 44.9559 34.4618 43.9144 34.7037C42.8595 34.9187 41.8382 35.1673 40.8303 35.3286C39.8291 35.5167 38.8481 35.6713 37.9209 35.7922C36.9936 35.9333 36.1134 36.0207 35.3071 36.1147C33.6811 36.2894 32.3238 36.3633 31.3764 36.4104C30.429 36.4574 29.8848 36.4507 29.8848 36.4507L29.8915 36.4574Z" fill="#020202"/>
<path d="M29.1452 39.891C29.1452 39.891 29.6693 39.8439 30.5831 39.7566C31.4969 39.676 32.8004 39.5013 34.366 39.3064C35.1454 39.1855 35.992 39.0914 36.8789 38.9301C37.7726 38.7823 38.7065 38.621 39.6741 38.4396C40.6417 38.2784 41.6361 38.0634 42.644 37.8416C43.6586 37.6401 44.6664 37.3511 45.681 37.1025C46.6956 36.8405 47.6968 36.5448 48.6912 36.2626C49.6655 35.9267 50.6398 35.6377 51.5536 35.2883C52.4607 34.9121 53.361 34.6164 54.1808 34.2469C54.9938 33.8706 55.7799 33.5279 56.4787 33.1785C57.1641 32.7955 57.7957 32.4529 58.3601 32.1505C58.649 32.0094 58.8976 31.8481 59.1261 31.6869C59.3545 31.5323 59.5695 31.3912 59.7577 31.2636C60.5304 30.7596 60.9671 30.4707 60.9671 30.4707C60.9671 30.4707 60.5505 30.7932 59.8181 31.3576C59.6367 31.4987 59.4284 31.6533 59.2067 31.8213C58.985 31.996 58.7431 32.1706 58.4676 32.3319C57.9233 32.6746 57.3052 33.0576 56.6265 33.4675C55.9345 33.8504 55.155 34.22 54.3487 34.6299C53.5357 35.033 52.6421 35.3757 51.7216 35.7587C50.801 36.1215 49.82 36.4306 48.839 36.78C47.8446 37.0756 46.83 37.3847 45.8154 37.6602C44.7874 37.8954 43.7661 38.1709 42.7447 38.3657C41.7234 38.574 40.7223 38.7756 39.748 38.9301C38.7737 39.1115 37.8263 39.2258 36.926 39.34C36.0256 39.4609 35.1722 39.5281 34.3861 39.6155C32.8138 39.7566 31.4969 39.8171 30.5763 39.8507C29.6558 39.8843 29.125 39.8708 29.125 39.8708L29.1452 39.891Z" fill="#020202"/>
<path d="M28.8496 42.7196C28.8496 42.7196 29.3334 42.6725 30.18 42.5852C30.6033 42.5381 31.1207 42.4844 31.7053 42.4172C32.2898 42.3433 32.955 42.2627 33.6807 42.1753C34.3996 42.0745 35.1858 41.9804 36.0122 41.8461C36.8387 41.7117 37.7055 41.5706 38.6058 41.4228C39.5062 41.2817 40.4267 41.107 41.3674 40.9121C42.3081 40.7441 43.2488 40.5022 44.1962 40.2872C45.1436 40.0789 46.0775 39.8169 47.0048 39.5884C47.9186 39.3129 48.819 39.0442 49.6857 38.7821C50.5458 38.4798 51.3722 38.1908 52.1584 37.9154C52.9311 37.5996 53.6568 37.3039 54.3287 37.0284C54.9804 36.7059 55.5784 36.417 56.1093 36.1549C56.6535 35.9198 57.0768 35.6174 57.4464 35.4091C58.1855 34.9791 58.6021 34.7305 58.6021 34.7305C58.6021 34.7305 58.2056 35.0127 57.5069 35.5032C57.1507 35.7383 56.7476 36.0743 56.2168 36.3498C55.6994 36.6454 55.1148 36.9814 54.4698 37.3308C53.8046 37.6399 53.0789 37.9691 52.3129 38.3185C51.5402 38.641 50.707 38.9501 49.847 39.2726C48.9735 39.5548 48.0731 39.8438 47.1459 40.1192C46.2119 40.3611 45.278 40.6433 44.3238 40.8583C43.3697 41.0599 42.4156 41.2884 41.4682 41.4429C40.5208 41.6243 39.5936 41.7856 38.6865 41.9133C37.7861 42.0678 36.8992 42.1551 36.066 42.2559C35.2328 42.3567 34.4399 42.4172 33.7143 42.4911C32.2562 42.6121 31.0333 42.6591 30.1867 42.686C29.3334 42.7128 28.8496 42.6994 28.8496 42.6994L28.8496 42.7196Z" fill="#020202"/>
<path d="M28.998 46.3733C28.998 46.3733 29.4348 46.3262 30.2075 46.2456C30.9735 46.1717 32.0687 46.0171 33.3789 45.8492C34.0307 45.7484 34.7429 45.661 35.4888 45.5334C36.2346 45.4057 37.0207 45.2713 37.8337 45.1302C38.6468 44.9958 39.4799 44.8278 40.3266 44.6532C41.1799 44.4919 42.0265 44.2634 42.8866 44.0753C43.7399 43.8737 44.5932 43.652 45.4264 43.4303C46.2529 43.1749 47.0726 42.9532 47.852 42.6912C48.6247 42.409 49.3907 42.1805 50.0962 41.9117C50.795 41.6295 51.4669 41.3809 52.0716 41.1189C52.6629 40.8367 53.2139 40.5813 53.7044 40.3596C54.2016 40.1513 54.5913 39.8893 54.934 39.7146C55.6127 39.345 56.0024 39.1367 56.0024 39.1367C56.0024 39.1367 55.6328 39.3853 54.9945 39.8154C54.6652 40.0169 54.289 40.3126 53.8119 40.5612C53.3416 40.8232 52.804 41.1189 52.2195 41.428C51.6215 41.7169 50.9563 41.9991 50.2642 42.3149C49.5654 42.624 48.8061 42.8927 48.0267 43.1817C47.2406 43.4571 46.4208 43.699 45.5877 43.9678C44.7478 44.1962 43.8944 44.4381 43.0344 44.6532C42.1676 44.8346 41.3076 45.0496 40.4475 45.1974C39.5874 45.3587 38.7476 45.5199 37.9278 45.6409C37.1081 45.782 36.3152 45.8693 35.5559 45.9634C34.8034 46.0575 34.0845 46.1112 33.426 46.1851C32.1023 46.2993 31.0003 46.3397 30.2276 46.3665C29.4549 46.3934 29.0115 46.38 29.0115 46.38L28.998 46.3733Z" fill="#020202"/>
<path d="M29.7441 48.9064C29.7441 48.9064 31.2828 48.8796 33.5673 48.6377C34.7096 48.5302 36.0333 48.3353 37.4443 48.1069C38.1498 47.9859 38.8822 47.865 39.6146 47.7037C40.3537 47.5693 41.0995 47.4013 41.8386 47.2132C42.5845 47.0587 43.3169 46.8437 44.0425 46.6488C44.7682 46.4674 45.4737 46.2255 46.1591 46.0239C46.8444 45.8223 47.4895 45.5737 48.1143 45.3722C48.7392 45.1706 49.3171 44.9421 49.8479 44.7271C50.3787 44.5054 50.8759 44.3307 51.3059 44.1493C51.7292 43.9611 52.1055 43.7932 52.4079 43.6588C53.026 43.39 53.3822 43.2422 53.3822 43.2422C53.3822 43.2422 53.0462 43.4303 52.4616 43.7663C52.166 43.9275 51.8099 44.1291 51.4 44.3508C50.9901 44.5793 50.5064 44.7943 49.9823 45.0362C49.4582 45.2848 48.8938 45.5469 48.2689 45.782C47.6507 46.0239 47.0124 46.3128 46.3203 46.5279C45.635 46.7496 44.9362 47.0251 44.1971 47.2132C43.4647 47.4148 42.7256 47.6365 41.973 47.8045C41.2205 47.9859 40.4679 48.1472 39.7221 48.2816C38.9763 48.4361 38.2372 48.5302 37.5182 48.6377C36.806 48.7452 36.1072 48.7989 35.4487 48.8661C34.7902 48.9132 34.1653 48.9669 33.5875 48.9804C32.4318 49.0408 31.471 49.0005 30.799 48.9871C30.1271 48.9602 29.7441 48.9132 29.7441 48.9132L29.7441 48.9064Z" fill="#020202"/>
<path d="M31.6055 51.2995C31.6055 51.2995 31.9146 51.3129 32.4521 51.2861C32.9896 51.2726 33.7556 51.2054 34.6761 51.1181C35.5967 51.0442 36.6583 50.8829 37.7938 50.7082C38.3582 50.6074 38.9495 50.5133 39.5341 50.3924C40.1254 50.2849 40.7234 50.1572 41.3214 50.0094C41.9194 49.8817 42.5107 49.7205 43.0952 49.5659C43.6798 49.4181 44.2442 49.2367 44.7952 49.0754C45.3462 48.9209 45.8703 48.7261 46.3675 48.5648C46.8714 48.4035 47.335 48.2288 47.7651 48.0541C48.1951 47.8862 48.5915 47.7383 48.9409 47.604C49.2836 47.4561 49.586 47.3285 49.8346 47.221C50.3385 47.0194 50.6207 46.8984 50.6207 46.8984C50.6207 46.8984 50.3519 47.053 49.8883 47.3285C49.6531 47.4628 49.3642 47.6241 49.035 47.8055C48.7057 47.9869 48.316 48.1684 47.8994 48.3632C47.4829 48.5648 47.0192 48.7731 46.5287 48.9679C46.0315 49.1628 45.5209 49.398 44.9632 49.5727C44.4122 49.7541 43.8478 49.9691 43.2565 50.1236C42.6652 50.2849 42.0739 50.4596 41.4625 50.594C40.8578 50.7351 40.253 50.8627 39.6483 50.9635C39.0503 51.0845 38.4523 51.1449 37.8745 51.2323C36.7188 51.3734 35.637 51.4339 34.703 51.454C33.7758 51.4876 32.9963 51.4339 32.4588 51.4003C31.9146 51.3667 31.6122 51.2995 31.6122 51.2995L31.6055 51.2995Z" fill="#020202"/>
<path d="M33.4735 53.3085C33.4735 53.3085 33.6885 53.3085 34.0715 53.2951C34.4478 53.2951 34.992 53.2615 35.6371 53.2212C35.9596 53.201 36.309 53.1741 36.6718 53.1473C37.0414 53.1204 37.4244 53.0666 37.8275 53.0397C38.6271 52.939 39.4737 52.8382 40.3136 52.6769C40.7369 52.6097 41.1535 52.5291 41.5634 52.4283C41.9733 52.341 42.3764 52.2469 42.7661 52.1461C43.1558 52.052 43.5254 51.9445 43.8815 51.837C44.2376 51.7362 44.5669 51.6354 44.8692 51.5212C45.1716 51.4204 45.4538 51.3264 45.7024 51.239C45.9443 51.1382 46.1593 51.0576 46.334 50.9837C46.6834 50.8426 46.8917 50.7754 46.8917 50.7754C46.8917 50.7754 46.7103 50.8963 46.3877 51.0912C46.2198 51.1853 46.0249 51.3062 45.7965 51.4406C45.5613 51.5682 45.2925 51.6959 44.9969 51.837C44.7012 51.9848 44.3787 52.1259 44.0226 52.2536C43.6732 52.3947 43.3037 52.5358 42.9072 52.65C42.5175 52.771 42.1144 52.9054 41.6911 52.9927C41.2745 53.1002 40.8444 53.1876 40.4144 53.2615C39.9844 53.3421 39.5476 53.3959 39.1243 53.4496C38.701 53.5101 38.271 53.5235 37.8679 53.5638C37.0481 53.6042 36.2888 53.6109 35.6304 53.5638C34.9786 53.537 34.4344 53.4563 34.0581 53.4093C33.6818 53.3555 33.4668 53.3018 33.4668 53.3018L33.4735 53.3085Z" fill="#020202"/>
<path d="M13.8455 37.0091C13.8993 36.3775 13.6977 35.7728 13.0661 35.7997C11.9575 35.8534 11.8365 37.6811 12.4748 38.0909C13.3483 38.6486 13.7649 37.9162 13.8455 37.0091Z" fill="#969696"/>
<path d="M13.0669 35.7995C12.9593 35.7995 12.8586 35.8331 12.7712 35.8667C12.8586 35.9607 12.9325 36.0749 12.9661 36.2093C13.0669 36.6326 13.0534 37.2105 12.704 37.5196C12.5562 37.6539 12.3748 37.701 12.1934 37.6943C12.2606 37.8622 12.3546 37.9966 12.4756 38.0773C13.3491 38.6349 13.7656 37.9026 13.8463 36.9955C13.9 36.3639 13.6985 35.7591 13.0669 35.786L13.0669 35.7995Z" fill="#969696"/>
<path d="M13.0661 35.8006C13.0257 35.8006 12.9922 35.8207 12.9518 35.8274C13.2744 35.8879 13.5028 36.2104 13.5498 36.5733C13.617 37.0906 13.5297 37.9372 12.9317 38.1187C12.6226 38.2127 12.4009 38.0716 12.2598 37.8499C12.3135 37.9507 12.3807 38.0313 12.4681 38.0851C13.3415 38.6428 13.7581 37.9104 13.8388 37.0033C13.8925 36.3717 13.6909 35.767 13.0593 35.7938L13.0661 35.8006Z" fill="#969696"/>
<path d="M32.0273 51.9397C29.5143 48.9564 28.3855 45.6573 28.7013 41.7467C29.3396 33.724 36.9726 18.4917 44.236 10.5765C46.5004 8.11058 49.2552 5.75215 52.6618 5.15415C55.1681 4.71068 57.849 5.44307 60.241 6.55173C58.7292 5.46323 57.0091 4.65693 55.2218 4.15299C51.3314 3.04433 46.3861 2.69493 42.7175 4.65021C39.5729 6.32328 37.2817 9.34691 35.3869 12.2832C33.828 14.6954 32.4506 17.2352 31.1336 19.7885C28.2645 25.352 25.2208 30.949 23.9576 37.1374C22.5465 44.038 24.4749 51.8523 32.202 53.6396C32.9747 53.8211 33.7138 53.9286 34.4462 53.9958C33.5593 53.4515 32.7395 52.7796 32.034 51.9397L32.0273 51.9397Z" fill="#484344"/>
<path d="M34.4465 54.2982C34.4465 54.2982 34.4264 54.2982 34.4196 54.2982C33.6201 54.2243 32.8742 54.1033 32.1351 53.9353C24.2804 52.1144 22.2244 44.1589 23.669 37.0837C24.8515 31.285 27.6064 25.9702 30.2672 20.83L30.8719 19.6542C31.9604 17.5376 33.4319 14.7693 35.1386 12.1287C36.9729 9.28648 39.291 6.14191 42.5767 4.38821C44.364 3.44081 46.541 2.95703 49.0472 2.95703C51.0496 2.95703 53.2131 3.27283 55.3028 3.87083C57.164 4.40165 58.8707 5.21467 60.369 6.28301C60.4765 6.33005 60.5505 6.43755 60.5505 6.5585C60.5505 6.72648 60.4228 6.86086 60.2481 6.85414C60.2078 6.85414 60.1607 6.84742 60.1137 6.82727C57.3387 5.54391 54.8325 5.07357 52.7159 5.44984C49.1145 6.08144 46.279 8.79598 44.4514 10.7849C37.1409 18.7471 29.6356 33.8114 28.9973 41.7804C28.6949 45.5297 29.7633 48.7952 32.2561 51.7583C32.9011 52.531 33.694 53.2029 34.5943 53.7539C34.7153 53.8278 34.7623 53.9689 34.722 54.1033C34.6817 54.2243 34.5675 54.3049 34.4398 54.3049L34.4465 54.2982ZM49.0472 3.5416C46.6418 3.5416 44.5588 3.9985 42.8589 4.90559C39.6942 6.5921 37.4298 9.65604 35.6425 12.4378C33.9493 15.065 32.4845 17.8131 31.4027 19.9162L30.7913 21.0921C28.1507 26.1986 25.416 31.4732 24.2468 37.1912C22.8627 43.9842 24.8045 51.6172 32.2628 53.344C32.5987 53.418 32.928 53.4851 33.2707 53.5456C32.7264 53.1223 32.2359 52.6453 31.7992 52.1279C29.1988 49.0371 28.0902 45.6372 28.406 41.7199C29.051 33.6435 36.637 18.4111 44.0146 10.3683C45.896 8.31892 48.8322 5.51703 52.6084 4.85183C53.9321 4.61666 55.3901 4.69057 56.949 5.06013C56.3644 4.81824 55.7597 4.60994 55.1348 4.42853C53.0922 3.84396 50.9891 3.5416 49.0405 3.5416L49.0472 3.5416Z" fill="#232021"/>
<g style="mix-blend-mode:multiply" opacity="0.3">
<path d="M32.0273 51.9385C29.5143 48.9552 28.3855 45.6561 28.7013 41.7455C29.306 34.1797 36.1327 20.1904 42.9997 11.9863C41.1452 13.4847 39.5124 15.2518 37.967 17.1265C36.1932 19.2699 34.5402 21.6955 32.2423 23.335C31.4629 23.8927 29.81 24.9543 28.7685 24.3832C26.7259 28.4617 24.8714 32.6343 23.9576 37.1294C22.5465 44.03 24.4749 51.8444 32.202 53.6317C32.9747 53.8131 33.7138 53.9206 34.4462 53.9878C33.5593 53.4436 32.7395 52.7717 32.034 51.9318L32.0273 51.9385Z" fill="#484344"/>
</g>
<g style="mix-blend-mode:multiply" opacity="0.3">
<path d="M32.0273 51.9385C29.5143 48.9552 28.3855 45.6561 28.7013 41.7455C28.8558 39.7768 29.4404 37.3713 30.334 34.7441C29.7293 35.5706 27.7673 39.3199 27.176 40.2337C26.7393 40.9056 25.7717 42.2965 24.7639 41.9874C24.1658 41.806 23.7829 41.3625 23.541 40.7847C23.3999 46.5699 25.8188 52.1535 32.202 53.6317C32.9747 53.8131 33.7138 53.9206 34.4462 53.9878C33.5592 53.4436 32.7395 52.7717 32.034 51.9318L32.0273 51.9385Z" fill="#484344"/>
</g>
<path opacity="0.5" d="M52.2328 3.28612C52.2328 3.28612 52.226 3.27268 52.1992 3.2458C52.1723 3.21221 52.132 3.17861 52.0916 3.16517C51.9841 3.1047 51.8699 3.07782 51.749 3.04423C51.4668 2.97703 51.1174 3.03079 50.8755 3.17861C50.6873 3.29284 50.6873 3.51457 50.8755 3.62207C51.1711 3.79005 51.534 3.7363 51.8565 3.7027C52.0513 3.68255 52.2932 3.66239 52.3067 3.41378C52.3067 3.36003 52.2798 3.31299 52.2328 3.2794L52.2328 3.28612Z" fill="white"/>
<path opacity="0.5" d="M49.8596 3.25244C48.1798 2.7149 45.9423 3.36666 44.3499 3.97811C42.6298 4.63658 41.1045 5.98714 39.9152 7.35785C36.6766 11.087 34.0158 15.3066 32.1344 19.8757C32.0471 20.0907 32.3562 20.2721 32.4906 20.0772C33.6933 18.3504 34.6541 16.4354 35.7426 14.6347C36.8513 12.8071 37.9936 11.0534 39.3172 9.36688C40.5872 7.74756 42.0654 6.1484 43.8594 5.11365C45.6265 4.09233 47.8237 3.62871 49.8395 3.45401C49.9402 3.44729 49.9604 3.28603 49.8596 3.25916L49.8596 3.25244Z" fill="white"/>
<path opacity="0.5" d="M39.5935 2.5331C37.692 2.10979 35.7367 1.85446 33.7882 2.08963C31.6784 2.35168 30.0456 3.75599 28.5405 5.1267C25.2414 8.13016 22.4529 12.1415 20.8336 16.3074C20.7664 16.4754 21.015 16.6299 21.1158 16.4686C23.2996 12.9881 25.3959 9.4404 28.3591 6.55116C29.9784 4.96544 31.638 3.47378 33.9226 2.99672C35.7703 2.60701 37.7323 3.07063 39.5935 2.77499C39.7346 2.75483 39.7212 2.56669 39.5935 2.5331Z" fill="white"/>
<path opacity="0.5" d="M26.3779 2.96333C22.2188 4.31389 17.7707 7.39126 15.6877 11.3287C15.6004 11.4967 15.8557 11.6982 15.9901 11.5571C17.5422 9.97814 18.9264 8.31179 20.6532 6.90076C22.4338 5.44271 24.4562 4.28029 26.5392 3.33289C26.7811 3.22538 26.6198 2.8827 26.3779 2.96333Z" fill="white"/>
<path opacity="0.5" d="M9.74605 19.5336C8.73818 20.4205 8.20064 21.8786 7.67655 23.088C6.83665 25.0299 6.58133 27.0524 6.36631 29.1286C6.34616 29.2898 6.61493 29.3705 6.65524 29.2025C7.08527 27.5697 7.25996 25.9101 7.78406 24.2975C8.30815 22.6849 9.00694 21.1193 9.86028 19.6546C9.90731 19.5739 9.81996 19.4597 9.73261 19.5336L9.74605 19.5336Z" fill="white"/>
<path opacity="0.5" d="M61.5728 13.9823C60.3096 14.8558 59.0262 15.6688 57.7227 16.4281C57.5547 15.8704 57.38 15.3194 57.212 14.7752C56.8223 13.4985 56.3789 12.2756 55.8816 11.0864C56.5737 10.6966 57.2456 10.2868 57.8772 9.81643C58.0251 9.70892 57.8772 9.44016 57.7093 9.54094C57.0508 9.93737 56.3721 10.3002 55.6935 10.6563C54.9342 8.90934 54.0339 7.23627 52.9319 5.61023C52.8714 5.52288 52.7169 5.61023 52.7707 5.7043C53.7382 7.37065 54.5714 9.09748 55.2971 10.8646C53.4292 11.812 51.5008 12.6318 49.5455 13.3843C48.84 11.9262 48.0001 10.5018 47.1535 9.14451C47.1266 9.09748 47.0526 9.14451 47.0728 9.19155C47.8388 10.6026 48.5376 12.0472 49.2095 13.512C48.0068 13.9689 46.7973 14.4123 45.5879 14.8356C45.4871 14.8692 45.5543 15.0171 45.6551 14.9835C46.8511 14.6072 48.1008 14.2242 49.3506 13.8143C50.1905 15.6621 50.9565 17.5435 51.6687 19.4383C50.1771 20.0632 48.6653 20.6208 47.1198 21.1046C46.5218 19.7003 45.8231 18.3431 44.963 17.0127C44.9025 16.9186 44.7413 17.0127 44.795 17.1134C45.514 18.464 46.1321 19.8347 46.6764 21.239C44.4994 21.8975 42.2619 22.4283 39.9572 22.818C39.8632 22.8315 39.8833 22.9726 39.9774 22.9658C42.2619 22.7643 44.5867 22.3745 46.8847 21.79C47.6977 23.967 48.336 26.191 48.9273 28.4487C48.7728 28.5024 48.6249 28.5629 48.4704 28.6167C46.8511 29.1743 45.1108 29.6514 43.4243 29.9403C41.7244 30.2293 40.0446 30.7063 38.3177 30.8071C38.2371 30.8071 38.2438 30.9415 38.3177 30.9482C41.5631 31.096 45.0571 30.2024 48.1412 29.2483C48.4435 29.1542 48.7526 29.0534 49.055 28.9526C49.4648 30.5383 49.8478 32.1375 50.2443 33.7367C50.298 33.9382 50.5802 33.8979 50.5668 33.6896C50.4593 32.0501 50.0696 30.3972 49.6127 28.7712C51.0439 28.2807 52.475 27.7028 53.8659 27.0578C54.3564 29.3356 54.773 31.6336 55.3038 33.8912C55.3508 34.1062 55.6599 34.0592 55.6397 33.8374C55.4382 31.4589 54.988 29.1139 54.4101 26.8025C55.7271 26.1709 57.0105 25.4654 58.2065 24.6927C58.3946 24.5717 58.2065 24.2626 58.0049 24.3567C56.7551 24.9749 55.5121 25.5997 54.2556 26.1978C53.8189 24.5045 53.3082 22.8315 52.7774 21.1651C52.6497 20.7687 52.5019 20.3722 52.3541 19.9825C54.1279 19.2501 55.8481 18.3834 57.4607 17.3822C58.1393 19.9153 58.6701 22.4955 59.1068 25.0891C59.1337 25.2705 59.4428 25.2772 59.4361 25.0891C59.4092 22.4216 58.7037 19.707 57.9243 17.1C59.2748 16.2332 60.5582 15.2724 61.7408 14.2108C61.8684 14.0965 61.7206 13.9084 61.5795 14.0025L61.5728 13.9823ZM53.7248 26.4329C52.3272 27.0847 50.9095 27.7028 49.4581 28.2404C49.1692 27.2258 48.8534 26.2313 48.5712 25.2504C48.2084 24.0073 47.8119 22.818 47.3416 21.6623C48.8937 21.2457 50.4257 20.7351 51.924 20.1438C52.0047 20.3655 52.092 20.5873 52.1659 20.809C52.8177 22.6433 53.2948 24.5314 53.7181 26.4329L53.7248 26.4329ZM52.0853 19.2569C51.4739 17.7249 50.7751 16.2064 50.1502 14.708C50.0091 14.372 49.8478 14.0361 49.6933 13.7001C51.6822 13.0416 53.6643 12.2824 55.4852 11.3081C56.184 13.0618 56.7753 14.8558 57.2792 16.6767C55.586 17.6375 53.8592 18.4909 52.092 19.2501L52.0853 19.2569Z" fill="white"/>
<g filter="url(#filter0_ii_60_26907)">
<path d="M55.1788 34.0467C55.1898 38.1579 53.99 42.1801 51.7311 45.6043C49.4722 49.0284 46.2557 51.7006 42.4886 53.2828C38.7216 54.865 34.5733 55.2861 30.5685 54.4928C26.5638 53.6995 22.8826 51.7274 19.9907 48.8261C17.0989 45.9249 15.1263 42.2247 14.3227 38.1939C13.519 34.1631 13.9204 29.9828 15.4759 26.1819C17.0315 22.3809 19.6714 19.1302 23.0615 16.841C26.4517 14.5518 30.4399 13.327 34.5213 13.3216C37.2287 13.316 39.9105 13.8476 42.4139 14.8861C44.9173 15.9246 47.1932 17.4497 49.1115 19.3742C51.0297 21.2988 52.5529 23.5851 53.5939 26.1026C54.6349 28.6201 55.1735 31.3195 55.1788 34.0467Z" fill="#8250CB"/>
</g>
<path d="M54.1788 34.0486L54.1788 34.0494C54.1893 37.9644 53.0467 41.794 50.8964 45.0536C48.7461 48.3131 45.685 50.8557 42.1014 52.3608C38.5178 53.866 34.572 54.2665 30.7628 53.5119C26.9536 52.7573 23.4511 50.8813 20.699 48.1202C17.9468 45.359 16.0686 41.8366 15.3034 37.9984C14.5381 34.1601 14.9203 30.1796 16.4014 26.5606C17.8825 22.9418 20.3954 19.8479 23.6211 17.6698C26.8468 15.4917 30.6407 14.3268 34.5226 14.3216L34.5234 14.3216C37.0984 14.3162 39.6493 14.8218 42.0307 15.8098C44.4122 16.7977 46.5776 18.2487 48.4032 20.0802C50.2288 21.9117 51.6787 24.0879 52.6698 26.4847C53.6609 28.8816 54.1738 31.4518 54.1788 34.0486Z" stroke="white" stroke-width="2"/>
<defs>
<filter id="filter0_ii_60_26907" x="11.918" y="9.32227" width="45.2617" height="49.5605" filterUnits="userSpaceOnUse" color-interpolation-filters="sRGB">
<feFlood flood-opacity="0" result="BackgroundImageFix"/>
<feBlend mode="normal" in="SourceGraphic" in2="BackgroundImageFix" result="shape"/>
<feColorMatrix in="SourceAlpha" type="matrix" values="0 0 0 0 0 0 0 0 0 0 0 0 0 0 0 0 0 0 127 0" result="hardAlpha"/>
<feOffset dx="2" dy="4"/>
<feGaussianBlur stdDeviation="5"/>
<feComposite in2="hardAlpha" operator="arithmetic" k2="-1" k3="1"/>
<feColorMatrix type="matrix" values="0 0 0 0 0 0 0 0 0 0 0 0 0 0 0 0 0 0 0.15 0"/>
<feBlend mode="normal" in2="shape" result="effect1_innerShadow_60_26907"/>
<feColorMatrix in="SourceAlpha" type="matrix" values="0 0 0 0 0 0 0 0 0 0 0 0 0 0 0 0 0 0 127 0" result="hardAlpha"/>
<feOffset dx="-2" dy="-4"/>
<feGaussianBlur stdDeviation="5"/>
<feComposite in2="hardAlpha" operator="arithmetic" k2="-1" k3="1"/>
<feColorMatrix type="matrix" values="0 0 0 0 0 0 0 0 0 0 0 0 0 0 0 0 0 0 0.15 0"/>
<feBlend mode="normal" in2="effect1_innerShadow_60_26907" result="effect2_innerShadow_60_26907"/>
</filter>
</defs>
</svg>
